<?xml version="1.0" encoding="UTF-8" standalone="no"?>
<!-- Created with Inkscape (http://www.inkscape.org/) -->

<svg
   xmlns:dc="http://purl.org/dc/elements/1.1/"
   xmlns:cc="http://creativecommons.org/ns#"
   xmlns:rdf="http://www.w3.org/1999/02/22-rdf-syntax-ns#"
   xmlns:svg="http://www.w3.org/2000/svg"
   xmlns="http://www.w3.org/2000/svg"
   xmlns:sodipodi="http://sodipodi.sourceforge.net/DTD/sodipodi-0.dtd"
   xmlns:inkscape="http://www.inkscape.org/namespaces/inkscape"
   width="512"
   height="512"
   viewBox="0 0 512 512"
   version="1.1"
   id="svg6206"
   inkscape:version="0.92.1 r15371"
   sodipodi:docname="01.svg">
  <defs
     id="defs6200" />
  <sodipodi:namedview
     id="base"
     pagecolor="#ffffff"
     bordercolor="#666666"
     borderopacity="1.0"
     inkscape:pageopacity="0.0"
     inkscape:pageshadow="2"
     inkscape:zoom="1.4"
     inkscape:cx="314.81249"
     inkscape:cy="247.65366"
     inkscape:document-units="px"
     inkscape:current-layer="svg6206"
     showgrid="false"
     units="px"
     inkscape:window-width="1920"
     inkscape:window-height="1017"
     inkscape:window-x="1912"
     inkscape:window-y="-8"
     inkscape:window-maximized="1" />
  <metadata
     id="metadata6203">
    <rdf:RDF>
      <cc:Work
         rdf:about="">
        <dc:format>image/svg+xml</dc:format>
        <dc:type
           rdf:resource="http://purl.org/dc/dcmitype/StillImage" />
        <dc:title />
      </cc:Work>
    </rdf:RDF>
  </metadata>
  <path
     style="fill:#ffffff;fill-opacity:1;stroke:none;stroke-width:0.26458332px;stroke-linecap:butt;stroke-linejoin:miter;stroke-opacity:1"
     d="m 169.01618,296.43838 14.20532,-6.12184 19.81264,-1.08031 27.66296,-1.80054 1.86912,-22.32669 -5.60736,-22.32668 -12.33616,-14.04422 -10.09325,-3.96117 -10.8409,1.08031 -12.71001,11.52346 -9.34559,11.16333 -4.85971,13.32399 -1.12146,19.08574 z"
     id="lvl65-col30"
     inkscape:connector-curvature="0" />
  <path
     style="fill:#ffffff;fill-opacity:1;stroke:none;stroke-width:0.26458332px;stroke-linecap:butt;stroke-linejoin:miter;stroke-opacity:1"
     d="m 284.33784,288.59865 24.74643,-0.7274 21.21127,4.00065 11.66617,5.09177 3.88875,-26.18619 -6.71691,-22.54923 -16.61547,-18.91226 -13.08026,-4.72805 -19.44363,12.72939 -6.3634,16.00265 -2.12111,17.82118 z"
     id="lvl65-col30-2"
     inkscape:connector-curvature="0" />
  <path
     style="display:inline;fill:#000000"
     d="m 168.08298,298.59996 c -1.72127,-2.07401 -3.26672,-12.81871 -3.39448,-23.59999 -0.2151,-18.1517 5.65325,-31.10804 19.21212,-42.41711 14.04864,-11.71758 22.39538,-12.55756 33.53557,-3.37488 5.21,4.29452 11.16335,13.75562 13.58096,21.58294 3.44328,11.14804 3.56397,36.02793 0.19112,39.40078 -0.46607,0.46607 -8.9161,1.01059 -18.77784,1.21004 -19.0532,0.38534 -25.32855,1.452 -35.80795,6.08648 -6.60438,2.92077 -6.99584,2.97174 -8.5395,1.11174 z m 14.99269,-9.24361 c 6.21789,-2.21403 10.33118,-2.8234 25.31287,-3.75 17.71709,-1.09578 17.89775,-1.13034 18.85003,-3.60638 1.53675,-3.99569 0.0308,-23.57476 -2.37337,-30.85571 -2.51214,-7.60808 -8.61546,-15.47695 -15.12676,-19.50258 -7.16976,-4.43272 -11.48282,-3.39191 -22.05687,5.32266 -9.52804,7.8525 -13.32734,13.93168 -16.19379,25.91133 -1.73305,7.2429 -1.69534,17.07749 0.0992,25.8743 0.81622,4.00109 1.80796,4.05344 11.48867,0.60638 z M 200.323,271.41388 c -3.08327,-3.08327 -2.72241,-6.34556 0.927,-8.38049 2.47108,-1.37789 3.02892,-1.37789 5.5,0 3.26139,1.81857 4.05997,5.41409 1.76559,7.94935 -2.72147,3.00719 -5.4718,3.15193 -8.19259,0.43114 z m 131.79864,24.86931 c -9.75545,-4.0412 -23.29261,-5.77347 -39.35508,-5.03602 -8.45221,0.38806 -9.9476,0.21024 -11.36039,-1.35088 -3.61115,-3.99027 -3.53485,-28.94598 0.12232,-40.00625 3.24531,-9.81472 9.92982,-18.53156 18.41729,-24.01685 5.08424,-3.28585 10.94225,-3.7825 16.62221,-1.40926 6.0833,2.54177 18.84616,13.1412 21.37903,17.75507 1.29256,2.35454 2.92076,4.95597 3.61822,5.78097 2.58525,3.058 5.37344,12.5338 6.00167,20.39693 0.66452,8.31744 -0.9942,26.66444 -2.69862,29.84917 -1.26258,2.35916 -2.93496,2.10162 -12.74665,-1.96288 z m 8.81682,-9.55066 c 3.86179,-18.83209 -0.68035,-34.94478 -13.27624,-47.09582 -11.47214,-11.06699 -17.83704,-12.94331 -25.86606,-7.62511 -5.82581,3.85886 -11.1987,10.77559 -13.82678,17.79976 -2.24869,6.01014 -4.0734,24.60484 -3.04,30.97893 l 0.60143,3.70968 17.9846,1.17229 c 18.26785,1.19074 21.09518,1.67105 29.98459,5.0937 2.75,1.05883 5.30722,1.76179 5.68272,1.56214 0.3755,-0.19965 1.16558,-2.71766 1.75574,-5.59557 z m -34.64538,-14.25138 c -5.36411,-2.25544 -5.20843,-8.71137 0.24307,-10.07961 5.1619,-1.29555 9.03206,3.79968 6.49163,8.54652 -1.396,2.60846 -3.20031,3.01919 -6.7347,1.53309 z"
     id="lvl69"
     inkscape:connector-curvature="0"
     inkscape:label="lvl69" />
</svg>
