<?xml version="1.0" encoding="UTF-8" standalone="no"?>
<!-- Created with Inkscape (http://www.inkscape.org/) -->

<svg
   xmlns:dc="http://purl.org/dc/elements/1.1/"
   xmlns:cc="http://creativecommons.org/ns#"
   xmlns:rdf="http://www.w3.org/1999/02/22-rdf-syntax-ns#"
   xmlns:svg="http://www.w3.org/2000/svg"
   xmlns="http://www.w3.org/2000/svg"
   xmlns:sodipodi="http://sodipodi.sourceforge.net/DTD/sodipodi-0.dtd"
   xmlns:inkscape="http://www.inkscape.org/namespaces/inkscape"
   width="512"
   height="512"
   viewBox="0 0 512 512"
   version="1.1"
   id="svg6206"
   inkscape:version="0.92.1 r15371"
   sodipodi:docname="02.svg">
  <defs
     id="defs6200" />
  <sodipodi:namedview
     id="base"
     pagecolor="#ffffff"
     bordercolor="#666666"
     borderopacity="1.0"
     inkscape:pageopacity="0.0"
     inkscape:pageshadow="2"
     inkscape:zoom="1.979899"
     inkscape:cx="148.90752"
     inkscape:cy="253.33315"
     inkscape:document-units="px"
     inkscape:current-layer="svg6206"
     showgrid="false"
     units="px"
     inkscape:window-width="1920"
     inkscape:window-height="1017"
     inkscape:window-x="1912"
     inkscape:window-y="-8"
     inkscape:window-maximized="1" />
  <metadata
     id="metadata6203">
    <rdf:RDF>
      <cc:Work
         rdf:about="">
        <dc:format>image/svg+xml</dc:format>
        <dc:type
           rdf:resource="http://purl.org/dc/dcmitype/StillImage" />
        <dc:title />
      </cc:Work>
    </rdf:RDF>
  </metadata>
  <path
     style="fill:#ffffff;fill-opacity:1;stroke:none;stroke-width:0.26458332px;stroke-linecap:butt;stroke-linejoin:miter;stroke-opacity:1"
     d="m 171.40349,297.02485 13.41029,-6.2221 18.70369,-1.09803 26.11467,-1.83002 1.76453,-22.69238 -5.29347,-22.69243 -11.64577,-14.2742 -9.52839,-4.0261 -10.2341,1.09805 -11.99861,11.71216 -8.82251,11.34622 -4.58768,13.54223 -1.05875,19.39834 z"
     id="lvl65-col30"
     inkscape:connector-curvature="0" />
  <path
     style="fill:#ffffff;fill-opacity:1;stroke:none;stroke-width:0.26458332px;stroke-linecap:butt;stroke-linejoin:miter;stroke-opacity:1"
     d="m 282.84232,287.50579 25.45781,-0.70169 21.82097,3.85921 12.00157,4.91177 4.0005,-25.26042 -6.90999,-21.75203 -17.09312,-18.24364 -13.45627,-4.56094 -20.00257,12.27941 -6.54627,15.4369 -2.18209,17.19112 z"
     id="lvl65-col30-2"
     inkscape:connector-curvature="0" />
  <path
     style="fill:#babdb6;fill-opacity:1;stroke:none;stroke-width:0.26458332px;stroke-linecap:butt;stroke-linejoin:miter;stroke-opacity:1"
     d="m 198.82223,264.18988 3.29245,-2.90609 5.17387,1.66061 3.05731,2.49092 -0.70553,5.39699 -6.11457,3.11364 -6.58494,-3.52878 z"
     id="lvl65-col31"
     inkscape:connector-curvature="0" />
  <path
     style="fill:#babdb6;fill-opacity:1;stroke:none;stroke-width:0.26458332px;stroke-linecap:butt;stroke-linejoin:miter;stroke-opacity:1"
     d="m 299.08722,267.06151 2.52414,-5.8571 6.65463,-0.22522 4.3599,4.28018 -0.91788,5.18126 -5.9662,2.02747 -5.27776,-1.35163 z"
     id="lvl65-col31-2"
     inkscape:connector-curvature="0" />
  <path
     style="display:inline;fill:#000000"
     d="m 202.97656,222.97656 c -5.58336,0.17453 -11.59072,3.36272 -19.06836,9.59961 -15.46939,12.90259 -21.26516,28.19438 -18.9707,50.05078 0.57007,5.43038 1.51257,11.56055 2.0957,13.62305 0.58868,2.08211 1.69346,3.75 2.48438,3.75 0.78347,0 3.98174,-1.13026 7.10547,-2.51172 10.48861,-4.63856 16.74976,-5.70118 35.87695,-6.08789 10.51037,-0.2125 15.15596,-0.44074 17.36914,-1.00977 l 0.63086,-0.0117 0.0957,-0.19727 c 0.52567,-0.20559 0.85653,-0.44788 1.07032,-0.74023 1.59848,-2.18595 2.72512,-17.08934 1.91406,-25.32032 -1.41014,-14.31073 -5.66628,-24.18258 -14.08008,-32.65625 -5.78128,-5.82242 -10.94008,-8.66281 -16.52344,-8.48828 z M 308.98242,223 c -5.00548,0 -8.84229,1.90836 -14.70508,7.3125 -5.94135,5.47654 -9.95115,11.44685 -12.39648,18.45508 -3.93835,11.28716 -4.16275,37.05319 -0.35938,41.25586 1.29401,1.42986 2.97851,1.62405 10.75586,1.24414 15.98627,-0.7809 30.14374,0.99923 39.8125,5.0039 4.32334,1.79068 8.56938,3.30658 9.90625,3.55469 0.0115,0.003 0.12312,0.0493 0.13086,0.0508 0.0436,0.009 0.0872,-0.003 0.13086,-0.002 0.003,2.5e-4 0.0105,0.002 0.0137,0.002 2.5045,0.17393 3.5122,-2.86165 4.99024,-15.0332 1.35071,-11.12302 0.52184,-21.86583 -2.30274,-29.84375 -2.93444,-8.28823 -9.75113,-17.41469 -17.40039,-23.29688 C 318.77488,224.94858 314.61561,223 308.98242,223 Z m -106.75586,6.03125 c 0.89843,0.0252 1.7968,0.14345 2.69336,0.33203 1.60586,0.44203 3.26574,1.27614 5.13477,2.46484 11.03347,7.01734 16.47376,18.3165 17.49804,36.3418 0.0389,0.68454 0.0672,1.16503 0.10547,1.79297 0.13963,4.12045 0.13696,7.94962 0.01,10.5332 -1.10402,4.4152 -5.4754,4.25358 -19.28125,5.09571 -14.98495,0.91404 -19.11497,1.52255 -25.46094,3.75 -4.16635,1.46239 -8.2726,2.6582 -9.125,2.6582 -1.85303,0 -2.67894,-3.45983 -3.45703,-14.5 -1.14464,-16.24108 4.8235,-30.22638 17.30664,-40.55664 6.04787,-5.00484 10.00003,-7.49897 13.62305,-7.89063 0.31761,-0.0117 0.63538,-0.0304 0.95312,-0.0215 z m 108.26758,0.13672 c 4.83827,0.23005 10.0239,3.5761 17.24219,10.53906 8.16971,7.88073 11.1268,13.40773 13.53515,25.29297 1.26955,6.26526 1.32518,9.02072 0.3418,16.73242 -0.64745,5.07733 -1.61186,9.62254 -2.14453,10.10156 -0.56247,0.50582 -3.06495,0.0541 -5.96875,-1.07617 -8.9371,-3.47872 -15.07659,-4.52692 -30.79688,-5.26367 -8.09507,-0.37939 -15.21462,-0.99909 -16.46484,-1.41602 -0.14844,-0.0724 -0.27003,-0.15387 -0.39258,-0.23437 -0.74793,-0.96072 -0.91371,-4.9561 -0.63281,-14.46484 0.33359,-11.29191 0.8221,-14.92488 2.61914,-19.49024 2.82846,-7.18567 8.19402,-14.05451 13.96485,-17.87695 3.01638,-1.99797 5.7943,-2.98178 8.69726,-2.84375 z m -5.44726,28.90234 c -2.06937,0.008 -2.95994,0.69713 -5.0254,2.90821 -1.94444,2.08153 -3.02148,4.28261 -3.02148,6.17773 0,3.34909 2.33347,8.41136 4.22852,9.17383 0.69907,0.28127 3.15283,0.54839 5.45117,0.5918 3.42959,0.0648 4.81907,-0.52485 7.75,-3.28907 4.38419,-4.13483 4.73753,-7.79674 1.11719,-11.57812 -0.0279,-0.0297 -0.0574,-0.0585 -0.0859,-0.0879 -0.1278,-0.13131 -0.24737,-0.2629 -0.38477,-0.39453 -2.02998,-1.94484 -4.31784,-2.95798 -7.48047,-3.31446 -1.03834,-0.11703 -1.85904,-0.19024 -2.54882,-0.1875 z m -103.30079,0.0176 c -1.76279,0.0271 -2.75428,0.75007 -4.80664,2.88867 -0.22146,0.20924 -0.43403,0.43475 -0.63867,0.67774 -4.32947,4.69944 -4.19653,8.23166 0.48242,13.5957 0.79631,0.91289 2.3224,1.45813 4.10547,1.64453 0.12049,0.0134 0.24054,0.0264 0.36328,0.0352 2.5895,0.19561 5.64491,-0.34706 7.82813,-1.63672 1.58847,-0.93834 3.57234,-3.15047 4.41015,-4.91602 2.78191,-5.86243 -1.23127,-10.99604 -9.45898,-12.09961 -0.92093,-0.12352 -1.65431,-0.19914 -2.28516,-0.18945 z m 105.91797,6.07813 c 1.19629,0.0247 2.33928,0.48695 3.02149,1.41992 1.08498,1.48381 1.02902,2.07253 -0.34766,3.59375 -0.46803,0.51716 -0.97014,0.9072 -1.48437,1.19531 -0.7721,0.26407 -1.61286,0.44695 -2.4004,0.51953 -0.92258,-0.11936 -1.80017,-0.60705 -2.52343,-1.47851 -0.95006,-1.14476 -1.02422,-2.04572 -0.26953,-3.25 0.84073,-1.34159 2.46582,-2.03182 4.0039,-2 z m -103.53515,0.0664 c 3.54886,0.1455 5.37069,3.89503 1.9375,5.73242 -1.11032,0.59422 -2.07753,0.93337 -2.89844,1.03907 -0.65553,0.0151 -1.28582,-0.083 -1.8418,-0.29688 C 200.46071,270.18677 200,269.06579 200,267.35156 c 0,-1.63777 0.73528,-2.49701 2.51367,-2.94336 0.56724,-0.14237 1.10826,-0.19656 1.61524,-0.17578 z"
     id="lvl69"
     inkscape:connector-curvature="0"
     inkscape:label="lvl69" />
</svg>
