<?xml version="1.0" encoding="UTF-8" standalone="no"?>
<!-- Created with Inkscape (http://www.inkscape.org/) -->

<svg
   xmlns:dc="http://purl.org/dc/elements/1.1/"
   xmlns:cc="http://creativecommons.org/ns#"
   xmlns:rdf="http://www.w3.org/1999/02/22-rdf-syntax-ns#"
   xmlns:svg="http://www.w3.org/2000/svg"
   xmlns="http://www.w3.org/2000/svg"
   xmlns:sodipodi="http://sodipodi.sourceforge.net/DTD/sodipodi-0.dtd"
   xmlns:inkscape="http://www.inkscape.org/namespaces/inkscape"
   width="512"
   height="512"
   viewBox="0 0 512 512"
   version="1.1"
   id="svg6206"
   inkscape:version="0.92.1 r15371"
   sodipodi:docname="06.svg">
  <defs
     id="defs6200" />
  <sodipodi:namedview
     id="base"
     pagecolor="#ffffff"
     bordercolor="#666666"
     borderopacity="1.0"
     inkscape:pageopacity="0.0"
     inkscape:pageshadow="2"
     inkscape:zoom="11.2"
     inkscape:cx="249.47859"
     inkscape:cy="232.27154"
     inkscape:document-units="px"
     inkscape:current-layer="svg6206"
     showgrid="false"
     units="px"
     inkscape:window-width="1920"
     inkscape:window-height="1017"
     inkscape:window-x="1912"
     inkscape:window-y="-8"
     inkscape:window-maximized="1" />
  <metadata
     id="metadata6203">
    <rdf:RDF>
      <cc:Work
         rdf:about="">
        <dc:format>image/svg+xml</dc:format>
        <dc:type
           rdf:resource="http://purl.org/dc/dcmitype/StillImage" />
        <dc:title />
      </cc:Work>
    </rdf:RDF>
  </metadata>
  <path
     style="fill:#babdb6;stroke:#000000;stroke-width:1px;stroke-linecap:butt;stroke-linejoin:miter;stroke-opacity:1"
     d="m 305.1292,272.40444 6.25032,1.70464 3.59867,-6.88167 -4.54569,-6.06091 -8.52316,3.6618 0.44194,5.99778"
     id="lvl65-col31-2"
     inkscape:connector-curvature="0"
     inkscape:label="lvl65-col31-2" />
  <path
     style="fill:#babdb6;stroke:#000000;stroke-width:1px;stroke-linecap:butt;stroke-linejoin:miter;stroke-opacity:1"
     d="m 206.60714,262.71429 3.39286,3.48214 -2.76786,7.5 -7.94643,0.53571 -1.69642,-8.48214"
     id="lvl65-col31"
     inkscape:connector-curvature="0"
     inkscape:label="lvl65-col31" />
  <path
     style="display:inline;fill:#000000"
     d="m 198.22896,276.33071 c -0.69907,-0.28127 -1.91695,-1.76045 -2.70639,-3.28706 C 192.8095,267.79715 197.59807,259 203.16698,259 c 3.1885,0 8.60899,2.71288 9.77549,4.89251 1.45421,2.71721 -0.68761,7.97526 -4.45615,10.93959 -2.58205,2.03104 -7.24193,2.71185 -10.25736,1.49861 z m 7.83678,-5.36589 c 2.99695,-1.60392 2.53236,-5.7766 -0.73446,-6.59652 -3.51214,-0.88149 -6.86952,2.75748 -5.28158,5.72456 1.14029,2.13066 3.12629,2.41851 6.01604,0.87196 z m 97.44794,3.86728 c -3.76854,-2.96433 -5.91036,-8.22238 -4.45615,-10.93959 1.1665,-2.17963 6.58699,-4.89251 9.77549,-4.89251 3.02749,0 7.01337,3.78412 8.08893,7.67948 2.33361,8.45165 -6.33072,13.71982 -13.40827,8.15262 z m 8.43662,-4.73924 c 0.77598,-1.44993 0.58513,-2.44501 -0.7961,-4.15075 -2.48308,-3.06648 -7.1542,-2.06931 -7.1542,1.52725 0,4.17847 6.0497,6.1748 7.9503,2.6235 z"
     id="lvl69"
     inkscape:connector-curvature="0"
     inkscape:label="lvl69" />
</svg>
