<?xml version="1.0" encoding="UTF-8" standalone="no"?>
<!-- Created with Inkscape (http://www.inkscape.org/) -->

<svg
   xmlns:dc="http://purl.org/dc/elements/1.1/"
   xmlns:cc="http://creativecommons.org/ns#"
   xmlns:rdf="http://www.w3.org/1999/02/22-rdf-syntax-ns#"
   xmlns:svg="http://www.w3.org/2000/svg"
   xmlns="http://www.w3.org/2000/svg"
   xmlns:sodipodi="http://sodipodi.sourceforge.net/DTD/sodipodi-0.dtd"
   xmlns:inkscape="http://www.inkscape.org/namespaces/inkscape"
   width="512"
   height="512"
   viewBox="0 0 512 512"
   version="1.1"
   id="svg6206"
   inkscape:version="0.92.1 r15371"
   sodipodi:docname="07.svg">
  <defs
     id="defs6200" />
  <sodipodi:namedview
     id="base"
     pagecolor="#ffffff"
     bordercolor="#666666"
     borderopacity="1.0"
     inkscape:pageopacity="0.0"
     inkscape:pageshadow="2"
     inkscape:zoom="3.959798"
     inkscape:cx="206.87161"
     inkscape:cy="255.58304"
     inkscape:document-units="px"
     inkscape:current-layer="svg6206"
     showgrid="false"
     units="px"
     inkscape:window-width="1920"
     inkscape:window-height="1017"
     inkscape:window-x="1912"
     inkscape:window-y="-8"
     inkscape:window-maximized="1" />
  <metadata
     id="metadata6203">
    <rdf:RDF>
      <cc:Work
         rdf:about="">
        <dc:format>image/svg+xml</dc:format>
        <dc:type
           rdf:resource="http://purl.org/dc/dcmitype/StillImage" />
        <dc:title />
      </cc:Work>
    </rdf:RDF>
  </metadata>
  <path
     style="fill:#ffffff;fill-opacity:1;stroke:none;stroke-width:0.26458332px;stroke-linecap:butt;stroke-linejoin:miter;stroke-opacity:1"
     d="m 184.01618,278.93838 15.90175,0.66387 13.74121,0.0804 11.7701,-1.4434 3.74412,-4.20169 -0.69664,-6.16596 -4.21116,-4.04422 -9.91468,-0.21117 -12.0909,-0.0804 -19.0493,-0.70868 -7.47059,0.80619 -1.28828,4.4847 2.44997,9.44288 z"
     id="lvl65-col30"
     inkscape:connector-curvature="0"
     sodipodi:nodetypes="cccccccccccccc" />
  <path
     style="fill:#ffffff;fill-opacity:1;stroke:none;stroke-width:0.26458332px;stroke-linecap:butt;stroke-linejoin:miter;stroke-opacity:1"
     d="m 289.96284,279.04508 19.47857,0.34403 12.9077,0.33993 11.04117,-1.60466 3.08518,-3.77547 1.22952,-7.1028 -4.47261,-3.91226 -32.00884,-0.17448 -16.67577,0.94367 -1.9884,7.69908 2.25389,5.32118 z"
     id="lvl65-col30-2"
     inkscape:connector-curvature="0"
     sodipodi:nodetypes="cccccccccccc" />
  <path
     style="fill:#888a85;stroke:#000000;stroke-width:1px;stroke-linecap:butt;stroke-linejoin:miter;stroke-opacity:1"
     d="m 200.80357,270.52679 -1.51786,-2.27679 1.25,-3.79464 7.63393,0.71428 -0.80357,5.22322"
     id="lvl65-col31"
     inkscape:connector-curvature="0"
     inkscape:label="lvl65-col31" />
  <path
     style="fill:#888a85;stroke:#000000;stroke-width:1px;stroke-linecap:butt;stroke-linejoin:miter;stroke-opacity:1"
     d="m 304.55357,269.67857 4.10714,1.74107 4.6875,-2.58928 -2.00892,-4.50893 -7.58929,0.80357"
     id="lvl65-col31-2"
     inkscape:connector-curvature="0"
     inkscape:label="lvl65-col31-2" />
  <path
     style="display:inline;fill:#000000"
     d="m 182.20323,286.86689 c -6.28434,-1.02497 -10.75382,-3.15864 -12.17359,-5.8115 -1.45853,-2.72529 -1.27604,-8.86264 0.43482,-14.62389 l 1.46446,-4.9315 27.28554,0.25877 c 15.00705,0.14233 27.79848,0.25483 28.42541,0.25 1.57582,-0.0121 5.36013,8.34171 5.36013,11.83245 0,4.14691 -3.86422,9.32917 -8.82762,11.83863 -3.92073,1.98229 -5.77796,2.17402 -20.49193,2.1154 -8.89925,-0.0355 -18.564,-0.45322 -21.47722,-0.92836 z m 41.7178,-4.13163 c 1.33157,-0.67939 2.62113,-1.84146 2.8657,-2.58237 0.36582,-1.10821 0.0288,-1.12451 -1.90063,-0.0919 -1.69916,0.90936 -8.09039,1.20696 -23.19809,1.08018 -23.35245,-0.19596 -26.28145,-0.85833 -27.34662,-6.1842 C 173.5723,271.11151 172,271.14043 172,275 c 0,3.52663 2.82216,6.70026 6.72456,7.56203 1.52649,0.3371 3.22544,0.76302 3.77544,0.94649 0.55,0.18347 9.55,0.36248 20,0.39779 13.22065,0.0447 19.73642,-0.31153 21.42103,-1.17105 z m 1.75144,-7.30201 c 1.73186,-2.36846 1.7039,-7.876 -0.0474,-9.32942 -0.92463,-0.76737 -3.72465,-0.92266 -8.55009,-0.47418 -5.79673,0.53874 -7.0649,0.95434 -6.60101,2.16322 C 211.48439,270.42588 208.05906,273 203.54501,273 198.9214,273 197,271.66014 197,268.43592 c 0,-1.81643 -0.74532,-2.26623 -4.63957,-2.8 -8.3916,-1.15019 -14.08928,-0.78491 -14.75344,0.94587 -1.12974,2.94405 -0.61549,7.16624 1.04085,8.54577 1.97911,1.64835 17.81896,2.74718 34.27463,2.37768 9.69637,-0.21772 11.62307,-0.53083 12.75,-2.07199 z m -19.80359,-6.77526 C 207.26912,266.9708 206.34305,266 203.33333,266 201.66667,266 201,266.57143 201,268 c 0,2.32505 3.13386,2.74856 4.86888,0.65799 z m 82.13919,17.12288 C 282.88003,283.177 279,278.03426 279,273.84122 c 0,-3.49074 3.78431,-11.84458 5.36013,-11.83245 0.62693,0.005 13.41836,-0.10767 28.42541,-0.25 l 27.28554,-0.25877 1.46446,4.9315 c 2.2456,7.56196 1.92649,13.19738 -0.90781,16.03168 -3.80711,3.80711 -8.94442,4.71934 -29.12773,5.17223 -18.23844,0.40924 -19.18005,0.33491 -23.49193,-1.85454 z m 47.62075,-4.00159 C 338.98686,279.94904 340,278.24291 340,274.41821 c 0,-3.39365 -1.62992,-3.01863 -2.34139,0.53873 -1.06517,5.32587 -3.99417,5.98824 -27.34662,6.1842 -15.1077,0.12678 -21.49893,-0.17082 -23.19809,-1.08018 -1.92939,-1.03258 -2.26645,-1.01628 -1.90063,0.0919 1.11998,3.39293 4.90803,3.91467 26.28673,3.62058 17.52314,-0.24105 21.51802,-0.57122 24.12882,-1.99419 z M 332.75,275.37946 c 2.24753,-1.424 2.97591,-5.32419 1.64301,-8.79767 -0.66416,-1.73078 -6.36184,-2.09606 -14.75344,-0.94587 -3.89425,0.53377 -4.63957,0.98357 -4.63957,2.8 0,3.22422 -1.9214,4.56408 -6.54501,4.56408 -4.51405,0 -7.93938,-2.57412 -6.929,-5.20713 0.46389,-1.20888 -0.80428,-1.62448 -6.60101,-2.16322 -8.26543,-0.7682 -9.92498,0.0347 -9.92498,4.80167 0,4.12059 1.75986,6.33033 5.5,6.90598 1.65,0.25395 11.325,0.23808 21.5,-0.0353 13.59431,-0.36522 19.09664,-0.87503 20.75,-1.92257 z M 311,268 c 0,-1.42857 -0.66667,-2 -2.33333,-2 -3.00972,0 -3.93579,0.9708 -2.53555,2.65799 C 307.86614,270.74856 311,270.32505 311,268 Z"
     id="lvl69"
     inkscape:connector-curvature="0"
     inkscape:label="lvl69" />
  <path
     style="opacity:0.2;fill:#000000;stroke:#000000;stroke-width:1px;stroke-linecap:butt;stroke-linejoin:miter;stroke-opacity:1"
     d="m 338.48214,269.85714 2.23215,0.80357 0.80357,7.05358 -4.82143,6.07142 -13.57143,2.5 h -27.41071 l -9.10715,-2.32142 -3.57143,-4.55358 0.44643,-3.66071 6.4807,3.29508 22.2693,0.63349 21.15814,-1.55419 3.48472,-6.66009"
     id="lvl69-1"
     inkscape:connector-curvature="0"
     inkscape:label="lvl69-1" />
  <path
     style="opacity:0.2;fill:#000000;stroke:#000000;stroke-width:1px;stroke-linecap:butt;stroke-linejoin:miter;stroke-opacity:1"
     d="m 219.82143,285.92857 6.33928,-2.5 2.41072,-3.03571 -1.07143,-3.57143 -6.16071,2.23214 -41.42858,-0.71428 -4.28571,-3.39286 -1.51786,-4.64286 -3.57143,0.625 0.44643,9.375 7.67857,4.73214 10.71429,1.07143"
     id="lvl69-2"
     inkscape:connector-curvature="0"
     inkscape:label="lvl69-2" />
</svg>
