<?xml version="1.0" encoding="UTF-8" standalone="no"?>
<!-- Created with Inkscape (http://www.inkscape.org/) -->

<svg
   xmlns:dc="http://purl.org/dc/elements/1.1/"
   xmlns:cc="http://creativecommons.org/ns#"
   xmlns:rdf="http://www.w3.org/1999/02/22-rdf-syntax-ns#"
   xmlns:svg="http://www.w3.org/2000/svg"
   xmlns="http://www.w3.org/2000/svg"
   xmlns:sodipodi="http://sodipodi.sourceforge.net/DTD/sodipodi-0.dtd"
   xmlns:inkscape="http://www.inkscape.org/namespaces/inkscape"
   width="512"
   height="512"
   viewBox="0 0 512 512"
   version="1.1"
   id="svg6206"
   inkscape:version="0.92.1 r15371"
   sodipodi:docname="08.svg">
  <defs
     id="defs6200" />
  <sodipodi:namedview
     id="base"
     pagecolor="#ffffff"
     bordercolor="#666666"
     borderopacity="1.0"
     inkscape:pageopacity="0.0"
     inkscape:pageshadow="2"
     inkscape:zoom="2.8"
     inkscape:cx="135.30657"
     inkscape:cy="283.49739"
     inkscape:document-units="px"
     inkscape:current-layer="svg6206"
     showgrid="false"
     units="px"
     inkscape:window-width="1920"
     inkscape:window-height="1017"
     inkscape:window-x="1912"
     inkscape:window-y="-8"
     inkscape:window-maximized="1" />
  <metadata
     id="metadata6203">
    <rdf:RDF>
      <cc:Work
         rdf:about="">
        <dc:format>image/svg+xml</dc:format>
        <dc:type
           rdf:resource="http://purl.org/dc/dcmitype/StillImage" />
        <dc:title></dc:title>
      </cc:Work>
    </rdf:RDF>
  </metadata>
  <path
     style="fill:#ffffff;fill-opacity:1;stroke:none;stroke-width:0.26458332px;stroke-linecap:butt;stroke-linejoin:miter;stroke-opacity:1"
     d="m 193.65904,279.38481 13.49103,-0.67541 11.06264,-0.63388 7.49248,-1.16225 3.19923,-4.22813 -0.78485,-6.24211 -4.92544,-3.32993 -12.95039,-0.0326 -18.51948,0.18745 -10.83501,0.54132 -2.55987,4.55619 0.85457,6.00256 3.25354,3.7286 z"
     id="lvl65-col30"
     inkscape:connector-curvature="0"
     sodipodi:nodetypes="cccccccccccccc" />
  <path
     style="fill:#ffffff;fill-opacity:1;stroke:none;stroke-width:0.26458332px;stroke-linecap:butt;stroke-linejoin:miter;stroke-opacity:1"
     d="m 285.60053,276.85563 21.08463,2.05052 17.54946,-0.04 8.00437,-2.48438 1.99472,-4.84672 -1.28734,-6.51305 -10.30202,-2.24475 -15.22684,0.0702 -14.51913,0.48129 -8.38371,1.48171 -1.99484,6.07815 z"
     id="lvl65-col30-2"
     inkscape:connector-curvature="0"
     sodipodi:nodetypes="cccccccccccc" />
  <path
     style="fill:#000000"
     d="m 185.72954,280.13973 c -6.85963,-1.05862 -9.15811,-3.72337 -9.15811,-10.61751 0,-3.0825 0.55256,-6.04621 1.25899,-6.75264 0.92629,-0.92629 7.70705,-1.33574 25.66028,-1.54944 27.44442,-0.32668 25.6052,-0.84402 26.88939,7.56348 1.40535,9.20068 -2.2492,10.96897 -24.01251,11.61864 -8.72717,0.26053 -18.01429,0.14239 -20.63804,-0.26253 z m 39.61851,-5.01217 c 1.87153,-1.55488 2.1549,-5.31927 0.61677,-8.1933 C 225.06751,265.25763 223.81103,265 216.53124,265 h -8.3984 l -0.31642,2.75 c -0.24691,2.14588 -0.90967,2.81846 -3.01697,3.06165 C 201.22002,271.22473 198,269.40298 198,266.96482 198,265.1678 197.28324,265 189.60699,265 c -6.73084,0 -8.51322,0.31326 -9,1.58179 -1.17425,3.06005 -0.58545,6.43975 1.48213,8.50733 2.00272,2.00272 2.90621,2.07509 21.84805,1.75 14.87657,-0.25533 20.16712,-0.67825 21.41088,-1.71156 z M 295,280.04464 c -11.58389,-1.00939 -14.56299,-3.51667 -13.38009,-11.26102 1.28419,-8.4075 -0.55503,-7.89016 26.88939,-7.56348 17.95323,0.2137 24.73399,0.62315 25.66028,1.54944 0.70643,0.70643 1.25899,3.67014 1.25899,6.75264 0,7.0821 -2.22282,9.52386 -9.62931,10.57774 -6.24609,0.88876 -20.25354,0.8636 -30.79926,-0.0553 z M 330,275 c 1.98869,-1.98869 2.55259,-5.39641 1.39301,-8.41821 -0.48678,-1.26853 -2.26916,-1.58179 -9,-1.58179 -7.67625,0 -8.39301,0.1678 -8.39301,1.96482 0,2.43816 -3.22002,4.25991 -6.79945,3.84683 -2.1073,-0.24319 -2.77006,-0.91577 -3.01697,-3.06165 L 303.86716,265 h -8.3984 C 286.36355,265 285,265.82211 285,271.31181 c 0,4.98169 1.77464,5.3719 25.25,5.55201 16.51692,0.12672 17.88894,-0.003 19.75,-1.86382 z"
     id="lvl69"
     inkscape:connector-curvature="0"
     inkscape:label="lvl69" />
</svg>
