<?xml version="1.0" encoding="UTF-8" standalone="no"?>
<!-- Created with Inkscape (http://www.inkscape.org/) -->

<svg
   xmlns:dc="http://purl.org/dc/elements/1.1/"
   xmlns:cc="http://creativecommons.org/ns#"
   xmlns:rdf="http://www.w3.org/1999/02/22-rdf-syntax-ns#"
   xmlns:svg="http://www.w3.org/2000/svg"
   xmlns="http://www.w3.org/2000/svg"
   xmlns:sodipodi="http://sodipodi.sourceforge.net/DTD/sodipodi-0.dtd"
   xmlns:inkscape="http://www.inkscape.org/namespaces/inkscape"
   width="512"
   height="512"
   viewBox="0 0 512 512"
   version="1.1"
   id="svg6206"
   inkscape:version="0.92.1 r15371"
   sodipodi:docname="10.svg">
  <defs
     id="defs6200" />
  <sodipodi:namedview
     id="base"
     pagecolor="#ffffff"
     bordercolor="#666666"
     borderopacity="1.0"
     inkscape:pageopacity="0.0"
     inkscape:pageshadow="2"
     inkscape:zoom="7.9195959"
     inkscape:cx="208.11119"
     inkscape:cy="237.88322"
     inkscape:document-units="px"
     inkscape:current-layer="svg6206"
     showgrid="false"
     units="px"
     inkscape:window-width="1920"
     inkscape:window-height="1017"
     inkscape:window-x="1912"
     inkscape:window-y="-8"
     inkscape:window-maximized="1" />
  <metadata
     id="metadata6203">
    <rdf:RDF>
      <cc:Work
         rdf:about="">
        <dc:format>image/svg+xml</dc:format>
        <dc:type
           rdf:resource="http://purl.org/dc/dcmitype/StillImage" />
        <dc:title></dc:title>
      </cc:Work>
    </rdf:RDF>
  </metadata>
  <path
     style="fill:#ffffff;fill-opacity:1;stroke:none;stroke-width:0.26458332px;stroke-linecap:butt;stroke-linejoin:miter;stroke-opacity:1"
     d="m 162.0083,273.77529 79.92674,0.65469 -5.79349,-15.15269 -68.17041,-1.13681 z"
     id="lvl65-col30"
     inkscape:connector-curvature="0"
     sodipodi:nodetypes="ccccc" />
  <path
     style="fill:#ffffff;fill-opacity:1;stroke:none;stroke-width:0.26458332px;stroke-linecap:butt;stroke-linejoin:miter;stroke-opacity:1"
     d="m 272.59251,275.24434 77.14847,-0.79757 -8.47446,-17.32987 -65.15654,2.84696 z"
     id="lvl65-col30-2"
     inkscape:connector-curvature="0"
     sodipodi:nodetypes="ccccc" />
  <path
     style="display:inline;fill:#000000"
     d="m 194.66823,279.02023 c -32.01018,-0.49222 -33.90813,-0.62475 -35.25,-2.46136 -3.86579,-5.29111 1.59664,-17.17555 9.8345,-21.39657 4.17569,-2.1396 6.42182,-2.48968 18.5,-2.8834 7.561,-0.24647 20.98147,-0.0345 29.82328,0.47101 17.56788,1.00442 21.99978,2.294 25.81275,7.51086 2.5241,3.45346 3.45718,14.39159 1.43906,16.86973 -1.81916,2.23384 -9.34435,2.51734 -50.15959,1.88973 z M 234.08179,272 c 2.46603,0 2.91821,-0.39756 2.91821,-2.56574 0,-1.41116 -0.4328,-3.37444 -0.96178,-4.36285 -2.06054,-3.85015 -6.11262,-4.38547 -33.91331,-4.48033 -23.9104,-0.0816 -26.97524,0.0928 -29.3953,1.67285 -3.42731,2.23763 -6.32044,6.56632 -5.12826,7.67288 0.49426,0.45877 7.49813,1.14645 15.56416,1.52818 l 14.66551,0.69406 -0.5337,-3.97903 c -0.46923,-3.49835 -0.21194,-4.18986 2.12981,-5.72423 2.28206,-1.49527 3.2285,-1.57593 6.60849,-0.56326 4.18893,1.25503 5.75553,4.03942 4.49943,7.99704 -0.61296,1.93127 -0.17594,2.05015 8.6597,2.35555 5.11789,0.17689 9.90455,0.19411 10.63704,0.0383 0.73248,-0.15585 2.64498,-0.28337 4.25,-0.28337 z m 40.67682,7.20035 c -7.04657,-0.36776 -8.1653,-1.90114 -7.5539,-10.35371 0.50153,-6.93355 2.73404,-10.50772 8.28381,-13.26212 4.77677,-2.37075 29.02351,-3.98154 49.75875,-3.30562 12.07818,0.39372 14.32431,0.7438 18.5,2.8834 8.2379,4.22105 13.70034,16.10556 9.83443,21.39657 -1.2739,1.74351 -2.87739,1.96583 -15.75,2.18371 -33.06924,0.55973 -57.69499,0.73846 -63.07309,0.45777 z M 294.64918,272 c 8.12904,0 8.45796,-0.0871 7.82791,-2.07217 -1.26795,-3.99497 0.28531,-6.77636 4.48729,-8.0353 3.37999,-1.01267 4.32643,-0.93201 6.60849,0.56326 2.34175,1.53437 2.59904,2.22588 2.12981,5.72423 l -0.5337,3.97903 14.66551,-0.69406 c 8.06603,-0.38173 15.0699,-1.06941 15.56416,-1.52818 1.19218,-1.10656 -1.70095,-5.43525 -5.12826,-7.67288 -2.42006,-1.58002 -5.4849,-1.75443 -29.3953,-1.67285 -27.80069,0.0949 -31.85277,0.63018 -33.91331,4.48033 -0.52898,0.98841 -0.96178,2.92453 -0.96178,4.30248 0,2.15984 0.5172,2.5586 3.75,2.89125 2.0625,0.21223 4.3493,0.23939 5.08179,0.0604 C 285.56427,272.14648 289.9821,272 294.64918,272 Z"
     id="lvl69"
     inkscape:connector-curvature="0"
     inkscape:label="lvl69" />
</svg>
