<?xml version="1.0" encoding="UTF-8" standalone="no"?>
<!-- Created with Inkscape (http://www.inkscape.org/) -->

<svg
   xmlns:dc="http://purl.org/dc/elements/1.1/"
   xmlns:cc="http://creativecommons.org/ns#"
   xmlns:rdf="http://www.w3.org/1999/02/22-rdf-syntax-ns#"
   xmlns:svg="http://www.w3.org/2000/svg"
   xmlns="http://www.w3.org/2000/svg"
   xmlns:sodipodi="http://sodipodi.sourceforge.net/DTD/sodipodi-0.dtd"
   xmlns:inkscape="http://www.inkscape.org/namespaces/inkscape"
   width="512"
   height="512"
   viewBox="0 0 512 512"
   version="1.1"
   id="svg6206"
   inkscape:version="0.92.1 r15371"
   sodipodi:docname="12.svg">
  <defs
     id="defs6200" />
  <sodipodi:namedview
     id="base"
     pagecolor="#ffffff"
     bordercolor="#666666"
     borderopacity="1.0"
     inkscape:pageopacity="0.0"
     inkscape:pageshadow="2"
     inkscape:zoom="1.979899"
     inkscape:cx="331.21982"
     inkscape:cy="181.74011"
     inkscape:document-units="px"
     inkscape:current-layer="svg6206"
     showgrid="false"
     units="px"
     inkscape:window-width="1920"
     inkscape:window-height="1017"
     inkscape:window-x="1912"
     inkscape:window-y="-8"
     inkscape:window-maximized="1" />
  <metadata
     id="metadata6203">
    <rdf:RDF>
      <cc:Work
         rdf:about="">
        <dc:format>image/svg+xml</dc:format>
        <dc:type
           rdf:resource="http://purl.org/dc/dcmitype/StillImage" />
        <dc:title></dc:title>
      </cc:Work>
    </rdf:RDF>
  </metadata>
  <path
     style="fill:#000000"
     d="M 218.97525,290.4349 C 218.43886,289.0241 218,287.51886 218,287.08994 218,285.01038 209.26917,273.21313 202.44042,266.06555 191.79074,254.91866 178.49992,246.53118 162,240.54468 c -6.76705,-2.45521 -8.5,-3.48771 -8.5,-5.06432 0,-3.31297 4.53946,-2.90925 17.71462,1.57548 20.83788,7.09306 46.09647,21.46299 56.29523,32.02707 6.81352,7.05758 7.52852,9.00842 5.05489,13.7919 C 230.75764,286.36935 223.49362,293 221.47237,293 c -0.83703,0 -1.96073,-1.15429 -2.49712,-2.5651 z m 66.02929,-1.04977 C 280.46431,285.28331 278,281.2611 278,277.95243 c 0,-3.80145 12.00426,-15.01095 23.24015,-21.7015 17.00144,-10.12372 26.64006,-14.80227 39.54523,-19.19509 13.17516,-4.48473 17.71462,-4.88845 17.71462,-1.57548 0,1.57661 -1.73295,2.60911 -8.5,5.06432 -4.675,1.69619 -10.525,4.12918 -13,5.40666 -19.42517,10.02639 -37.70397,27.8395 -43.05309,41.95625 -0.95708,2.52582 -2.4305,4.7319 -3.27426,4.90239 -0.84375,0.17049 -3.39441,-1.37069 -5.66811,-3.42485 z"
     id="lvl69"
     inkscape:connector-curvature="0"
     inkscape:label="lvl69" />
</svg>
