<?xml version="1.0" encoding="UTF-8" standalone="no"?>
<!-- Created with Inkscape (http://www.inkscape.org/) -->

<svg
   xmlns:dc="http://purl.org/dc/elements/1.1/"
   xmlns:cc="http://creativecommons.org/ns#"
   xmlns:rdf="http://www.w3.org/1999/02/22-rdf-syntax-ns#"
   xmlns:svg="http://www.w3.org/2000/svg"
   xmlns="http://www.w3.org/2000/svg"
   xmlns:sodipodi="http://sodipodi.sourceforge.net/DTD/sodipodi-0.dtd"
   xmlns:inkscape="http://www.inkscape.org/namespaces/inkscape"
   width="512"
   height="512"
   viewBox="0 0 512 512"
   version="1.1"
   id="svg6206"
   inkscape:version="0.92.1 r15371"
   sodipodi:docname="13.svg">
  <defs
     id="defs6200" />
  <sodipodi:namedview
     id="base"
     pagecolor="#ffffff"
     bordercolor="#666666"
     borderopacity="1.0"
     inkscape:pageopacity="0.0"
     inkscape:pageshadow="2"
     inkscape:zoom="2.8"
     inkscape:cx="211.17684"
     inkscape:cy="193.94106"
     inkscape:document-units="px"
     inkscape:current-layer="svg6206"
     showgrid="false"
     units="px"
     inkscape:window-width="1920"
     inkscape:window-height="1017"
     inkscape:window-x="1912"
     inkscape:window-y="-8"
     inkscape:window-maximized="1"
     inkscape:snap-global="false" />
  <metadata
     id="metadata6203">
    <rdf:RDF>
      <cc:Work
         rdf:about="">
        <dc:format>image/svg+xml</dc:format>
        <dc:type
           rdf:resource="http://purl.org/dc/dcmitype/StillImage" />
        <dc:title></dc:title>
      </cc:Work>
    </rdf:RDF>
  </metadata>
  <path
     style="fill:#000000"
     d="m 230.25546,277.75 c -1.15124,-1.2375 -4.84219,-5.85 -8.20211,-10.25 -6.80455,-8.91094 -21.77288,-24.5 -23.52443,-24.5 -0.62182,0 -6.44605,4.3875 -12.94274,9.75 -23.56837,19.45381 -27.12255,22.15342 -29.22919,22.2013 -5.10214,0.11595 -3.36975,-5.54517 3.25921,-10.65051 5.34954,-4.11997 22.80333,-17.86823 31.12393,-24.51614 3.98207,-3.18156 8.01573,-5.78465 8.9637,-5.78465 0.94796,0 3.7649,2.20356 6.25987,4.89681 C 227.19722,261.81779 237,273.27066 237,275.15741 237,277.00985 234.92477,280 233.63913,280 c -0.70978,0 -2.23243,-1.0125 -3.38367,-2.25 z m 44.77972,0.31574 C 274.46583,277.0019 274,275.69315 274,275.15741 c 0,-1.88675 9.80278,-13.33962 31.0363,-36.2606 2.49497,-2.69325 5.31191,-4.89681 6.25987,-4.89681 0.94797,0 4.98163,2.60309 8.9637,5.78465 8.3206,6.64791 25.77439,20.39617 31.12393,24.51614 6.62896,5.10534 8.36135,10.76646 3.25921,10.65051 -2.10664,-0.0479 -5.66082,-2.74749 -29.22919,-22.2013 -6.49669,-5.3625 -12.32092,-9.75 -12.94274,-9.75 -1.75155,0 -16.71988,15.58906 -23.52443,24.5 -10.12019,13.25294 -11.79326,14.52364 -13.91147,10.56574 z"
     id="lvl69"
     inkscape:connector-curvature="0"
     inkscape:label="lvl69" />
</svg>
