<?xml version="1.0" encoding="UTF-8" standalone="no"?>
<!-- Created with Inkscape (http://www.inkscape.org/) -->

<svg
   xmlns:dc="http://purl.org/dc/elements/1.1/"
   xmlns:cc="http://creativecommons.org/ns#"
   xmlns:rdf="http://www.w3.org/1999/02/22-rdf-syntax-ns#"
   xmlns:svg="http://www.w3.org/2000/svg"
   xmlns="http://www.w3.org/2000/svg"
   xmlns:sodipodi="http://sodipodi.sourceforge.net/DTD/sodipodi-0.dtd"
   xmlns:inkscape="http://www.inkscape.org/namespaces/inkscape"
   width="512"
   height="512"
   viewBox="0 0 512 512"
   version="1.1"
   id="svg6206"
   inkscape:version="0.92.1 r15371"
   sodipodi:docname="13.svg">
  <defs
     id="defs6200" />
  <sodipodi:namedview
     id="base"
     pagecolor="#ffffff"
     bordercolor="#666666"
     borderopacity="1.0"
     inkscape:pageopacity="0.0"
     inkscape:pageshadow="2"
     inkscape:zoom="3.959798"
     inkscape:cx="254.8011"
     inkscape:cy="227.30245"
     inkscape:document-units="px"
     inkscape:current-layer="svg6206"
     showgrid="false"
     units="px"
     inkscape:window-width="1920"
     inkscape:window-height="1017"
     inkscape:window-x="1912"
     inkscape:window-y="-8"
     inkscape:window-maximized="1"
     inkscape:snap-global="false" />
  <metadata
     id="metadata6203">
    <rdf:RDF>
      <cc:Work
         rdf:about="">
        <dc:format>image/svg+xml</dc:format>
        <dc:type
           rdf:resource="http://purl.org/dc/dcmitype/StillImage" />
        <dc:title></dc:title>
      </cc:Work>
    </rdf:RDF>
  </metadata>
  <path
     style="display:inline;fill:#fbffff;fill-opacity:1;stroke:#000000;stroke-width:1px;stroke-linecap:butt;stroke-linejoin:miter;stroke-opacity:1"
     d="m 162.85714,289.5 16.42857,-9.82143 28.57143,-3.57143 26.07143,12.32143 -8.21428,-29.28571 -28.39286,-8.39286 -31.60714,22.32143 -7.14286,12.14286"
     id="lvl65-col30"
     inkscape:connector-curvature="0"
     inkscape:label="lvl65-col30" />
  <path
     style="display:none;fill:none;stroke:#000000;stroke-width:1px;stroke-linecap:butt;stroke-linejoin:miter;stroke-opacity:1"
     d="m 281.58002,285.97837 33.58757,-9.84899 40.15357,11.61675 -15.9099,-25.75888 -30.80966,-11.8693 -19.69797,11.11168 z"
     id="lvl65-col30-2"
     inkscape:connector-curvature="0"
     inkscape:label="lvl65-col30-2" />
  <path
     style="fill:#000000"
     d="m 158.17431,290.68555 c -2.41324,-2.56878 -2.6966,-5.77739 -0.87921,-9.95566 1.86031,-4.27691 11.85208,-16.30484 15.2049,-18.3034 1.65,-0.98354 5.025,-3.45176 7.5,-5.48494 2.475,-2.03318 7.589,-4.91169 11.36446,-6.39669 10.71938,-4.21627 22.25597,-2.79504 32.53644,4.00826 3.09213,2.04627 4.78098,4.53507 8.64841,12.74486 4.13321,8.77398 4.81606,11.10759 4.87831,16.67148 0.069,6.16853 -0.0616,6.53448 -2.80797,7.86704 -4.07237,1.97596 -8.81408,0.19722 -15.64614,-5.86926 -4.74326,-4.21175 -6.34071,-5.00607 -11.97351,-5.95369 -10.09098,-1.69763 -24.98628,0.96977 -33,5.90954 -1.375,0.84757 -3.69304,2.78661 -5.15121,4.30897 -3.33735,3.48428 -7.65488,3.66771 -10.67448,0.45349 z M 172.5,279.983 c 2.75,-1.65664 6.125,-3.24673 7.5,-3.53352 1.375,-0.28679 4.78133,-1.17766 7.56962,-1.9797 3.49522,-1.00539 8.30887,-1.33883 15.5,-1.07368 11.79165,0.43478 12.88733,0.7339 18.38829,5.02004 2.17686,1.69612 4.98936,3.61967 6.25,4.27456 1.98598,1.03168 2.29209,0.94765 2.29209,-0.62916 0,-2.95783 -7.01837,-18.24808 -9.44389,-20.57451 -0.58086,-0.55713 -2.19708,-1.74175 -3.59159,-2.63249 l -2.53548,-1.61953 0.57031,2.59659 c 0.61159,2.78452 0.11943,4.21026 -2.07653,5.2108 -2.18987,0.99777 -3.63404,0.85362 -5.32055,-0.67265 -2.11386,-1.91303 -2.29215,-5.82534 -0.60227,-6.86975 2.432,-1.50306 0.56756,-2.5 -4.67541,-2.5 -11.0865,0 -26.72761,10.4712 -36.11856,24.18018 -3.82027,5.57685 -4.20887,7.78778 -0.95603,5.43934 1.2375,-0.89344 4.5,-2.97987 7.25,-4.63652 z M 280,291.68846 c -2.28943,-1.17408 -2.4939,-1.8256 -2.42762,-7.73526 0.0622,-5.54433 0.74925,-7.89006 4.87831,-16.65522 3.86743,-8.20979 5.55628,-10.69859 8.64841,-12.74486 5.86166,-3.87906 11.72974,-5.81602 19.03644,-6.28362 5.49731,-0.3518 7.81305,0.0385 13.5,2.27536 3.77546,1.485 8.88946,4.36351 11.36446,6.39669 2.475,2.03318 5.85,4.5014 7.5,5.48494 3.35282,1.99856 13.34459,14.02649 15.2049,18.3034 1.86826,4.29522 1.52382,7.70661 -1.01935,10.0958 -3.21237,3.01786 -7.29555,2.78776 -10.53434,-0.59363 -1.45817,-1.52236 -3.77621,-3.4614 -5.15121,-4.30897 -8.01947,-4.94331 -22.91481,-7.60869 -33,-5.90503 -5.53926,0.93574 -7.23903,1.76117 -11.5,5.58457 -4.68169,4.20091 -10.28812,7.4164 -12.87212,7.38263 -0.62034,-0.008 -2.25288,-0.59167 -3.62788,-1.2968 z m 68.86579,-12.40391 C 339.40186,265.47037 323.79825,255 312.67541,255 c -5.24297,0 -7.23368,1.37575 -4.80168,2.87881 1.68988,1.04441 1.80428,4.2699 -0.30958,6.18293 -1.68651,1.52627 -2.9846,2.06772 -5.17447,1.06995 -2.19595,-1.00054 -3.94072,-2.5983 -2.71554,-5.17251 l 1.08622,-2.28223 -2.72488,1.17759 c -1.51894,0.65643 -3.01073,2.07536 -3.59159,2.63249 C 292.01837,263.81346 285,279.10371 285,282.06154 c 0,1.57681 0.30611,1.66084 2.29209,0.62916 1.26064,-0.65489 4.07314,-2.60135 6.25,-4.32549 5.26466,-4.16977 9.04637,-5.0578 20.95791,-4.92136 13.87723,0.15896 23.38127,2.87814 32.35217,9.25621 2.55563,1.81699 4.7917,2.86834 4.96903,2.33633 0.17734,-0.532 -1.1526,-3.12033 -2.95541,-5.75184 z"
     id="lvl69"
     inkscape:connector-curvature="0"
     inkscape:label="lvl69"
     sodipodi:nodetypes="sccsccsccssscscscsccssscscccssccccssccsccccscscccsccsscssscssccc" />
</svg>
