<?xml version="1.0" encoding="UTF-8" standalone="no"?>
<!-- Created with Inkscape (http://www.inkscape.org/) -->

<svg
   xmlns:dc="http://purl.org/dc/elements/1.1/"
   xmlns:cc="http://creativecommons.org/ns#"
   xmlns:rdf="http://www.w3.org/1999/02/22-rdf-syntax-ns#"
   xmlns:svg="http://www.w3.org/2000/svg"
   xmlns="http://www.w3.org/2000/svg"
   xmlns:xlink="http://www.w3.org/1999/xlink"
   xmlns:sodipodi="http://sodipodi.sourceforge.net/DTD/sodipodi-0.dtd"
   xmlns:inkscape="http://www.inkscape.org/namespaces/inkscape"
   width="512"
   height="512"
   viewBox="0 0 512 512"
   version="1.1"
   id="svg4511"
   inkscape:version="0.92.1 r15371"
   sodipodi:docname="01.svg">
  <defs
     id="defs4505">
    <linearGradient
       inkscape:collect="always"
       id="linearGradient4502">
      <stop
         style="stop-color:#000000;stop-opacity:0"
         offset="0"
         id="stop4498" />
      <stop
         style="stop-color:#000000;stop-opacity:0.07843138"
         offset="1"
         id="stop4500" />
    </linearGradient>
    <linearGradient
       inkscape:collect="always"
       xlink:href="#linearGradient4502"
       id="linearGradient4504"
       x1="256"
       y1="256"
       x2="425.17267"
       y2="256"
       gradientUnits="userSpaceOnUse" />
    <linearGradient
       inkscape:collect="always"
       xlink:href="#linearGradient4502"
       id="linearGradient4508"
       gradientUnits="userSpaceOnUse"
       x1="256"
       y1="256"
       x2="256"
       y2="455.50513" />
  </defs>
  <sodipodi:namedview
     id="base"
     pagecolor="#ffffff"
     bordercolor="#666666"
     borderopacity="1.0"
     inkscape:pageopacity="0.0"
     inkscape:pageshadow="2"
     inkscape:zoom="1.979899"
     inkscape:cx="305.20667"
     inkscape:cy="224.68243"
     inkscape:document-units="px"
     inkscape:current-layer="svg4511"
     showgrid="false"
     units="px"
     inkscape:window-width="1920"
     inkscape:window-height="1017"
     inkscape:window-x="1912"
     inkscape:window-y="-8"
     inkscape:window-maximized="1"
     showguides="true"
     inkscape:guide-bbox="true"
     inkscape:snap-global="true" />
  <metadata
     id="metadata4508">
    <rdf:RDF>
      <cc:Work
         rdf:about="">
        <dc:format>image/svg+xml</dc:format>
        <dc:type
           rdf:resource="http://purl.org/dc/dcmitype/StillImage" />
        <dc:title></dc:title>
      </cc:Work>
    </rdf:RDF>
  </metadata>
  <path
     style="display:inline;fill:#ffffff;stroke:none;stroke-width:0.26458329px;stroke-linecap:butt;stroke-linejoin:miter;stroke-opacity:1"
     d="m 117.58291,301.94119 -14.218,-3.05179 -12.714454,-6.96717 -5.015706,-16.75425 -0.729885,-23.67946 2.513694,-18.96445 8.618386,-11.45025 8.618385,-3.5782 19.39137,-0.35784 h 6.10468 l 5.02741,-21.11141 19.03225,-25.76305 16.15946,-18.96446 29.44618,-15.38629 32.67801,-8.22986 20.82778,-2.50474 32.31893,3.5782 28.36885,9.30334 21.18686,8.94551 13.28668,12.16586 13.64581,16.10194 12.20935,18.96445 7.54106,17.17536 0.71821,7.15644 15.80037,-2.50475 15.08218,3.5782 8.97747,8.22986 3.95012,10.7346 1.79549,23.25831 -2.87278,21.46924 -6.8623,10.5667 -12.72616,6.04007 -12.0123,1.99985 -49.9148,46.51665 -76.84727,16.45974 -88.33843,-11.09244 -45.96472,-41.14931 z"
     id="lvl25-col10"
     inkscape:connector-curvature="0"
     sodipodi:nodetypes="cccccccccccccccccccccccccccccccccccccc" />
  <path
     style="display:inline;fill:#d3d7cf;stroke:none;stroke-width:0.26458332px;stroke-linecap:butt;stroke-linejoin:miter;stroke-opacity:1"
     d="m 131.05273,226.59375 c -0.64724,0.45429 -0.73969,1.81916 -0.56054,3.50391 l -2.02735,12.64453 -5.16992,2.17187 -0.71289,6.51367 -1.42578,7.96094 2.13867,7.41797 -7.84375,17.00781 4.2793,7.41993 -1.7832,11.0371 -5.34766,16.28321 5.88281,4.70508 -8.02148,27.32226 1.60351,5.06641 11.58594,-4.16211 -3.56445,25.15039 8.3789,3.80078 3.0293,21.89258 11.58789,-4.16211 3.56445,13.20898 12.97192,10.76422 6.95611,-8.80698 8.94893,14.32792 11.94336,2.5332 2.20673,9.29458 14.72881,13.32261 4.63477,-12.12305 11.34804,11.02452 13.19815,8.26885 2.01436,-9.70352 4.8125,-1.08594 19.67548,16.18224 10.62725,-16.90685 4.81445,3.80078 1.58511,8.28443 9.28794,-1.9524 14.08203,-17.55078 4.27735,5.60938 1.24804,7.23828 15.86524,-13.02735 1.07031,-9.77148 9.26953,-0.36133 12.65625,-15.74219 4.45508,3.4375 1.07031,6.33399 12.83399,-11.58008 6.8683,-16.34849 10.69141,5.96651 -0.80385,-10.24693 2.49609,-14.83593 8.73883,1.0226 -1.2525,-8.07924 -5.16797,-17.00782 4.09961,-2.35351 9.625,4.16211 -0.17774,-13.02735 -7.30859,-20.26562 6.41797,-2.71289 -1.7832,-9.22852 -5.70313,-11.21875 4.99023,-14.47461 -8.19921,-20.80859 3.02929,-8.32227 -3.56445,-8.5039 -5.13867,-9.6875 c 0.537,-1.03688 1.07031,-2.07618 1.07031,-2.07618 l 0.66016,-7.70117 -4.01953,2.84766 -2.75391,3.52344 c -2.47286,3.16369 -3.12614,5.11898 -4.10156,13.18945 -0.63152,5.225 -1.53384,10.4 -2.00391,11.5 -1.69244,3.96036 -2.98893,10.50068 -3.31055,16.69141 -0.21699,4.17694 -1.03432,7.46241 -2.41797,9.72461 -1.14921,1.87892 -2.3774,5.12707 -2.73046,7.21679 C 360.72771,296.57683 354.76181,303 351.38672,303 c -1.53218,0 -2.37202,0.80627 -2.85742,2.74023 -0.84001,3.34689 -2.10755,4.22424 -6.125,4.24415 -4.11831,0.0204 -6.64853,2.91087 -6.23047,7.11718 0.32562,3.27619 0.32364,3.27772 -5.97656,4.56836 -6.26765,1.28396 -8.76967,2.84703 -10.69141,6.68164 -0.55349,1.10443 -2.17062,2.31985 -3.59375,2.69922 -2.5805,0.68791 -4.46218,-0.71041 -17.55273,-13.03516 C 297.18186,316.90699 295.77505,316 295.23242,316 c -0.54264,0 -1.56527,-0.69594 -2.27148,-1.54688 -0.70621,-0.85091 -3.79941,-2.67932 -6.87305,-4.0625 -3.07363,-1.38316 -6.48789,-3.03149 -7.58789,-3.6621 -2.44024,-1.39896 -41.88024,-2.0607 -44.33984,-0.74414 -0.91319,0.48881 -4.22789,2.08557 -7.36719,3.54882 -3.1393,1.46326 -6.2325,3.2907 -6.87305,4.0625 -0.64054,0.77181 -1.58774,1.4043 -2.10547,1.4043 -0.51773,0 -2.15148,1.15173 -3.6289,2.56055 -15.22506,14.51799 -18.22769,15.96426 -21.01563,10.12109 -1.77898,-3.72854 -6.19185,-6.29345 -12.19531,-7.08984 -4.88714,-0.6483 -6.9078,-1.89691 -4.99023,-3.08203 3.26118,-2.01553 -0.79304,-7.5004 -5.5625,-7.52539 -3.89562,-0.0204 -5.35199,-1.07812 -6.29102,-4.57032 -0.55647,-2.06945 -1.41306,-2.9214 -2.95508,-2.9414 -3.53802,-0.0459 -9.08324,-6.04645 -9.81445,-10.61914 -0.35015,-2.1897 -1.64119,-5.45902 -2.86719,-7.26563 -1.57104,-2.31505 -2.25888,-4.8787 -2.33398,-8.68555 -0.0586,-2.97078 -1.05293,-8.77734 -2.20899,-12.90234 -1.15605,-4.125 -2.45917,-11.13347 -2.89648,-15.57422 -0.81337,-8.25972 -1.70834,-11.33949 -4.95117,-14.99805 z m 38.9336,88.58008 0.10742,0.0176 -0.0254,0.16406 z"
     id="lvl26-col11"
     inkscape:connector-curvature="0"
     sodipodi:nodetypes="ccccccccccccccccccccccccccccccccccccccccccccccccccccccccccccccccccccccccccscccccccsccccccsccsccccssccccccccc" />
  <path
     style="display:inline;opacity:0.3;fill:#000000"
     d="m 382.81595,227.43862 -0.65886,7.70245 c 0,0 -2.38981,4.65945 -3.07588,5.85891 -1.51449,2.64779 -2.24442,11.44053 -1.18176,14.23555 0.65055,1.71106 0.67329,2.91048 0.0623,3.28807 -0.52898,0.32693 -0.96179,1.46786 -0.96179,2.5354 0,1.06754 -0.39541,1.94098 -0.87868,1.94098 -1.49762,0 -3.30788,5.64345 -3.59197,11.19789 -0.35691,6.97834 -1.53539,12.82937 -3.08206,15.30211 -0.68803,1.1 -1.57556,3.55203 -1.97228,5.44896 -0.88213,4.21808 -16.68462,20.05104 -20.01241,20.05104 -1.14417,0 -2.84419,0.5625 -3.77783,1.25 -1.39974,1.03072 -1.52398,1.85238 -0.70823,4.68377 0.54411,1.88857 0.88449,3.51329 0.7564,3.61048 -0.1281,0.0972 -4.05353,1.03054 -8.7232,2.0741 -7.47961,1.67152 -8.65201,2.23479 -9.84881,4.73183 -1.20677,2.51785 -3.20031,3.78039 -9.45401,5.98735 -1.49175,0.52644 -1.60146,0.99093 -0.65279,2.76354 0.62719,1.17191 2.67159,3.4752 4.54313,5.11843 5.67832,4.98563 3.72956,9.32019 -3.46112,7.69843 -2.68099,-0.60466 -4.0185,-0.42934 -5.2539,0.68868 -1.47448,1.33438 -2.5798,1.31398 -10.01975,-0.18491 -8.04841,-1.62148 -13.04465,-4.11799 -19.57496,-9.78117 -1.21689,-1.0553 -3.24189,-2.43192 -4.5,-3.05916 -3.77711,-1.88309 -2.82878,-3.94394 1.96251,-4.26478 3.12722,-0.20941 4.25,0.0883 4.25,1.12701 0,2.01774 10.57122,8.16468 18.09919,10.52429 3.52045,1.10347 6.51331,2.01211 6.65081,2.01921 0.1375,0.007 0.25,-0.8871 0.25,-1.9871 0,-1.4978 0.66667,-2 2.65499,-2 2.6361,0 2.64144,-0.015 0.75,-2.10781 -1.04775,-1.15929 -1.7642,-2.95929 -1.59213,-4 0.19415,-1.17425 -0.2729,-1.89219 -1.23095,-1.89219 -0.84909,0 -1.80131,-1.02598 -2.11604,-2.27995 -0.31472,-1.25397 -2.4608,-4.11084 -4.76905,-6.34861 -4.54686,-4.40802 -17.27284,-13.37144 -18.98435,-13.37144 -0.58024,0 -1.83102,-0.7023 -2.7795,-1.56066 -2.99107,-2.70688 -20.59531,-4.37316 -37.15593,-3.51688 -9.98751,0.51641 -32.77375,15.43233 -36.40005,23.82754 -0.77211,1.7875 -1.84779,3.25 -2.39041,3.25 -0.54262,0 -0.98658,0.8449 -0.98658,1.87756 0,1.03265 -0.675,2.43775 -1.5,3.12244 -1.93081,1.60243 -1.93963,3.10593 -0.0139,2.36696 0.96578,-0.37061 1.81956,0.30678 2.43849,1.93469 0.92379,2.42977 1.06681,2.46416 4.7639,1.14555 2.09633,-0.74768 4.45587,-1.37917 5.24342,-1.40331 2.42468,-0.0743 14.0143,-7.43884 14.6259,-9.29389 0.7894,-2.39433 6.16985,-2.40264 6.63059,-0.0102 0.41246,2.14176 -2.70235,4.92538 -13.81933,12.34998 -1.30919,0.87435 -6.24032,2.1902 -10.95808,2.92411 -7.09609,1.10388 -8.71847,1.10667 -9.39245,0.0161 -0.57281,-0.92683 -2.01125,-1.12688 -4.84485,-0.67376 -2.98594,0.47747 -4.43739,0.2372 -5.60192,-0.92733 -2.21192,-2.21192 -2.10115,-2.49294 2.92823,-7.42891 2.475,-2.42903 4.5,-4.95502 4.5,-5.61331 0,-0.6583 -1.90264,-1.80211 -4.22808,-2.5418 -2.39716,-0.7625 -4.68752,-2.27304 -5.28904,-3.48824 -1.95911,-3.95777 -3.49764,-5.10346 -7.75176,-5.7724 -2.32712,-0.36593 -5.96523,-1.12699 -8.0847,-1.69123 l -3.85358,-1.02589 0.65048,-4.33774 0.65049,-4.33775 -4.0988,-0.69248 c -2.37815,-0.40179 -4.59779,-1.4915 -5.28745,-2.59583 -0.65376,-1.04682 -1.47044,-1.90332 -1.81484,-1.90332 -0.3444,0 -3.34817,-2.60621 -6.67504,-5.79158 -4.61614,-4.4198 -6.22098,-6.70908 -6.77556,-9.66527 -0.39969,-2.13054 -1.72345,-5.34247 -2.94167,-7.13763 -1.72845,-2.54701 -2.32791,-5.20141 -2.72917,-12.08472 -0.37931,-6.50682 -1.11165,-9.95983 -2.79163,-13.16274 -1.82204,-3.47374 -2.23685,-5.73167 -2.07449,-11.29203 0.21409,-7.3321 -1.97255,-10.86603 -1.97255,-10.86603 0,0 -4.07107,-11.86864 -1.87971,-13.40671 l 5.05053,5.83435 c 3.24283,3.65856 4.13694,6.73851 4.95031,14.99823 0.43731,4.44075 1.74097,11.4491 2.89702,15.5741 1.15606,4.125 2.14987,9.93064 2.20847,12.90142 0.0751,3.80685 0.76461,6.37112 2.33565,8.68617 1.226,1.80661 2.51557,5.07633 2.86572,7.26603 0.73121,4.57269 6.27711,10.57237 9.81513,10.61823 1.54202,0.02 2.3992,0.87347 2.95567,2.94292 0.93903,3.4922 2.39425,4.5495 6.28986,4.56992 4.76946,0.025 8.82362,5.50986 5.56243,7.52539 -1.91756,1.18512 0.10284,2.43251 4.98998,3.08081 6.00346,0.79639 10.41778,3.36299 12.19676,7.09153 2.78794,5.84317 5.79074,4.39705 21.0158,-10.12094 1.47742,-1.40882 3.10982,-2.56148 3.62755,-2.56148 0.51773,0 1.46541,-0.63148 2.10595,-1.40329 0.64055,-0.7718 3.73315,-2.60049 6.87245,-4.06375 3.1393,-1.46325 6.45498,-3.06039 7.36817,-3.5492 2.4596,-1.31655 41.89941,-0.65327 44.33965,0.74569 1.1,0.63061 4.5148,2.27826 7.58843,3.66142 3.07364,1.38317 6.16624,3.21107 6.87245,4.06199 0.70621,0.85093 1.72798,1.54714 2.27062,1.54714 0.54263,0 1.95003,0.90706 3.12755,2.0157 13.09055,12.32474 14.97295,13.72255 17.55345,13.03464 1.42313,-0.37937 3.04036,-1.5934 3.59385,-2.69783 1.92174,-3.83461 4.42416,-5.3987 10.69181,-6.68266 6.3002,-1.29064 6.30176,-1.29183 5.97614,-4.56802 -0.41806,-4.20631 2.11238,-7.09677 6.23069,-7.11714 4.01745,-0.0199 5.28412,-0.89782 6.12413,-4.24471 0.4854,-1.93396 1.32627,-2.73998 2.85845,-2.73998 3.37509,0 9.33933,-6.42408 10.09014,-10.8681 0.35306,-2.08972 1.58219,-5.33678 2.7314,-7.2157 1.38365,-2.2622 2.20017,-5.54693 2.41716,-9.72387 0.32162,-6.19073 1.61945,-12.73197 3.31189,-16.69233 0.47007,-1.1 1.37137,-6.275 2.00289,-11.5 0.97542,-8.07047 1.6295,-10.02616 4.10236,-13.18985 l 2.75327,-3.52244 z M 264.22743,429.58903 c -2.70879,-1.14898 -6.4556,-3.28672 -8.32625,-4.75053 -2.87771,-2.25186 -3.1373,-2.76643 -1.68667,-3.34337 1.04653,-0.41622 2.85987,0.13369 4.65437,1.41148 1.61692,1.15135 3.58289,2.09337 4.36882,2.09337 0.78593,0 1.74199,0.31302 2.12458,0.69561 0.38258,0.38259 1.40518,0.79976 2.27244,0.92704 1.21404,0.17818 1.08246,-0.29479 -0.57189,-2.05577 -4.68395,-4.98584 -7.86936,-18.65967 -4.63594,-19.90045 1.99059,-0.76386 3.46288,1.34689 3.39204,4.863 -0.0964,4.7826 2.94683,10.84669 7.21473,14.37661 2.60838,2.15735 3.96634,4.10203 3.96634,5.68003 0,2.15114 -0.40618,2.38362 -3.92375,2.24579 -2.15806,-0.0846 -6.14003,-1.09383 -8.84882,-2.24281 z M 232.25,426.26499 c -1.84672,-0.63775 -1.51749,-3.2338 0.5,-3.94261 0.9625,-0.33815 4.13386,-2.37974 7.04747,-4.53685 6.18064,-4.57588 10.53704,-5.42782 11.00577,-2.15229 0.23282,1.62698 -0.45779,2.39927 -2.90997,3.2541 -1.76838,0.61646 -4.6053,2.14673 -6.30425,3.4006 -3.94284,2.9099 -7.74301,4.52822 -9.33902,3.97705 z m 67.30089,-11.6094 C 298.1479,412.81617 297,410.31323 297,409.09349 c 0,-3.67968 3.17436,-12.20512 4.37837,-11.75905 0.61689,0.22854 0.95748,1.03429 0.75685,1.79054 -1.23142,4.64166 -1.02669,8.0763 0.75012,12.58409 2.81044,7.13015 1.04588,8.68942 -3.33445,2.94652 z M 208,415.65362 c 0,-0.7405 0.73296,-2.81561 1.62879,-4.61135 1.18993,-2.38527 1.48492,-4.85164 1.09483,-9.15364 -0.57909,-6.38635 0.37147,-7.66049 2.15506,-2.88865 0.61673,1.65 1.59164,4.26726 2.16648,5.81613 1.15212,3.10435 0.0271,7.34151 -2.76975,10.43204 C 210.39502,417.32596 208,417.5531 208,415.65362 Z M 182.60972,402.69918 C 180.62437,400.27633 179,397.60099 179,396.75398 c 0,-2.02192 3.16288,-3.21414 4.09769,-1.54458 0.39743,0.70982 2.12493,3.05492 3.83888,5.21133 1.71394,2.15641 2.95459,4.40641 2.75698,5 -0.83487,2.50788 -3.70102,1.40673 -7.08383,-2.72155 z M 323,405.73364 c 0,-2.27103 7.19414,-10.84313 8.83313,-10.52502 2.63424,0.51128 2.33445,2.41596 -1.08782,6.91123 -3.30396,4.33987 -7.74531,6.4121 -7.74531,3.61379 z m -161.87814,-7.0118 c -1.46571,-1.46571 -1.44556,-6.40377 0.0298,-7.31562 1.46685,-0.90656 3.8483,2.2977 3.8483,5.1779 0,2.54448 -2.23784,3.77802 -3.87814,2.13772 z m 75.5944,-0.0189 c -0.27375,-0.71337 0.63075,-3.97304 2.00999,-7.24371 2.08055,-4.9337 2.40523,-6.92721 1.90607,-11.70297 -0.58229,-5.57104 -0.52472,-5.75628 1.78917,-5.75628 2.09534,0 2.47193,0.58967 3.04701,4.77095 0.36089,2.62402 0.19531,5.98309 -0.36795,7.4646 -0.56327,1.4815 -0.64231,2.92962 -0.17565,3.21804 1.42426,0.88024 3.43265,-2.40637 4.01937,-6.57744 0.30565,-2.17292 0.99489,-4.04648 1.53165,-4.16346 1.76463,-0.38458 2.94538,5.01277 1.95728,8.947 -0.75533,3.00746 -2.13665,4.53757 -7.24732,8.02798 -6.83918,4.67093 -7.71469,4.98262 -8.46962,3.0153 z m 111.02006,0.047 c -0.79007,-2.29482 1.399,-6.87038 3.1293,-6.54084 2.02164,0.38503 2.70928,4.3932 1.0887,6.34588 -1.47426,1.77637 -3.63911,1.87643 -4.218,0.19496 z m -9.08694,-3.98275 c -0.32113,-1.22802 -0.14861,-2.66802 0.38337,-3.2 0.53199,-0.53199 0.96725,-2.49065 0.96725,-4.35258 0,-2.61207 -0.79946,-4.09313 -3.5,-6.484 -5.27289,-4.66826 -4.52579,-7.85219 1.19263,-5.08267 1.81526,0.87916 4.0652,3.30442 5.4003,5.8211 2.10341,3.96497 2.18389,4.66676 0.99456,8.67249 -2.03084,6.84 -4.34442,8.80793 -5.43811,4.62566 z m -167.33682,0.44709 c -1.67926,-1.06777 -3.31373,-5.77912 -3.30597,-9.52944 0.0105,-5.06079 5.18102,-11.57927 9.24341,-11.6531 2.78808,-0.0507 2.05897,3.25172 -1.38519,6.27391 -3.07488,2.69817 -3.12243,2.87554 -2.47215,9.22268 0.64878,6.33246 0.32568,7.21567 -2.0801,5.68595 z m 91.61052,-2.13742 c -3.34523,-3.34522 -4.37907,-10.8818 -1.85329,-13.51025 1.29074,-1.34321 1.93613,-0.3376 2.60527,4.05943 0.70864,4.65654 3.54337,8.04333 7.45052,8.90148 3.76399,0.82671 3.6549,2.06632 -0.25058,2.84742 -4.61527,0.92305 -4.77775,0.8761 -7.95192,-2.29808 z m 52.17765,-2.45554 c -1.08687,-1.3096 -0.91553,-2.17366 1.05026,-5.29635 1.29196,-2.05229 2.84822,-5.1025 3.45837,-6.77823 1.06967,-2.93781 3.54494,-3.66542 5.6446,-1.65926 0.98057,0.9369 -2.4269,7.69427 -6.02873,11.9556 -2.49885,2.95639 -2.97599,3.16211 -4.1245,1.77824 z m -122.19925,-2.87813 c -5.98805,-7.50477 -7.26984,-13.24255 -2.80658,-12.56339 1.41455,0.21525 2.5316,1.57047 3.40939,4.13634 0.71805,2.0989 2.06278,4.65292 2.98828,5.67559 1.74577,1.92906 1.74992,5.09535 0.007,5.67531 -0.55,0.18306 -2.16933,-1.13267 -3.59852,-2.92385 z m 25.76334,-4.50542 c -2.61187,-3.76893 -3.44987,-7.63461 -1.86707,-8.61283 1.11313,-0.68796 2.2803,0.29373 5.52674,4.64848 1.54721,2.07542 2.66449,4.54525 2.48283,5.48852 -0.60148,3.12322 -3.40373,2.42789 -6.1425,-1.52417 z M 288,385.01333 c 0,-2.37937 5.02267,-9.9216 6.64301,-9.9754 2.39349,-0.0795 2.31822,3.3525 -0.16653,7.5924 -2.75622,4.70312 -6.47648,6.07198 -6.47648,2.383 z m 61.5955,-4.90782 c -2.2447,-2.48037 -1.7117,-5.51426 1.03802,-5.90848 1.62223,-0.23257 2.24192,0.34815 2.66773,2.5 0.79518,4.0185 -1.35985,6.00066 -3.70575,3.40848 z m -190.13063,-0.16237 c -1.23637,-2.00049 0.47889,-5.94316 2.58557,-5.94316 2.79219,0 3.54634,2.68308 1.41585,5.03725 -2.00102,2.2111 -3.04824,2.44819 -4.00142,0.90591 z m -17.23741,-1.79279 c -0.323,-0.84174 -0.0789,-1.69989 0.54245,-1.90701 2.79535,-0.93178 6.13283,-4.52407 6.73025,-7.24408 0.82634,-3.76232 1.91648,-4.43978 3.92012,-2.43614 2.04072,2.04072 1.14547,6.05078 -2.14027,9.58674 -2.92073,3.14317 -8.16901,4.30297 -9.05255,2.00049 z m 223.14681,1.16018 c -3.53475,-0.69354 -6.62563,-4.818 -6.75621,-9.01544 -0.0985,-3.1678 0.21253,-3.79511 1.88194,-3.79511 1.37569,0 2.1065,0.78039 2.34118,2.5 0.40901,2.99707 2.83497,5.91444 5.88972,7.08275 1.44595,0.55301 2.02405,1.39227 1.64301,2.38524 -0.58962,1.53651 -1.05935,1.61568 -4.99964,0.84256 z M 337.18185,367.4148 c -3.72556,-2.60948 -1.80776,-11.41482 2.48614,-11.41482 1.23389,0 1.41968,0.71915 0.90062,3.48599 -0.35969,1.91729 -0.19423,4.34504 0.36769,5.39499 1.54484,2.88655 -0.89755,4.53489 -3.75445,2.53384 z m -165.27115,0.33518 c -0.0491,-0.1375 -0.19573,-3.52387 -0.3258,-7.52527 -0.26699,-8.21355 0.64675,-8.79655 4.14865,-2.64699 2.65215,4.65736 2.81498,6.73087 0.69502,8.85083 -1.32246,1.32246 -4.21526,2.16857 -4.51787,1.32143 z m -39.59658,-9.37379 c -0.38311,-0.99837 0.0576,-2.00473 1.14423,-2.61284 1.81755,-1.01715 3.39373,-2.58247 7.27675,-7.22661 2.81002,-3.36082 4.52077,-2.56918 3.12159,1.4445 -1.03517,2.96947 -7.99452,10.01874 -9.89096,10.01874 -0.56567,0 -1.3089,-0.73071 -1.65161,-1.62379 z m 240.51418,-2.12621 c -3.55474,-3.72604 -5.84648,-9.25 -3.83756,-9.25 0.56586,0 1.81193,0.97725 2.76905,2.17167 0.95711,1.19442 3.26275,3.61525 5.12362,5.37963 3.1955,3.02978 3.53312,5.4487 0.76052,5.4487 -0.68092,0 -2.84795,-1.6875 -4.81563,-3.75 z m -19.86184,-0.32621 c -1.24907,-0.81922 -1.17871,-1.18134 0.47467,-2.44279 C 355.86456,351.63201 357,351.599 357,353.37754 c 0,2.17512 -2.34364,3.65458 -4.03354,2.54623 z m -196.99121,-2.48889 c -0.53639,-1.4108 -0.97525,-5.6858 -0.97525,-9.5 0,-5.37145 0.32486,-6.9349 1.44098,-6.9349 2.0957,0 2.27772,0.61668 3.02537,10.25 0.59232,7.63182 0.47496,8.75 -0.91837,8.75 -0.87862,0 -2.03634,-1.15429 -2.57273,-2.5651 z m 72.62365,-1.39628 c -1.60489,-0.56628 -1.37117,-0.86685 1.5,-1.92902 9.93899,-3.67689 15.8507,-8.21664 17.97472,-13.80323 0.9221,-2.4253 4.93039,-3.2857 4.92126,-1.05637 -0.008,2.05483 -4.30129,8.44696 -7.18643,10.7007 -4.95269,3.8688 -14.21384,7.14495 -17.20955,6.08792 z M 274.5,350.92774 c -2.75,-1.08242 -6.22384,-3.05064 -7.71966,-4.37383 -3.32497,-2.94126 -6.77154,-8.43613 -6.7766,-10.80393 -0.007,-3.38927 2.90216,-1.69355 5.60051,3.2642 2.33659,4.2931 3.73111,5.51551 9.69677,8.5 3.83223,1.91719 7.58223,3.4858 8.33334,3.4858 0.7511,0 1.36564,0.45 1.36564,1 0,1.58651 -5.0572,1.07008 -10.5,-1.07224 z m 80.47994,-10.45193 c -0.69572,-0.83829 -0.99522,-1.79388 -0.66557,-2.12353 1.02406,-1.02406 3.68563,0.50424 3.68563,2.11632 0,1.95861 -1.39777,1.96195 -3.02006,0.007 z m 11.75341,-5.22583 c -1.28072,-1.42156 -1.40344,-2.67299 -0.65384,-6.66781 0.50753,-2.7048 1.17174,-5.16677 1.47601,-5.47104 1.10414,-1.10415 2.29954,2.36355 1.7544,5.08927 -0.31405,1.57024 -0.0172,3.4473 0.67745,4.28436 1.27617,1.5377 0.74796,4.51522 -0.801,4.51522 -0.48202,0 -1.58588,-0.7875 -2.45302,-1.75 z m -224.35835,-2.375 c 0.34375,-1.71875 0.625,-4.92385 0.625,-7.12244 0,-3.2738 0.24832,-3.79136 1.37175,-2.859 1.74165,1.44544 2.78567,10.19495 1.41475,11.85644 -0.56726,0.6875 -1.70754,1.25 -2.53394,1.25 -1.14953,0 -1.35572,-0.73422 -0.87756,-3.125 z M 283.5,327.76012 c -2.75,-1.05015 -5.9,-1.98828 -7,-2.08475 -1.1,-0.0965 -2.44421,-1.18789 -2.98713,-2.42539 -0.54292,-1.2375 -1.70542,-2.25 -2.58333,-2.25 -2.28236,0 -3.08195,-1.11143 -1.85938,-2.58454 1.35428,-1.6318 6.0594,-0.15797 10.83964,3.39542 1.87538,1.39406 5.00963,3.08467 6.96499,3.75689 1.95536,0.67222 3.70248,1.66403 3.88247,2.20402 0.62907,1.88719 -2.29709,1.8825 -7.25726,-0.0117 z m -62.01295,0.2189 c -0.52162,-0.844 5.0247,-3.97904 7.03947,-3.97904 0.32492,0 2.25187,-1.33375 4.28212,-2.96388 4.14134,-3.32519 10.69136,-4.58099 10.69136,-2.04982 0,0.81747 -0.89773,1.6592 -1.99497,1.87051 -1.09723,0.2113 -3.79723,1.59593 -6,3.07694 -2.20276,1.48101 -5.85724,3.22679 -8.12105,3.8795 -4.99623,1.44054 -5.10717,1.44365 -5.89693,0.16579 z M 128,324.32872 c 0,-0.91919 0.76779,-2.51966 1.70621,-3.5566 1.11244,-1.22923 1.84899,-4.1277 2.1165,-8.32874 0.22565,-3.54387 0.75326,-6.4434 1.17247,-6.4434 1.22464,0 3.31262,5.87894 3.22185,9.07149 C 136.06336,320.47616 128,329.56029 128,324.32872 Z m 253.44721,0.90595 C 379.60749,323.95081 376,317.34103 376,315.25407 c 0,-2.47397 2.92132,-9.66611 3.63593,-8.95149 0.28533,0.28533 0.67658,3.10462 0.86945,6.2651 0.23275,3.81405 1.0474,6.6887 2.42265,8.54882 1.13958,1.54137 2.07197,3.27072 2.07197,3.84299 0,1.19803 -2.00755,1.35352 -3.55279,0.27518 z m -2.37747,-31.10438 c -1.34722,-2.5173 -1.38651,-6.8165 -0.0697,-7.63031 0.55,-0.33992 1.00277,-0.029 1.00616,0.69098 0.003,0.71996 0.63975,2.52349 1.41414,4.00783 1.17716,2.25638 1.18758,2.88173 0.0636,3.81457 -1.03105,0.85569 -1.59374,0.64986 -2.41414,-0.88307 z m -248.52343,-0.0554 c -0.31444,-0.50879 -0.15261,-1.97129 0.35963,-3.25 0.51224,-1.27872 1.23803,-3.22494 1.61286,-4.32494 0.64387,-1.88952 0.73345,-1.86489 1.62157,0.44581 1.47855,3.84687 -1.71165,10.17492 -3.59406,7.12913 z"
     id="lvl29-1"
     inkscape:connector-curvature="0"
     sodipodi:nodetypes="ccsccsscccssccsccccscsccssscsscsscsscsssssccscscccccsssccsscccccssscscsccccccssccsssccsccccccscccccccscccccsccscccscccscsscsscscccscsccccscscccscsccccscssccscccccscccsscscccccccsscscscccccsccccsccscccsscccscccccsccscssccccsscscccsccccsccccssccscscscccscscssccssccsccsscscccscccsccccssscssccsccccsscsccscccssccscccsscscccssscssscscccscccccccccccsc"
     inkscape:label="lvl29-1" />
  <path
     inkscape:connector-curvature="0"
     inkscape:label="lvl29-shadow"
     id="lvl29-shadow"
     d="m 253.32227,125.17773 -20.82813,2.50586 -32.67773,8.22852 -29.44532,15.38672 -16.16015,18.96484 -19.03125,25.76367 -5.02735,21.11133 h -6.10546 l -19.39063,0.35742 -8.619141,3.57813 -8.61914,11.44922 -2.513672,18.96484 0.730469,23.67969 5.015625,16.75391 12.714839,6.96679 14.2168,3.05274 0.375,0.26757 -0.01,0.0625 -5.34766,16.28321 5.88281,4.70508 -8.02148,27.32226 1.60351,5.06641 11.58594,-4.16211 -3.56445,25.15039 8.3789,3.80078 3.0293,21.89258 11.58789,-4.16211 3.56445,13.20898 12.97266,10.76367 6.95508,-8.80664 8.94922,14.32813 11.94336,2.5332 2.20703,9.29492 14.72851,13.32227 4.63477,-12.12305 11.34766,11.02539 13.19921,8.26758 2.01368,-9.70312 4.8125,-1.08594 19.67578,16.18164 10.62695,-16.90625 4.81445,3.80078 1.58594,8.28516 9.28711,-1.95313 14.08203,-17.55078 4.27735,5.60938 1.24804,7.23828 15.86524,-13.02735 1.07031,-9.77148 9.26953,-0.36133 12.65625,-15.74219 4.45508,3.4375 1.07031,6.33399 12.83399,-11.58008 6.86914,-16.34766 10.6914,5.96485 -0.80468,-10.2461 2.49609,-14.83593 8.73828,1.02343 -1.25195,-8.08007 -5.16797,-17.00782 4.09961,-2.35351 9.625,4.16211 -0.17774,-13.02735 -7.30859,-20.26562 6.41797,-2.71289 -1.7832,-9.22852 -3.48438,-6.85351 1.54297,-1.4375 12.01172,-2 12.72656,-6.04102 6.86328,-10.56641 2.87109,-21.46875 -1.79492,-23.25781 -3.94922,-10.73437 -8.97851,-8.23047 -15.08203,-3.57813 -15.80078,2.50391 -0.7168,-7.15625 -7.54102,-17.17578 -12.21093,-18.96289 -13.64453,-16.10352 -13.28711,-12.16406 -21.1875,-8.94727 -28.36915,-9.30273 z"
     style="display:inline;fill:url(#linearGradient4508);fill-opacity:1;stroke:none;stroke-width:0.26458329px;stroke-linecap:butt;stroke-linejoin:miter;stroke-opacity:1" />
  <path
     style="display:inline;fill:url(#linearGradient4504);fill-opacity:1;stroke:none;stroke-width:0.26458329px;stroke-linecap:butt;stroke-linejoin:miter;stroke-opacity:1"
     d="m 253.32227,125.17773 -20.82813,2.50586 -32.67773,8.22852 -29.44532,15.38672 -16.16015,18.96484 -19.03125,25.76367 -5.02735,21.11133 h -6.10546 l -19.39063,0.35742 -8.619141,3.57813 -8.61914,11.44922 -2.513672,18.96484 0.730469,23.67969 5.015625,16.75391 12.714839,6.96679 14.2168,3.05274 0.375,0.26757 -0.01,0.0625 -5.34766,16.28321 5.88281,4.70508 -8.02148,27.32226 1.60351,5.06641 11.58594,-4.16211 -3.56445,25.15039 8.3789,3.80078 3.0293,21.89258 11.58789,-4.16211 3.56445,13.20898 12.97266,10.76367 6.95508,-8.80664 8.94922,14.32813 11.94336,2.5332 2.20703,9.29492 14.72851,13.32227 4.63477,-12.12305 11.34766,11.02539 13.19921,8.26758 2.01368,-9.70312 4.8125,-1.08594 19.67578,16.18164 10.62695,-16.90625 4.81445,3.80078 1.58594,8.28516 9.28711,-1.95313 14.08203,-17.55078 4.27735,5.60938 1.24804,7.23828 15.86524,-13.02735 1.07031,-9.77148 9.26953,-0.36133 12.65625,-15.74219 4.45508,3.4375 1.07031,6.33399 12.83399,-11.58008 6.86914,-16.34766 10.6914,5.96485 -0.80468,-10.2461 2.49609,-14.83593 8.73828,1.02343 -1.25195,-8.08007 -5.16797,-17.00782 4.09961,-2.35351 9.625,4.16211 -0.17774,-13.02735 -7.30859,-20.26562 6.41797,-2.71289 -1.7832,-9.22852 -3.48438,-6.85351 1.54297,-1.4375 12.01172,-2 12.72656,-6.04102 6.86328,-10.56641 2.87109,-21.46875 -1.79492,-23.25781 -3.94922,-10.73437 -8.97851,-8.23047 -15.08203,-3.57813 -15.80078,2.50391 -0.7168,-7.15625 -7.54102,-17.17578 -12.21093,-18.96289 -13.64453,-16.10352 -13.28711,-12.16406 -21.1875,-8.94727 -28.36915,-9.30273 z"
     id="lvl29-shadow-1"
     inkscape:label="lvl29-shadow-1"
     inkscape:connector-curvature="0" />
  <path
     style="display:inline;opacity:1;fill:#000000"
     d="M 250.01405,458.79826 C 239.88785,448.72015 238.5,448.47766 238.5,456.78653 c 0,5.11432 -1.67417,6.37585 -5.88144,4.4318 -1.16521,-0.53841 -3.98145,-1.75377 -6.25831,-2.7008 -2.34109,-0.97374 -6.75569,-4.4689 -10.16051,-8.04435 -5.64592,-5.92887 -6.0574,-6.17648 -6.60935,-3.9773 -0.32374,1.28984 -0.33378,3.00924 -0.0223,3.82088 0.3276,0.85374 -0.3475,2.11574 -1.60176,2.99426 -2.03698,1.42676 -2.50953,1.25326 -7.81717,-2.87023 -10.43621,-8.10784 -12.20713,-9.92396 -13.5849,-13.93163 -1.07867,-3.13764 -1.99462,-4.11747 -4.28734,-4.58638 -6.08952,-1.24544 -11.30552,-5.98566 -14.495,-13.1728 -1.65463,-3.72856 -2.99703,-3.46836 -2.65389,0.5144 0.62981,7.31021 -3.80984,7.72646 -11.34463,1.06365 -6.15959,-5.44675 -8.96386,-9.27787 -10.85372,-14.82805 -0.74911,-2.2 -1.46077,-4.15853 -1.58147,-4.3523 -0.1207,-0.19376 -2.19655,0.63511 -4.61299,1.84194 -2.41644,1.20683 -5.48291,2.04036 -6.81437,1.8523 -2.01063,-0.284 -2.47418,-0.99017 -2.7357,-4.1675 -0.17318,-2.10406 0.0866,-5.70806 0.57735,-8.00889 0.49072,-2.30083 0.69568,-5.86683 0.45546,-7.92444 -0.42148,-3.61011 -0.57387,-3.74111 -4.35212,-3.74111 -3.33094,0 -4.08384,-0.41046 -5.04423,-2.75 -1.70072,-4.14297 -1.33279,-9.23762 1.0439,-14.45478 C 121.03948,361.21818 122,357.98154 122,356.60268 v -2.50704 l -4.65913,1.40219 c -8.84318,2.66141 -11.05361,-1.77725 -6.78257,-13.61975 1.46352,-4.05795 2.89034,-8.39725 3.17072,-9.64288 0.28038,-1.24563 0.90605,-2.50968 1.39038,-2.80901 1.63772,-1.01217 0.85936,-3.91358 -1.70189,-6.34394 -2.10807,-2.00033 -2.50611,-3.2088 -2.30566,-7 0.13326,-2.52025 0.8376,-5.4699 1.56522,-6.55478 2.48259,-3.70157 1.66894,-5.20822 -3.17089,-5.87159 -5.52097,-0.75673 -13.524824,-4.70535 -17.024759,-8.39899 -2.499383,-2.63772 -5.449789,-7.38883 -5.58672,-8.99643 -0.03563,-0.41826 -0.451049,-1.22591 -0.923162,-1.79477 -1.526891,-1.83979 -2.956238,-13.69549 -2.963985,-24.58472 -0.009,-12.61376 2.173755,-26.24871 5.101024,-31.8648 2.696265,-5.1729 10.308515,-11.74151 15.141802,-13.06585 3.57881,-0.98062 20.79318,-1.57413 23.57223,-0.81271 0.91089,0.24956 2.00043,-2.28819 3.5,-8.1522 1.66732,-6.51999 3.48593,-10.50234 7.76335,-17 3.07227,-4.66699 6.17406,-9.61043 6.89285,-10.98543 3.15348,-6.03237 20.50708,-25.31306 27.31774,-30.35133 8.88984,-6.57638 12.13245,-8.07217 35.20345,-16.23912 21.9615,-7.77419 44.0948,-10.49248 65,-7.98293 21.50841,2.58196 55.40603,14.64189 68.20567,24.26587 6.80073,5.11343 24.31653,24.54492 27.31959,30.30751 0.71655,1.375 3.80466,6.30254 6.86245,10.95009 4.32085,6.56725 6.03284,10.35516 7.68339,17 1.52776,6.15046 2.51739,8.4519 3.52633,8.20069 2.89954,-0.72195 20.53531,-0.12902 23.74768,0.79841 4.78884,1.38257 11.55001,7.2745 14.59068,12.71484 6.80962,12.18374 7.5718,45.28908 1.36608,59.33597 -3.82095,8.64887 -12.79961,15.35262 -22.30805,16.6559 -5.04657,0.69171 -5.31768,1.39672 -3.04486,7.918 1.62325,4.6575 0.68149,11.12633 -1.89399,13.00957 -2.04311,1.49395 -1.965,2.8689 0.53578,9.43065 5.2743,13.83917 6.0254,20.95986 2.35928,22.36668 -0.86198,0.33077 -3.62557,0.14012 -6.14133,-0.42367 -2.51575,-0.56379 -4.76809,-0.83107 -5.00521,-0.59396 -0.23711,0.23712 0.77287,3.91938 2.2444,8.1828 4.1022,11.88513 2.43142,18.45403 -4.69371,18.45403 -2.37489,0 -2.85737,0.5001 -3.43064,3.55588 -0.3669,1.95574 -0.32558,5.21824 0.0918,7.25 0.4174,2.03177 0.8097,5.49412 0.87177,7.69412 0.10696,3.79044 -0.0536,4.01613 -3.06353,4.30787 -1.77547,0.17208 -4.9101,-0.57659 -7.10727,-1.69751 l -3.93086,-2.00537 -1.33839,4.1975 c -1.85154,5.80683 -4.49628,9.46689 -11.20767,15.51028 C 351.04848,427.7382 347,427.56136 347,420.29998 c 0,-1.815 -0.45,-3.3 -1,-3.3 -0.55,0 -1,0.67111 -1,1.49135 0,1.51305 -6.30244,10.37459 -8.37114,11.77023 -0.62087,0.41886 -2.98163,1.24475 -5.24613,1.83529 -3.52891,0.92028 -4.27469,1.59915 -5.21891,4.75067 -1.08206,3.6116 -4.17414,6.69737 -14.96403,14.93348 -5.52595,4.21805 -7.54874,3.55294 -8.00729,-2.63286 -0.16912,-2.28149 -0.47476,-4.14816 -0.67919,-4.14816 -0.20443,0 -2.99105,2.74644 -6.1925,6.10319 -6.02834,6.32079 -9.83548,8.89681 -13.14871,8.89681 -1.05996,0 -2.50543,0.69672 -3.21215,1.54826 -0.70672,0.85154 -2.22432,1.41404 -3.37244,1.25 -1.75293,-0.25046 -2.16765,-1.17839 -2.58751,-5.78959 -0.75821,-8.32721 -2.82155,-7.84542 -7.85775,1.83478 -2.27131,4.36576 -4.77557,8.1856 -5.56501,8.48854 -0.90235,0.34626 -4.82485,-2.82262 -10.56319,-8.53371 z m 10.44241,-2.54828 c 0.33846,-1.5125 2.87024,-5.14164 5.62619,-8.06476 l 5.0108,-5.31476 3.20328,1.84259 c 1.7618,1.01343 4.02783,3.51758 5.03563,5.56477 1.00779,2.04719 2.48957,3.72216 3.29284,3.72216 0.80326,0 3.70578,-2.10022 6.45004,-4.66715 4.49385,-4.20347 6.56388,-7.34683 8.28631,-12.58285 0.83778,-2.54675 5.82346,-2.24963 8.39001,0.5 1.1551,1.2375 2.40732,3.4875 2.78272,5 0.37539,1.5125 0.91185,2.75 1.19211,2.75 0.98504,0 7.79346,-6.34958 9.55424,-8.91036 1.24197,-1.80624 1.6021,-3.59574 1.19047,-5.91544 -0.84694,-4.77282 0.7558,-6.22424 6.17002,-5.58748 4.05111,0.47645 4.73551,0.22534 7.6539,-2.80827 1.76274,-1.83232 3.98828,-4.81121 4.94565,-6.61976 0.95737,-1.80854 2.19487,-3.00755 2.75,-2.66446 0.55513,0.34309 1.00933,0.16308 1.00933,-0.40003 0,-0.56311 0.80857,-1.45657 1.79682,-1.98546 2.21873,-1.18743 8.08025,1.39355 9.04873,3.98439 0.58661,1.56928 0.96543,1.47135 3.65445,-0.94474 4.50232,-4.04534 6.27619,-7.30966 6.82283,-12.55548 0.74151,-7.11587 4.57204,-9.39396 9.4043,-5.59291 2.30474,1.81291 5.27287,2.68376 5.27287,1.54705 0,-0.24912 -0.49265,-1.5342 -1.09478,-2.85573 -0.84387,-1.85209 -0.69425,-3.86827 0.65281,-8.79705 0.96117,-3.51685 1.68276,-7.81014 1.60353,-9.54064 -0.17857,-3.89996 2.20766,-5.11319 4.58827,-2.33283 0.93206,1.08856 2.04464,1.9792 2.47241,1.9792 1.40542,0 0.81293,-6.8849 -1.01024,-11.73927 -2.6916,-7.16666 -2.79441,-12.67832 -0.28332,-15.18941 2.74925,-2.74925 5.2389,-2.61388 7.88437,0.42868 3.25674,3.74558 4.55718,3.21674 3.79596,-1.54367 -0.35564,-2.22403 -1.08822,-4.81153 -1.62796,-5.75 -2.11039,-3.66949 -5.26578,-11.95851 -6.47325,-17.00489 -1.40596,-5.87591 -0.36393,-8.20144 3.67492,-8.20144 1.8126,0 1.96212,-0.41439 1.34207,-3.71952 -0.38378,-2.04574 -1.78386,-5.57278 -3.11129,-7.83786 C 389.46751,301.12201 389,298.93084 389,293.13074 c 0,-5.47176 0.35903,-7.3313 1.5,-7.76913 1.89695,-0.72793 1.93442,-4.2964 0.073,-6.95392 -0.78484,-1.12052 -2.40088,-4.92826 -3.59119,-8.46166 -1.64964,-4.89688 -1.90477,-6.8398 -1.07302,-8.17164 1.36712,-2.1891 1.42866,-8.44781 0.0912,-9.27441 -0.55,-0.33992 -1,-1.94148 -1,-3.55902 10e-6,-1.86107 -0.51661,-2.94098 -1.40692,-2.94098 -2.32327,0 -4.43955,-9.62583 -4.98023,-22.65235 -0.31809,-7.66364 -1.07848,-13.52632 -2.05862,-15.87212 C 375.6994,205.42963 375,203.04278 375,202.17139 c 0,-1.81554 -9.82864,-18.67145 -14.42204,-24.73348 -11.07958,-14.62201 -22.25528,-25.40055 -32.22203,-31.07694 -7.42961,-4.23139 -30.29552,-11.80918 -47.66798,-15.79721 -9.42586,-2.16381 -38.95004,-2.16381 -48.3759,0 -24.34858,5.58948 -43.85691,12.66473 -53.81205,19.51648 -8.28384,5.70146 -22.60315,21.55056 -30.6686,33.94505 -10.77323,16.55565 -12.67071,22.30888 -13.51396,40.97469 -0.36551,8.09086 -1.05213,13.78589 -1.71366,14.21353 -1.0706,0.69207 -1.21385,1.1073 -1.47878,4.28647 -0.0687,0.825 -0.79143,1.5 -1.60595,1.5 -0.81452,0 -1.7511,1.2375 -2.08128,2.75 -0.33019,1.5125 -1.03734,3.91263 -1.57146,5.33362 -0.68935,1.83399 -0.56421,3.76465 0.43129,6.65411 1.18491,3.43924 1.19269,4.56923 0.0502,7.28647 -0.74372,1.76878 -1.55643,4.34213 -1.80602,5.71855 -0.24959,1.37642 -1.20485,3.33247 -2.12278,4.34678 -2.09791,2.31817 -2.16555,6.91316 -0.11863,8.05868 2.279,1.27539 1.39998,15.05764 -1.19306,18.70612 -1.54731,2.17712 -4.0797,9.07812 -4.10171,11.17756 -0.003,0.29254 1.20671,0.63223 2.6884,0.75486 5.47517,0.45313 5.24884,4.01834 -1.32945,20.94109 -2.40049,6.17532 -4.36453,11.68782 -4.36453,12.25 0,1.93531 3.21572,1.01764 5.17866,-1.47784 2.33406,-2.96727 3.83179,-3.12188 6.818,-0.70379 3.00445,2.43286 3.33099,6.9176 1.02848,14.12509 -3.04587,9.53442 -3.51834,13.0787 -1.74342,13.0787 0.82737,0 1.76332,-0.675 2.07991,-1.5 0.31658,-0.825 1.44158,-1.5 2.5,-1.5 2.06123,0 3.38654,2.1897 2.58677,4.27388 -0.26886,0.70064 0.12844,3.32495 0.88289,5.83181 0.75445,2.50685 1.2593,7.09651 1.12187,10.19923 l -0.24986,5.64131 2.64835,-1.48583 c 1.45659,-0.81721 3.35823,-1.99135 4.22585,-2.6092 1.20901,-0.86094 2.16997,-0.73516 4.11376,0.53846 1.95384,1.28021 2.66946,2.78656 3.11634,6.55973 0.66855,5.64486 1.99593,8.25662 6.1924,12.1842 3.31358,3.10127 4.5,3.51837 4.5,1.58202 0,-1.93793 5.71333,-4.94137 8.01195,-4.21182 1.09343,0.34704 1.98805,0.99818 1.98805,1.44697 0,0.44879 0.86144,1.04125 1.91432,1.31658 1.05288,0.27534 2.68052,2.01532 3.61697,3.86663 3.21632,6.35844 5.31364,7.86603 10.94302,7.86603 2.81913,0 5.6069,0.48121 6.19504,1.06935 0.59527,0.59527 0.85514,2.96977 0.58617,5.35607 -0.45821,4.0652 -0.23272,4.52673 4.36318,8.93066 2.66549,2.55415 5.13712,4.64392 5.49251,4.64392 0.35538,0 1.19186,-1.31747 1.85884,-2.92771 1.55906,-3.7639 4.10289,-6.03662 7.43248,-6.64039 2.36713,-0.42925 2.86333,0.026 4.68011,4.29397 2.47127,5.8055 10.48564,14.27413 13.50845,14.27413 1.46828,0 2.57012,-0.97498 3.41966,-3.02595 1.33294,-3.21805 5.80435,-6.97405 8.30239,-6.97405 0.82743,0 4.79205,3.6 8.81027,8 4.01822,4.4 7.84851,8 8.51176,8 0.66324,0 1.48282,-1.2375 1.82127,-2.75 z m -143.20165,-161.5 c 0.33009,-2.22658 -0.10652,-4.00099 -1.3865,-5.63486 C 114.84074,287.80345 114,285.27194 114,283.48955 c 0,-3.8089 -4.4796,-14.48957 -6.0771,-14.48957 -1.3138,0 -4.84231,4.03753 -4.88963,5.59501 -0.0183,0.60226 -0.92483,1.90186 -2.01451,2.88801 -1.621374,1.46733 -2.25711,1.56406 -3.500002,0.53255 -2.166979,-1.79844 -1.987814,-2.43459 2.580112,-9.16117 l 4.09888,-6.03586 -3.64182,-7.272 c -4.477873,-8.94145 -5.016709,-12.90758 -1.815603,-13.36381 1.670333,-0.23806 2.533243,0.39774 3.391643,2.49899 3.54178,8.66988 5.06907,11.42172 6.15632,11.09233 0.66644,-0.20189 3.01171,-3.11273 5.21171,-6.46853 3.73916,-5.70358 4.30037,-6.14172 8.60625,-6.71886 l 4.60625,-0.61741 0.75064,-7.23462 c 1.06617,-10.27566 1.20799,-13.06299 0.73701,-14.48463 -0.52267,-1.57764 -14.00351,-1.69998 -21.03993,-0.19094 -9.626448,2.0645 -16.553585,10.77965 -17.042092,21.44094 -0.126007,2.75 -0.623721,6.8 -1.10603,9 -0.48231,2.2 -0.700006,6.475 -0.483769,9.5 0.216237,3.025 0.609,8.52546 0.872806,12.22326 1.076295,15.08649 10.719725,25.53814 23.735365,25.72463 3.35109,0.048 3.67432,-0.20297 4.11831,-3.19789 z m 289.75049,1.65579 c 6.37106,-1.89201 10.27294,-5.66007 13.80411,-13.3307 2.05427,-4.46241 2.60422,-7.56727 3.09972,-17.5 0.57138,-11.45405 0.16849,-17.05982 -2.11839,-29.47466 -0.82241,-4.4646 -1.81686,-6.22179 -5.74312,-10.14805 -5.6317,-5.6317 -11.18087,-7.21341 -23.66981,-6.74674 l -7.87781,0.29436 0.32128,10.5 c 0.36272,11.85475 1.0009,13.11715 6.74758,13.34755 3.45695,0.1386 4.17149,0.69091 7.86673,6.08068 2.23543,3.26053 4.56727,6.09065 5.18189,6.28916 1.08171,0.34938 2.5092,-2.13106 5.73621,-9.96739 1.49003,-3.61833 4.67998,-5.12257 6.07532,-2.86487 0.9856,1.59474 -5.43913,17.38506 -7.62268,18.73456 -0.4426,0.27354 1.21992,3.39398 3.69447,6.9343 4.99262,7.14288 5.15462,7.65717 2.98044,9.46158 -1.24289,1.03151 -1.87863,0.93478 -3.5,-0.53255 -1.08968,-0.98615 -1.99621,-2.28575 -2.01451,-2.88801 -0.0471,-1.55074 -3.5733,-5.59501 -4.87828,-5.59501 -1.80152,0 -7.09762,12.24893 -6.41867,14.84523 0.39577,1.51344 -0.1279,3.28314 -1.53449,5.18564 -1.17441,1.58848 -2.13529,4.25637 -2.13529,5.92864 0,2.7765 0.28812,3.04049 3.3185,3.04049 1.82517,0 5.73423,-0.7174 8.6868,-1.59421 z M 401,261.63365 c 0,-0.78978 -5.9463,-10.08043 -8.67262,-13.55034 -0.18006,-0.22916 -0.58556,-0.15848 -0.90112,0.15707 -0.31555,0.31556 0.18721,2.04523 1.11724,3.84373 1.48687,2.87528 1.53581,3.91678 0.40549,8.6285 -1.13577,4.7344 -1.08251,5.78415 0.4572,9.01298 l 1.74269,3.65446 2.92556,-5.34981 C 399.6835,265.08785 401,262.20939 401,261.63365 Z m -281.4779,6.65919 c 1.20557,-2.88533 1.30545,-4.29498 0.45055,-6.35889 -1.47857,-3.56958 -1.54293,-8.76369 -0.12615,-10.18047 0.63442,-0.63442 1.1535,-1.84499 1.1535,-2.69015 0,-0.84516 -1.56484,0.787 -3.47743,3.62703 -1.91258,2.84003 -3.93758,5.44808 -4.5,5.79567 -1.6892,1.04398 -1.16956,3.99906 1.56292,8.888 1.42203,2.54427 2.76599,4.62595 2.98658,4.62595 0.2206,0 1.09811,-1.66821 1.95003,-3.70714 z"
     id="lvl29"
     inkscape:connector-curvature="0"
     inkscape:label="lvl29" />
</svg>
