<?xml version="1.0" encoding="UTF-8" standalone="no"?>
<!-- Created with Inkscape (http://www.inkscape.org/) -->

<svg
   xmlns:dc="http://purl.org/dc/elements/1.1/"
   xmlns:cc="http://creativecommons.org/ns#"
   xmlns:rdf="http://www.w3.org/1999/02/22-rdf-syntax-ns#"
   xmlns:svg="http://www.w3.org/2000/svg"
   xmlns="http://www.w3.org/2000/svg"
   xmlns:xlink="http://www.w3.org/1999/xlink"
   xmlns:sodipodi="http://sodipodi.sourceforge.net/DTD/sodipodi-0.dtd"
   xmlns:inkscape="http://www.inkscape.org/namespaces/inkscape"
   width="512"
   height="512"
   viewBox="0 0 512 512"
   version="1.1"
   id="svg4511"
   inkscape:version="0.92.1 r15371"
   sodipodi:docname="01.svg">
  <defs
     id="defs4505">
    <linearGradient
       id="linearGradient7793"
       inkscape:collect="always">
      <stop
         id="stop7789"
         offset="0"
         style="stop-color:#000000;stop-opacity:0.07843138" />
      <stop
         id="stop7791"
         offset="1"
         style="stop-color:#000000;stop-opacity:0" />
    </linearGradient>
    <linearGradient
       inkscape:collect="always"
       id="linearGradient4543">
      <stop
         style="stop-color:#000000;stop-opacity:0.07843138"
         offset="0"
         id="stop4539" />
      <stop
         style="stop-color:#000000;stop-opacity:0"
         offset="1"
         id="stop4541" />
    </linearGradient>
    <linearGradient
       inkscape:collect="always"
       xlink:href="#linearGradient7793"
       id="linearGradient7783"
       x1="256"
       y1="423.44562"
       x2="256"
       y2="256"
       gradientUnits="userSpaceOnUse" />
    <linearGradient
       inkscape:collect="always"
       xlink:href="#linearGradient4543"
       id="linearGradient7787"
       gradientUnits="userSpaceOnUse"
       x1="425.15546"
       y1="256"
       x2="256"
       y2="256" />
  </defs>
  <sodipodi:namedview
     id="base"
     pagecolor="#ffffff"
     bordercolor="#666666"
     borderopacity="1.0"
     inkscape:pageopacity="0.0"
     inkscape:pageshadow="2"
     inkscape:zoom="1.979899"
     inkscape:cx="157.58979"
     inkscape:cy="215.4403"
     inkscape:document-units="px"
     inkscape:current-layer="svg4511"
     showgrid="false"
     units="px"
     inkscape:window-width="1920"
     inkscape:window-height="1017"
     inkscape:window-x="1912"
     inkscape:window-y="-8"
     inkscape:window-maximized="1"
     inkscape:snap-global="true"
     showguides="true"
     inkscape:guide-bbox="true" />
  <metadata
     id="metadata4508">
    <rdf:RDF>
      <cc:Work
         rdf:about="">
        <dc:format>image/svg+xml</dc:format>
        <dc:type
           rdf:resource="http://purl.org/dc/dcmitype/StillImage" />
        <dc:title />
      </cc:Work>
    </rdf:RDF>
  </metadata>
  <path
     style="fill:#ffffff;fill-opacity:1;stroke:none;stroke-width:0.26458329px;stroke-linecap:butt;stroke-linejoin:miter;stroke-opacity:1"
     d="m 132.49235,216.85432 5.4689,-20.9141 23.86414,-34.68677 14.91515,-14.28278 25.85284,-12.7525 35.29911,-10.202 h 29.83025 l 19.38962,3.57073 30.3274,9.69188 21.87551,11.22217 21.8755,25.50499 16.40663,27.03528 2.48584,16.32318 14.41795,-2.04037 14.91511,2.55048 7.95474,6.12118 5.96605,11.73234 1.98865,19.89386 -2.48583,30.09587 -8.94909,12.24242 -12.92642,5.101 -19.88681,1.02017 v 27.03531 l -5.96602,19.89386 -12.92647,15.30298 -50.71136,38.25752 -40.76798,19.38379 -15.41229,2.55048 -17.89813,-3.57067 -35.29912,-20.404 -45.2425,-32.13631 -18.89247,-20.40399 -4.47457,-21.93426 -1.98868,-23.97471 -16.90379,-2.0404 -14.915106,-5.10097 -9.44623,-12.7525 -1.988689,-23.97471 3.480177,-27.03527 7.954742,-12.7525 9.446246,-4.59088 z"
     id="lvl25-col10"
     inkscape:connector-curvature="0"
     inkscape:label="lvl25-col10" />
  <path
     sodipodi:nodetypes="ccccccccccccccccccccccccccccccccc"
     style="fill:url(#linearGradient7787);fill-opacity:1;stroke:none;stroke-width:0.26458329px;stroke-linecap:butt;stroke-linejoin:miter;stroke-opacity:1"
     d="m 339.31527,148.50095 21.8755,25.50499 16.40663,27.03528 2.48584,16.32318 14.41795,-2.04037 14.91511,2.55048 7.95474,6.12118 5.96605,11.73234 1.98865,19.89386 -2.48583,30.09587 -8.94909,12.24242 -12.92642,5.101 -19.88681,1.02017 v 27.03531 l -5.96602,19.89386 -12.92647,15.30298 -50.71136,38.25752 -40.76798,19.38379 -15.41229,2.55048 -17.89813,-3.57067 -35.29912,-20.404 -45.2425,-32.13631 -18.89247,-20.40399 -4.47457,-21.93426 -1.98868,-23.97471 -16.90379,-2.0404 -14.915106,-5.10097 -9.44623,-12.7525 -4.488689,-26.83185 4.551606,-27.39242 11.883309,-12.39535 29.80339,-3.16231 C 255.97514,167.32856 243.71486,99.457796 339.31527,148.50095 Z"
     id="lvl29-shadow"
     inkscape:connector-curvature="0"
     inkscape:label="lvl29-shadow" />
  <path
     inkscape:label="lvl29-shadow1"
     inkscape:connector-curvature="0"
     id="lvl29-shadow1"
     d="m 339.31527,148.50095 21.8755,25.50499 16.40663,27.03528 2.48584,16.32318 14.41795,-2.04037 14.91511,2.55048 7.95474,6.12118 5.96605,11.73234 1.98865,19.89386 -2.48583,30.09587 -8.94909,12.24242 -12.92642,5.101 -19.88681,1.02017 v 27.03531 l -5.96602,19.89386 -12.92647,15.30298 -50.71136,38.25752 -40.76798,19.38379 -15.41229,2.55048 -17.89813,-3.57067 -35.29912,-20.404 -45.2425,-32.13631 -18.89247,-20.40399 -4.47457,-21.93426 -1.98868,-23.97471 -16.90379,-2.0404 -14.915106,-5.10097 -9.44623,-12.7525 -4.488689,-26.83185 4.551606,-27.39242 11.883309,-12.39535 29.80339,-3.16231 C 255.97514,167.32856 243.71486,99.457796 339.31527,148.50095 Z"
     style="fill:url(#linearGradient7783);fill-opacity:1;stroke:none;stroke-width:0.26458329px;stroke-linecap:butt;stroke-linejoin:miter;stroke-opacity:1"
     sodipodi:nodetypes="ccccccccccccccccccccccccccccccccc" />
  <path
     style="fill:#000000"
     d="m 250.41768,425.84694 c -3.34528,-0.37896 -8.74528,-1.56391 -12,-2.63322 -8.14063,-2.67453 -26.58367,-11.61309 -32.40736,-15.70646 -2.64329,-1.85793 -7.32581,-4.72271 -10.4056,-6.36618 -5.91517,-3.15651 -18.17106,-11.84972 -27.98329,-19.84879 -3.23321,-2.63576 -8.63321,-6.86238 -12,-9.39249 C 144.56811,363.59334 137.18729,355.69022 134.0833,348.83754 131.08243,342.21251 128,326.20988 128,317.25567 c 0,-9.45777 -0.67935,-10.934 -5.35057,-11.62681 -2.28219,-0.33848 -7.20268,-1.06884 -10.93443,-1.62303 -10.9415,-1.62487 -19.242657,-6.75142 -23.488537,-14.50583 -0.903448,-1.65 -1.668385,-3.225 -1.69986,-3.5 -0.03148,-0.275 -0.365189,-0.98288 -0.741585,-1.57307 -1.404522,-2.20229 -2.770155,-14.27112 -2.777464,-24.54594 -0.009,-12.61376 2.173755,-26.24871 5.101024,-31.8648 2.696265,-5.1729 10.308515,-11.74151 15.141802,-13.06585 3.57881,-0.98062 20.79318,-1.57413 23.57223,-0.81271 0.91089,0.24956 2.00043,-2.28819 3.5,-8.1522 1.66732,-6.51999 3.48593,-10.50234 7.76335,-17 3.07227,-4.66699 6.17406,-9.61043 6.89285,-10.98543 3.15348,-6.03237 20.50708,-25.31306 27.31774,-30.35133 8.88984,-6.57638 12.13245,-8.07217 35.20345,-16.23912 21.9615,-7.77419 44.0948,-10.49248 65,-7.98293 21.50841,2.58196 55.40603,14.64189 68.20567,24.26587 6.80073,5.11343 24.31653,24.54492 27.31959,30.30751 0.71655,1.375 3.80466,6.30254 6.86245,10.95009 4.32085,6.56725 6.03284,10.35516 7.68339,17 1.52776,6.15046 2.51739,8.4519 3.52633,8.20069 2.89954,-0.72195 20.53531,-0.12902 23.74768,0.79841 4.78884,1.38257 11.55001,7.2745 14.59068,12.71484 6.80962,12.18374 7.5718,45.28908 1.36608,59.33597 -4.12592,9.33918 -12.63484,15.24129 -24.51687,17.00583 -3.73175,0.55419 -8.65965,1.28556 -10.9509,1.62529 -4.78902,0.71006 -5.29927,1.72461 -5.32045,10.57883 -0.0229,9.60034 -3.03539,25.65206 -6.09312,32.46717 -2.99613,6.67781 -8.43083,12.79585 -17.92053,20.1738 -3.025,2.35184 -9.1,7.18904 -13.5,10.74932 -10.95288,8.86257 -22.81863,17.32271 -30,21.38963 -3.3,1.86885 -8.025,4.80141 -10.5,6.51682 -5.82422,4.03672 -23.71231,12.70945 -31.87973,15.45633 -8.11428,2.72901 -16.95699,3.76135 -24.70259,2.88392 z m 18.31305,-6.96457 c 2.03069,-1.0353 4.2493,-1.88237 4.93026,-1.88237 1.61425,0 26.3861,-11.77757 28.33901,-13.47355 0.825,-0.71646 3.75,-2.50216 6.5,-3.96821 6.91487,-3.68639 8.29129,-4.53985 14,-8.68076 2.75,-1.99476 6.64125,-4.69573 8.64723,-6.00216 4.13159,-2.69077 22.62368,-17.51806 30.73693,-24.64542 14.50659,-12.74381 18.18046,-23.90885 18.17347,-55.2299 -0.005,-23.25517 -0.94125,-73.14992 -1.59177,-84.84669 -0.2859,-5.14068 -1.18268,-10.93314 -1.99284,-12.87213 C 375.66286,205.3422 375,203.0428 375,202.17141 c 0,-1.81554 -9.82864,-18.67145 -14.42204,-24.73348 -11.07958,-14.62201 -22.25528,-25.40055 -32.22203,-31.07694 -7.42961,-4.23139 -30.29552,-11.80918 -47.66798,-15.79721 -9.42586,-2.16381 -38.95004,-2.16381 -48.3759,0 -24.34858,5.58948 -43.85691,12.66473 -53.81205,19.51648 -11.08598,7.63006 -30.00095,30.45129 -37.90083,45.72796 -2.4383,4.71516 -5.31602,14.83611 -6.02552,21.19178 -0.69944,6.26561 -1.77837,60.55041 -1.73909,87.5 0.0413,28.36236 2.83718,39.60619 12.5541,50.48806 3.36124,3.76421 6.44542,6.8818 6.85373,6.92798 0.40832,0.0462 1.75832,0.93446 3,1.97396 1.24169,1.0395 6.08261,4.95984 10.75761,8.71187 4.675,3.75203 9.13436,7.44125 9.9097,8.19827 0.77533,0.75701 3.25033,2.53537 5.5,3.95189 2.24966,1.41652 6.3403,4.24626 9.0903,6.2883 2.75,2.04204 7.7,5.17294 11,6.95756 3.3,1.78462 8.25,4.67411 11,6.42107 7.36888,4.68116 33.4233,15.83224 39.5,16.90568 4.32864,0.76465 12.89259,-0.48548 16.73073,-2.44227 z M 126.79434,296.25 c -0.15469,-3.62955 1.2587,-65.68503 1.63419,-71.75 0.3251,-5.2509 -0.0592,-5.5 -8.4863,-5.5 -11.32238,0 -16.96842,1.4746 -21.940121,5.73019 -4.94702,4.23447 -7.564736,9.80254 -7.883981,16.76981 -0.126007,2.75 -0.623721,6.8 -1.10603,9 -0.48231,2.2 -0.700006,6.475 -0.483769,9.5 0.216237,3.025 0.609,8.52546 0.872806,12.22326 1.137626,15.94617 10.850505,25.64428 25.886375,25.84703 2.86687,0.0387 6.11249,0.45702 7.21249,0.92971 3.74945,1.6112 4.4608,1.15567 4.29434,-2.75 z m -11.14667,-15.38737 c -1.01878,-0.5921 -2.92561,-3.50341 -4.23739,-6.46959 C 110.0985,271.42687 108.52918,269 107.9229,269 c -1.3138,0 -4.84231,4.03753 -4.88963,5.59501 -0.0183,0.60226 -0.92483,1.90186 -2.01451,2.88801 -1.621374,1.46733 -2.25711,1.56406 -3.500002,0.53255 -2.166979,-1.79844 -1.987814,-2.43459 2.580112,-9.16117 l 4.09888,-6.03586 -3.64182,-7.272 c -4.477873,-8.94145 -5.016709,-12.90758 -1.815603,-13.36381 1.670333,-0.23806 2.533243,0.39774 3.391643,2.49899 3.54178,8.66988 5.06907,11.42172 6.15632,11.09233 0.66644,-0.20189 3.01171,-3.14603 5.21171,-6.54253 2.87011,-4.43105 4.61889,-6.18337 6.19098,-6.20348 1.20504,-0.0154 2.42172,0.3453 2.70373,0.80161 0.53514,0.86587 -7.56396,13.53889 -9.36306,14.65079 -1.82284,1.12658 -1.12563,3.72775 3.34123,12.46558 5.17531,10.12366 4.94927,13.21454 -0.72521,9.91661 z M 398,298.00008 c 13.40588,-1.40413 18.35375,-4.76356 23.22066,-15.76602 2.47124,-5.58665 3.82809,-24.99906 2.42777,-34.73406 -2.23044,-15.50593 -2.59629,-16.5431 -7.60081,-21.54762 -5.6317,-5.6317 -11.18087,-7.21341 -23.66981,-6.74674 L 384.5,219.5 l 0.0869,4 c 0.0478,2.2 0.44179,18.625 0.8755,36.5 0.43372,17.875 0.73864,34.23827 0.6776,36.36283 -0.10242,3.56495 0.0614,3.80731 2.1245,3.14281 1.22951,-0.39601 5.61047,-1.07351 9.73547,-1.50556 z m -5.55502,-17.28286 c -0.27073,-0.70552 1.54339,-5.05855 4.03139,-9.67339 2.488,-4.61483 4.51492,-8.87508 4.50428,-9.46722 -0.0106,-0.59214 -2.48872,-4.65103 -5.50684,-9.01977 -5.34716,-7.74003 -5.83493,-10.1582 -1.896,-9.39963 0.98463,0.18962 3.61993,3.01203 5.85622,6.27201 2.23628,3.25999 4.56883,6.08966 5.18345,6.28817 1.08171,0.34938 2.5092,-2.13106 5.73621,-9.96739 1.49003,-3.61833 4.67998,-5.12257 6.07532,-2.86487 0.9856,1.59474 -5.43913,17.38506 -7.62268,18.73456 -0.4426,0.27354 1.21992,3.39398 3.69447,6.9343 4.99262,7.14288 5.15462,7.65717 2.98044,9.46158 -1.24289,1.03151 -1.87863,0.93478 -3.5,-0.53255 -1.08968,-0.98615 -1.99621,-2.28575 -2.01451,-2.88801 C 409.91865,273.0126 406.38151,269 405.03468,269 c -0.62961,0 -2.22837,2.45028 -3.5528,5.44507 -2.86592,6.48035 -7.67593,9.81878 -9.0369,6.27215 z"
     id="lvl29"
     inkscape:connector-curvature="0"
     inkscape:label="lvl29" />
</svg>
