<?xml version="1.0" encoding="UTF-8" standalone="no"?>
<!-- Created with Inkscape (http://www.inkscape.org/) -->

<svg
   xmlns:dc="http://purl.org/dc/elements/1.1/"
   xmlns:cc="http://creativecommons.org/ns#"
   xmlns:rdf="http://www.w3.org/1999/02/22-rdf-syntax-ns#"
   xmlns:svg="http://www.w3.org/2000/svg"
   xmlns="http://www.w3.org/2000/svg"
   xmlns:xlink="http://www.w3.org/1999/xlink"
   xmlns:sodipodi="http://sodipodi.sourceforge.net/DTD/sodipodi-0.dtd"
   xmlns:inkscape="http://www.inkscape.org/namespaces/inkscape"
   width="512"
   height="512"
   viewBox="0 0 512 512"
   version="1.1"
   id="svg5076"
   inkscape:version="0.92.1 r15371"
   sodipodi:docname="02.svg">
  <defs
     id="defs5070">
    <linearGradient
       inkscape:collect="always"
       id="linearGradient4491">
      <stop
         style="stop-color:#000000;stop-opacity:0"
         offset="0"
         id="stop4487" />
      <stop
         style="stop-color:#000000;stop-opacity:0.07843138"
         offset="1"
         id="stop4489" />
    </linearGradient>
    <linearGradient
       inkscape:collect="always"
       xlink:href="#linearGradient4491"
       id="linearGradient4493"
       x1="256"
       y1="256"
       x2="424.23639"
       y2="256"
       gradientUnits="userSpaceOnUse" />
    <linearGradient
       inkscape:collect="always"
       xlink:href="#linearGradient4491"
       id="linearGradient4499"
       gradientUnits="userSpaceOnUse"
       x1="256"
       y1="256"
       x2="256"
       y2="426.37057" />
  </defs>
  <sodipodi:namedview
     id="base"
     pagecolor="#ffffff"
     bordercolor="#666666"
     borderopacity="1.0"
     inkscape:pageopacity="0.0"
     inkscape:pageshadow="2"
     inkscape:zoom="1.979899"
     inkscape:cx="209.91192"
     inkscape:cy="179.34653"
     inkscape:document-units="px"
     inkscape:current-layer="svg5076"
     showgrid="false"
     units="px"
     inkscape:window-width="1920"
     inkscape:window-height="1017"
     inkscape:window-x="1912"
     inkscape:window-y="-8"
     inkscape:window-maximized="1"
     inkscape:snap-global="true"
     showguides="true"
     inkscape:guide-bbox="true" />
  <metadata
     id="metadata5073">
    <rdf:RDF>
      <cc:Work
         rdf:about="">
        <dc:format>image/svg+xml</dc:format>
        <dc:type
           rdf:resource="http://purl.org/dc/dcmitype/StillImage" />
        <dc:title />
      </cc:Work>
    </rdf:RDF>
  </metadata>
  <path
     style="fill:#ffffff;fill-opacity:1;stroke:none;stroke-width:0.26458332px;stroke-linecap:butt;stroke-linejoin:miter;stroke-opacity:1"
     d="m 129.25887,303.36369 -16.79421,-1.79557 -15.007592,-4.30939 -11.791669,-12.92812 -0.357346,-37.348 5.359853,-19.39223 9.647744,-10.05521 20.36744,-2.15472 10.00505,0.35914 7.14651,-21.18782 17.15153,-27.29273 19.29548,-19.39223 26.08461,-12.56903 33.23112,-10.05525 0.35734,0.71823 37.16166,-0.71823 34.30308,7.90054 35.01774,16.51931 15.00759,15.44195 17.50887,25.4972 8.21839,20.46957 1.07197,6.46407 21.79675,-1.43648 15.0076,7.54144 7.86112,13.28727 0.35734,26.57453 -2.50123,19.39224 -11.43436,15.44193 -30.37254,5.38674 v 28.72924 l -5.0025,14.72371 -11.07701,20.11047 -13.93563,21.54691 -22.15407,15.80108 -23.22607,11.49169 -36.08969,8.97789 -25.36996,0.35913 -24.65533,-3.23202 -28.94323,-13.6464 -28.94323,-17.95576 -16.43687,-15.08284 -12.50632,-21.90601 -6.07451,-29.80659 z"
     id="lvl25-col10"
     inkscape:connector-curvature="0"
     inkscape:label="lvl25-col10" />
  <path
     style="fill:url(#linearGradient4499);fill-opacity:1;stroke:none;stroke-width:0.26458332px;stroke-linecap:butt;stroke-linejoin:miter;stroke-opacity:1"
     d="m 129.25887,303.36369 -16.79421,-1.79557 -15.007592,-4.30939 -11.791669,-12.92812 -0.357346,-37.348 5.359853,-19.39223 9.647744,-10.05521 20.36744,-2.15472 10.00505,0.35914 7.14651,-21.18782 17.15153,-27.29273 19.29548,-19.39223 26.08461,-12.56903 33.23112,-10.05525 0.35734,0.71823 37.16166,-0.71823 34.30308,7.90054 35.01774,16.51931 15.00759,15.44195 17.50887,25.4972 8.21839,20.46957 1.07197,6.46407 21.79675,-1.43648 15.0076,7.54144 7.86112,13.28727 0.35734,26.57453 -2.50123,19.39224 -11.43436,15.44193 -30.37254,5.38674 v 28.72924 l -5.0025,14.72371 -11.07701,20.11047 -13.93563,21.54691 -22.15407,15.80108 -23.22607,11.49169 -36.08969,8.97789 -25.36996,0.35913 -24.65533,-3.23202 -28.94323,-13.6464 -28.94323,-17.95576 -16.43687,-15.08284 -12.50632,-21.90601 -6.07451,-29.80659 z"
     id="lvl29-shadow-1"
     inkscape:connector-curvature="0"
     inkscape:label="lvl29-shadow-1" />
  <path
     inkscape:label="lvl29-shadow"
     inkscape:connector-curvature="0"
     id="lvl29-shadow"
     d="m 129.25887,303.36369 -16.79421,-1.79557 -15.007592,-4.30939 -11.791669,-12.92812 -0.357346,-37.348 5.359853,-19.39223 9.647744,-10.05521 20.36744,-2.15472 10.00505,0.35914 7.14651,-21.18782 17.15153,-27.29273 19.29548,-19.39223 26.08461,-12.56903 33.23112,-10.05525 0.35734,0.71823 37.16166,-0.71823 34.30308,7.90054 35.01774,16.51931 15.00759,15.44195 17.50887,25.4972 8.21839,20.46957 1.07197,6.46407 21.79675,-1.43648 15.0076,7.54144 7.86112,13.28727 0.35734,26.57453 -2.50123,19.39224 -11.43436,15.44193 -30.37254,5.38674 v 28.72924 l -5.0025,14.72371 -11.07701,20.11047 -13.93563,21.54691 -22.15407,15.80108 -23.22607,11.49169 -36.08969,8.97789 -25.36996,0.35913 -24.65533,-3.23202 -28.94323,-13.6464 -28.94323,-17.95576 -16.43687,-15.08284 -12.50632,-21.90601 -6.07451,-29.80659 z"
     style="fill:url(#linearGradient4493);fill-opacity:1;stroke:none;stroke-width:0.26458332px;stroke-linecap:butt;stroke-linejoin:miter;stroke-opacity:1" />
  <path
     style="fill:#000000"
     d="m 249.69817,427.3648 c -0.21639,-0.21638 -3.9495,-0.42437 -8.2958,-0.4622 -13.49583,-0.11745 -20.35488,-2.28614 -42.08078,-13.30506 -8.23904,-4.17866 -15.31333,-7.59757 -15.72065,-7.59757 -0.40733,0 -2.70275,-1.35 -5.10094,-3 -2.39819,-1.65 -4.67951,-3 -5.06959,-3 -1.33056,0 -14.91481,-11.33878 -21.50254,-17.94819 -9.50041,-9.53167 -19.41636,-27.45467 -22.43541,-40.55181 -0.76069,-3.3 -1.69527,-12.58491 -2.07684,-20.63314 l -0.69376,-14.63314 -4.11093,-0.61014 c -2.26101,-0.33558 -7.16418,-1.06356 -10.89593,-1.61775 -10.9415,-1.62487 -19.242657,-6.75142 -23.488537,-14.50583 -0.903448,-1.65 -1.668385,-3.225 -1.69986,-3.5 -0.03148,-0.275 -0.373487,-0.99631 -0.760025,-1.60291 -1.845726,-2.89652 -2.981977,-16.81838 -2.44009,-29.89709 0.575326,-13.88575 1.918328,-21.01676 5.127076,-27.2235 2.297095,-4.44331 10.271473,-11.08619 14.796816,-12.32616 3.57881,-0.98062 20.79318,-1.57413 23.57223,-0.81271 0.91089,0.24956 2.00043,-2.28819 3.5,-8.1522 1.67062,-6.53287 3.48264,-10.49539 7.78552,-17.02531 3.08447,-4.68091 6.30835,-9.84935 7.16417,-11.48543 3.12741,-5.97866 20.50671,-25.12061 27.3265,-30.09802 8.65181,-6.31451 12.13516,-7.90813 34.9012,-15.96712 27.39542,-9.69776 52.93257,-11.40473 79.5,-5.31399 11.27015,2.58375 15.8888,4.09777 32.5,10.65367 15.59925,6.15653 25.19929,12.48374 32.69807,21.55073 2.36536,2.86002 5.33364,6.32504 6.59617,7.70004 3.84477,4.18727 7.98532,10.00506 14.94581,21 5.22718,8.25696 7.10727,12.31579 8.80099,19 1.54542,6.09893 2.55002,8.40135 3.55639,8.15078 2.89954,-0.72195 20.53531,-0.12902 23.74768,0.79841 4.72412,1.36388 11.53692,7.25108 14.47557,12.50888 3.45109,6.17468 4.75705,12.89947 5.41179,27.86697 1.36924,31.3015 -6.91831,45.48359 -28.44747,48.68079 -3.73175,0.55419 -8.65965,1.28556 -10.9509,1.62529 -4.84431,0.71826 -5.40216,1.88002 -4.30325,8.9618 0.82156,5.29444 -0.278,18.58027 -2.04163,24.66865 -1.04171,3.59617 -2.54464,6.62183 -12.74055,25.6489 -10.75682,20.07381 -24.24836,33.1471 -46.06443,44.63639 -11.31335,5.9581 -24.10771,11.10107 -30.79656,12.37935 -3.23822,0.61884 -7.46268,1.53519 -9.38768,2.03634 -9.8041,2.55235 -13.39502,3.07011 -23.7042,3.41782 -6.16231,0.20784 -11.38125,0.20085 -11.59763,-0.0155 z M 275.5,420.54403 c 4.95,-0.78104 11.7,-2.17152 15,-3.08996 3.3,-0.91843 7.62021,-2.05848 9.60047,-2.53343 6.35367,-1.52389 24.54659,-9.86062 30.3443,-13.90499 2.23038,-1.55587 6.06669,-4.064 8.52514,-5.57363 11.23118,-6.8966 19.84623,-17.62787 31.02949,-38.65164 10.52184,-19.78036 12.44322,-27.56082 10.93752,-44.29041 -0.44551,-4.95 -1.09572,-27.675 -1.44492,-50.5 -0.79758,-52.13322 -1.3523,-55.81697 -10.84223,-72 -11.179,-19.06339 -26.74665,-35.92345 -40.29384,-43.63901 -7.42961,-4.23139 -30.29552,-11.80918 -47.66798,-15.79721 -9.42586,-2.16381 -38.95004,-2.16381 -48.3759,0 -24.34858,5.58948 -43.85691,12.66473 -53.81205,19.51648 -11.08598,7.63006 -30.00095,30.45129 -37.90083,45.72796 -2.43738,4.71338 -5.31565,14.83437 -6.02664,21.19178 -0.77183,6.90136 -1.8489,61.40941 -1.8673,94.5 -0.0158,28.37729 0.0452,28.68846 9.37661,47.82165 6.02224,12.34809 7.74784,14.58392 18.05177,23.38951 10.79895,9.22861 16.99855,13.64671 24.12328,17.1913 3.16629,1.57525 6.31629,3.2726 7,3.7719 0.68371,0.4993 6.41811,3.29464 12.74311,6.21186 6.325,2.91723 12.19947,5.66008 13.05438,6.09522 1.50503,0.76605 10.71206,3.02501 19.94562,4.89368 7.02539,1.42178 28.56483,1.23656 38.5,-0.33106 z M 126.81731,290.24997 c 0.1026,-5.3625 0.45889,-21.675 0.79177,-36.25 0.61892,-27.09966 0.68476,-31.56346 0.4978,-33.75 -0.13559,-1.58574 -13.8596,-1.71084 -20.94666,-0.19094 -9.626611,2.06454 -16.553969,10.78013 -17.041772,21.44094 -0.125831,2.75 -0.609689,6.70337 -1.07524,8.78526 -0.786138,3.51551 -0.625429,12.60246 0.423821,23.96419 0.508927,5.51087 2.719432,10.72952 6.753151,15.94312 3.458335,4.46992 11.45828,7.77511 19.06733,7.87772 2.86687,0.0387 6.11249,0.45702 7.21249,0.92971 3.90724,1.679 4.12627,1.23509 4.31731,-8.75 z m -11.16964,-9.38737 c -1.01878,-0.5921 -2.92561,-3.50341 -4.23739,-6.46959 -1.31178,-2.96617 -2.8811,-5.39304 -3.48738,-5.39304 -1.3138,0 -4.84231,4.03753 -4.88963,5.59501 -0.0183,0.60226 -0.92483,1.90186 -2.01451,2.88801 -1.621374,1.46733 -2.25711,1.56406 -3.500002,0.53255 -2.166979,-1.79844 -1.987814,-2.43459 2.580112,-9.16117 l 4.09888,-6.03586 -3.64182,-7.272 c -4.477873,-8.94145 -5.016709,-12.90758 -1.815603,-13.36381 1.670333,-0.23806 2.533243,0.39774 3.391643,2.49899 3.09659,7.58012 4.94327,11.31828 5.59132,11.31828 1.07548,0 5.14178,-4.98762 7.52859,-9.23437 2.03043,-3.61266 5.7737,-5.15129 7.14283,-2.93598 0.53514,0.86587 -7.56396,13.53889 -9.36306,14.65079 -1.82284,1.12658 -1.12563,3.72775 3.34123,12.46558 5.17531,10.12366 4.94927,13.21454 -0.72521,9.91661 z M 398,298.00005 c 12.683,-1.32841 17.49547,-4.27047 22.32467,-13.64798 2.58993,-5.02921 3.57697,-11.13751 3.69741,-22.88144 0.14365,-14.00603 -2.05198,-28.29954 -4.97841,-32.40933 -5.41254,-7.60121 -12.88473,-10.36812 -26.61816,-9.85655 l -7.92551,0.29522 0.0797,4 c 0.0438,2.2 0.43781,18.625 0.87554,36.5 0.43772,17.875 0.7459,34.23827 0.68485,36.36283 -0.10245,3.56495 0.0614,3.80731 2.12447,3.14281 1.22951,-0.39601 5.61047,-1.07351 9.73547,-1.50556 z m -5.55502,-17.28286 c -0.27073,-0.70552 1.54339,-5.05855 4.03139,-9.67339 2.488,-4.61483 4.52363,-8.9269 4.52363,-9.58236 0,-0.65546 -1.0125,-2.47266 -2.25,-4.03821 -4.52353,-5.72267 -8.61517,-12.94488 -7.79953,-13.76704 1.79417,-1.80851 4.58605,0.0914 8.48356,5.773 2.23628,3.25999 4.56144,6.0872 5.16702,6.2827 0.60558,0.1955 2.51631,-2.80971 4.24607,-6.67824 2.3352,-5.22259 3.6458,-7.03368 5.08993,-7.03368 1.0697,0 2.21559,0.43796 2.54642,0.97325 0.717,1.16013 -4.01181,13.47597 -6.53297,17.01465 -1.75349,2.46117 -1.72515,2.55567 2.63849,8.79791 4.9155,7.03168 5.04455,7.44351 2.89225,9.22976 -1.24289,1.03151 -1.87863,0.93478 -3.5,-0.53255 -1.08968,-0.98615 -1.99621,-2.28575 -2.01451,-2.88801 -0.0468,-1.54141 -3.56982,-5.59501 -4.86263,-5.59501 -0.59142,0 -2.40968,2.64337 -4.04058,5.87416 -2.69406,5.33691 -4.49576,7.12584 -7.17669,7.12584 -0.52228,0 -1.17111,-0.57725 -1.44185,-1.28278 z"
     id="lvl29"
     inkscape:connector-curvature="0"
     inkscape:label="lvl29" />
</svg>
