<?xml version="1.0" encoding="UTF-8" standalone="no"?>
<!-- Created with Inkscape (http://www.inkscape.org/) -->

<svg
   xmlns:dc="http://purl.org/dc/elements/1.1/"
   xmlns:cc="http://creativecommons.org/ns#"
   xmlns:rdf="http://www.w3.org/1999/02/22-rdf-syntax-ns#"
   xmlns:svg="http://www.w3.org/2000/svg"
   xmlns="http://www.w3.org/2000/svg"
   xmlns:xlink="http://www.w3.org/1999/xlink"
   xmlns:sodipodi="http://sodipodi.sourceforge.net/DTD/sodipodi-0.dtd"
   xmlns:inkscape="http://www.inkscape.org/namespaces/inkscape"
   width="512"
   height="512"
   viewBox="0 0 512 512"
   version="1.1"
   id="svg5641"
   inkscape:version="0.92.1 r15371"
   sodipodi:docname="03.svg">
  <defs
     id="defs5635">
    <linearGradient
       inkscape:collect="always"
       id="linearGradient4501">
      <stop
         style="stop-color:#000000;stop-opacity:0"
         offset="0"
         id="stop4497" />
      <stop
         style="stop-color:#000000;stop-opacity:0.07843138"
         offset="1"
         id="stop4499" />
    </linearGradient>
    <linearGradient
       inkscape:collect="always"
       xlink:href="#linearGradient4501"
       id="linearGradient4503"
       x1="256"
       y1="256"
       x2="423.38675"
       y2="256"
       gradientUnits="userSpaceOnUse" />
    <linearGradient
       inkscape:collect="always"
       xlink:href="#linearGradient4501"
       id="linearGradient4507"
       gradientUnits="userSpaceOnUse"
       x1="256"
       y1="256"
       x2="256"
       y2="421.66501" />
  </defs>
  <sodipodi:namedview
     id="base"
     pagecolor="#ffffff"
     bordercolor="#666666"
     borderopacity="1.0"
     inkscape:pageopacity="0.0"
     inkscape:pageshadow="2"
     inkscape:zoom="1.979899"
     inkscape:cx="282.00543"
     inkscape:cy="220.02412"
     inkscape:document-units="px"
     inkscape:current-layer="svg5641"
     showgrid="false"
     units="px"
     inkscape:window-width="1920"
     inkscape:window-height="1017"
     inkscape:window-x="1912"
     inkscape:window-y="-8"
     inkscape:window-maximized="1"
     showguides="true"
     inkscape:guide-bbox="true" />
  <metadata
     id="metadata5638">
    <rdf:RDF>
      <cc:Work
         rdf:about="">
        <dc:format>image/svg+xml</dc:format>
        <dc:type
           rdf:resource="http://purl.org/dc/dcmitype/StillImage" />
        <dc:title />
      </cc:Work>
    </rdf:RDF>
  </metadata>
  <path
     style="fill:#ffffff;fill-opacity:1;stroke:none;stroke-width:0.26458332px;stroke-linecap:butt;stroke-linejoin:miter;stroke-opacity:1"
     d="m 128.31269,303.55595 -21.76324,-3.02404 -11.134653,-4.53603 -11.134693,-14.61616 0.506141,-32.76029 4.048979,-21.16826 11.134657,-9.07207 9.616309,-2.52001 19.73875,0.50398 4.55508,-18.14418 18.72651,-30.7443 23.2816,-21.67225 45.5509,-16.12815 29.86117,-5.54405 26.31832,2.52001 33.40404,10.58412 21.76321,9.57609 22.77549,21.16821 19.73872,31.24834 6.07346,18.14418 17.20813,-1.00802 15.68977,5.04006 9.11021,13.10412 2.53059,39.31241 -7.59182,19.65621 -16.70202,8.56809 -20.24486,2.01602 -1.01224,56.95259 -2.02449,35.78437 -21.76321,19.65618 -22.77549,7.05608 -158.92213,-0.50399 -30.3673,-12.09614 -14.67754,-18.64816 -2.02448,-60.48066 z"
     id="lvl25-col10"
     inkscape:connector-curvature="0"
     inkscape:label="lvl25-col10" />
  <path
     style="fill:url(#linearGradient4507);fill-opacity:1;stroke:none;stroke-width:0.26458332px;stroke-linecap:butt;stroke-linejoin:miter;stroke-opacity:1"
     d="m 128.31269,303.55595 -21.76324,-3.02404 -11.134653,-4.53603 -11.134693,-14.61616 0.506141,-32.76029 4.048979,-21.16826 11.134657,-9.07207 9.616309,-2.52001 19.73875,0.50398 4.55508,-18.14418 18.72651,-30.7443 23.2816,-21.67225 45.5509,-16.12815 29.86117,-5.54405 26.31832,2.52001 33.40404,10.58412 21.76321,9.57609 22.77549,21.16821 19.73872,31.24834 6.07346,18.14418 17.20813,-1.00802 15.68977,5.04006 9.11021,13.10412 2.53059,39.31241 -7.59182,19.65621 -16.70202,8.56809 -20.24486,2.01602 -1.01224,56.95259 -2.02449,35.78437 -21.76321,19.65618 -22.77549,7.05608 -158.92213,-0.50399 -30.3673,-12.09614 -14.67754,-18.64816 -2.02448,-60.48066 z"
     id="lvl29-shadow-1"
     inkscape:connector-curvature="0"
     inkscape:label="lvl29-shadow-1" />
  <path
     inkscape:label="lvl29-shadow"
     inkscape:connector-curvature="0"
     id="lvl29-shadow"
     d="m 128.31269,303.55595 -21.76324,-3.02404 -11.134653,-4.53603 -11.134693,-14.61616 0.506141,-32.76029 4.048979,-21.16826 11.134657,-9.07207 9.616309,-2.52001 19.73875,0.50398 4.55508,-18.14418 18.72651,-30.7443 23.2816,-21.67225 45.5509,-16.12815 29.86117,-5.54405 26.31832,2.52001 33.40404,10.58412 21.76321,9.57609 22.77549,21.16821 19.73872,31.24834 6.07346,18.14418 17.20813,-1.00802 15.68977,5.04006 9.11021,13.10412 2.53059,39.31241 -7.59182,19.65621 -16.70202,8.56809 -20.24486,2.01602 -1.01224,56.95259 -2.02449,35.78437 -21.76321,19.65618 -22.77549,7.05608 -158.92213,-0.50399 -30.3673,-12.09614 -14.67754,-18.64816 -2.02448,-60.48066 z"
     style="fill:url(#linearGradient4503);fill-opacity:1;stroke:none;stroke-width:0.26458332px;stroke-linecap:butt;stroke-linejoin:miter;stroke-opacity:1" />
  <path
     style="fill:#000000"
     d="m 235.5,426.81357 c -2.75,-0.39022 -16.475,-0.93672 -30.5,-1.21443 -14.025,-0.27772 -28.08253,-0.79475 -31.23896,-1.14896 -7.32627,-0.82215 -18.71058,-5.09706 -25.76104,-9.67351 -16.54556,-10.7397 -21.90369,-21.66691 -20.97547,-42.7767 0.39361,-8.95129 0.40659,-34.47767 0.0301,-59.14333 l -0.10141,-6.64332 -3.7266,-0.59014 c -2.04963,-0.32458 -6.95293,-1.02167 -10.89622,-1.5491 -12.08539,-1.61646 -21.253448,-7.71925 -25.353346,-16.87667 -5.955763,-13.30262 -5.321815,-45.68243 1.152717,-58.87676 5.747913,-11.71358 11.778316,-14.50212 31.846109,-14.72608 l 8.47586,-0.0946 1.65211,-7.10924 c 1.91997,-8.26188 2.36162,-9.18442 10.59791,-22.13744 12.48351,-19.6325 28.36274,-36.66291 39.48188,-42.34413 7.31068,-3.73532 27.22082,-11.05706 38.15271,-14.03024 6.14002,-1.66992 12.94186,-3.55279 15.11521,-4.18416 2.36035,-0.68569 11.42056,-1.13737 22.5,-1.12169 16.84295,0.0238 19.5599,0.27885 29.54846,2.77344 22.86316,5.70995 45.0848,14.59315 54.8014,21.90709 6.82596,5.13809 24.76315,25.05682 27.68768,30.74637 0.70678,1.375 3.68221,6.16436 6.61208,10.64302 4.02449,6.15194 5.84452,10.20633 7.44345,16.58145 l 2.11642,8.43845 11.16948,0.13521 c 13.26211,0.16055 16.46574,0.97456 22.14247,5.62622 6.41969,5.26045 9.96236,12.83575 11.15626,23.85549 2.78455,25.70153 -0.2194,44.16468 -8.47152,52.06827 -4.03131,3.86105 -11.42293,7.43123 -16.82091,8.12456 -11.59675,1.48952 -17.32796,2.92494 -17.80285,4.45885 -0.84349,2.72451 -1.54275,23.98993 -1.30111,39.56848 0.67372,43.43507 0.16127,47.90387 -6.49147,56.60799 -7.72127,10.10215 -23.56395,19.01352 -38.74138,21.79168 -7.30417,1.337 -95.05773,2.11188 -103.5,0.91393 z m 74.5,-5.9766 c 3.025,-0.0185 7.975,8.8e-4 11,0.043 8.75006,0.12175 21.32045,-0.85631 23.5,-1.82847 1.1,-0.49064 4.63465,-2.04963 7.85477,-3.46443 7.18929,-3.1587 16.27651,-9.7383 19.93842,-14.43639 5.54429,-7.11314 5.96112,-10.35276 6.45265,-50.15069 0.67896,-54.9749 0.26484,-121.30237 -0.82416,-132.00026 -1.06876,-10.49896 -2.63045,-16.5484 -5.95372,-23.06254 -2.65591,-5.20601 -11.9419,-19.58892 -14.57874,-22.58076 C 356.35015,172.17747 353.025,168.32602 350,164.79764 336.95194,149.5783 324.37319,142.2778 299.41804,135.44072 273.55789,128.35568 275.76836,128.69313 255.5,128.73625 c -17.55438,0.0374 -19.68477,0.242 -28,2.68973 -4.95,1.45711 -10.8,3.09665 -13,3.64342 -10.30914,2.56214 -25.89127,8.38639 -31.48372,11.76792 -3.40018,2.05595 -8.9144,6.19612 -12.25383,9.20038 -6.43952,5.79321 -20.76054,23.10537 -23.44335,28.33983 -0.88019,1.71735 -2.82078,4.92246 -4.31241,7.12246 -3.53486,5.21355 -6.96201,14.48058 -8.13608,22 -1.28273,8.21535 -2.44723,65.12717 -1.88246,92 0.50697,24.1228 0.57303,50.19455 0.1685,66.50184 -0.26736,10.77777 1.13569,18.94317 4.23299,24.635 4.89498,8.99537 23.00639,19.92302 36.11036,21.78744 2.2,0.31302 15.7,0.81865 30,1.12364 14.3,0.30498 27.8,0.89629 30,1.31401 2.2,0.41773 19.075,0.59056 37.5,0.38406 18.425,-0.20649 35.975,-0.39054 39,-0.40899 z m -183.95686,-121.587 c 0.74057,-12.87551 2.20848,-69.35767 1.98068,-76.21229 -0.0633,-1.90426 -0.28103,-3.62825 -0.48387,-3.83109 -0.84591,-0.84591 -18.02304,-0.15363 -21.86637,0.88128 -5.40728,1.45603 -12.871895,8.92773 -14.398419,14.4121 -3.997503,14.36189 -3.579222,40.1675 0.792972,48.92197 4.962158,9.93576 12.350777,14.4712 23.863367,14.64832 2.51268,0.0387 5.4685,0.45702 6.5685,0.92971 2.58795,1.11208 3.48989,1.17572 3.54314,0.25 z m -9.84189,-18.35322 c -1.44315,-0.54518 -3.1913,-2.88659 -4.69673,-6.29065 -1.31889,-2.98224 -2.85495,-5.70467 -3.41346,-6.04985 -0.55852,-0.34518 -2.24417,1.30094 -3.7459,3.65806 -3.34956,5.25745 -5.114993,6.81121 -6.942359,6.10999 -2.121459,-0.81408 -1.702307,-3.02499 1.449203,-7.64415 5.478816,-8.0303 5.477996,-8.02515 2.242906,-14.00475 -4.301791,-7.95126 -5.452965,-12.75323 -3.513596,-14.65652 1.386806,-1.361 1.74893,-1.27348 3.483196,0.84187 1.06452,1.29844 1.93549,2.90141 1.93549,3.56217 0,1.60524 3.8815,9.57705 4.6631,9.57705 0.82754,0 2.81297,-2.53148 6.47043,-8.25 2.24882,-3.51608 3.66517,-4.75 5.45224,-4.75 1.44222,0 2.41423,0.58375 2.41423,1.44987 0,1.49852 -4.66809,8.9698 -8.62729,13.80799 l -2.25682,2.75787 4.42534,8.24213 c 5.67965,10.57824 5.851,13.59991 0.66002,11.63892 z M 397,298.04351 c 7.82891,-0.74611 16.28712,-3.82189 18.7046,-6.8018 0.77715,-0.95796 2.74263,-4.47663 4.36774,-7.81927 2.53214,-5.20826 3.0465,-7.68112 3.59624,-17.28925 0.62344,-10.89631 -0.47545,-23.60117 -2.81292,-32.52167 -0.62398,-2.3813 -2.69789,-5.54367 -5.35068,-8.1589 -5.23463,-5.16052 -11.09489,-6.75947 -23.00498,-6.27684 l -8,0.32419 0.40447,28.5 c 0.22246,15.675 0.50194,29.85 0.62106,31.5 0.11911,1.65 0.2746,6.98564 0.34552,11.85699 0.11676,8.01965 0.29439,8.78818 1.87895,8.12916 0.9625,-0.40031 5.125,-1.04948 9.25,-1.44261 z m -4.57735,-17.38452 c -0.28302,-0.73754 1.55678,-5.44811 4.08844,-10.46795 l 4.60302,-9.12698 -4.30705,-6.25525 c -2.36888,-3.44039 -4.86956,-6.86196 -5.55706,-7.60348 -1.82344,-1.96672 -1.52967,-3.89896 0.68067,-4.47698 2.15237,-0.56286 4.94905,2.01465 7.34998,6.77398 0.83302,1.6513 2.39614,3.80015 3.47359,4.77523 2.3947,2.16718 2.99864,1.54153 6.25939,-6.48433 2.31029,-5.68645 4.46455,-7.71508 6.27273,-5.9069 1.13167,1.13167 -1.01146,11.11364 -2.3861,11.11364 -0.49514,0 -0.90026,0.71803 -0.90026,1.59563 0,0.8776 -0.95975,2.94348 -2.13279,4.59085 l -2.13278,2.99523 4.13278,5.86028 c 3.86715,5.48361 4.98867,8.7688 3.50131,10.25616 -1.22254,1.22254 -4.18055,-1.30169 -6.83676,-5.83416 -2.32743,-3.97147 -2.89625,-4.40736 -4.27091,-3.27283 -0.87224,0.71986 -2.42691,3.20574 -3.45482,5.52417 -2.5358,5.71939 -7.20039,9.02652 -8.38338,5.94369 z"
     id="lvl29"
     inkscape:connector-curvature="0"
     inkscape:label="lvl29" />
</svg>
