<?xml version="1.0" encoding="UTF-8" standalone="no"?>
<!-- Created with Inkscape (http://www.inkscape.org/) -->

<svg
   xmlns:dc="http://purl.org/dc/elements/1.1/"
   xmlns:cc="http://creativecommons.org/ns#"
   xmlns:rdf="http://www.w3.org/1999/02/22-rdf-syntax-ns#"
   xmlns:svg="http://www.w3.org/2000/svg"
   xmlns="http://www.w3.org/2000/svg"
   xmlns:xlink="http://www.w3.org/1999/xlink"
   xmlns:sodipodi="http://sodipodi.sourceforge.net/DTD/sodipodi-0.dtd"
   xmlns:inkscape="http://www.inkscape.org/namespaces/inkscape"
   width="512"
   height="512"
   viewBox="0 0 512 512"
   version="1.1"
   id="svg4511"
   inkscape:version="0.92.1 r15371"
   sodipodi:docname="04.svg">
  <defs
     id="defs4505">
    <linearGradient
       inkscape:collect="always"
       id="linearGradient4491">
      <stop
         style="stop-color:#000000;stop-opacity:0"
         offset="0"
         id="stop4487" />
      <stop
         style="stop-color:#000000;stop-opacity:0.07843138"
         offset="1"
         id="stop4489" />
    </linearGradient>
    <linearGradient
       inkscape:collect="always"
       xlink:href="#linearGradient4491"
       id="linearGradient4493"
       x1="256"
       y1="256"
       x2="426.66727"
       y2="256"
       gradientUnits="userSpaceOnUse" />
    <linearGradient
       inkscape:collect="always"
       xlink:href="#linearGradient4491"
       id="linearGradient4499"
       gradientUnits="userSpaceOnUse"
       x1="256"
       y1="256"
       x2="256"
       y2="475.70819" />
  </defs>
  <sodipodi:namedview
     id="base"
     pagecolor="#ffffff"
     bordercolor="#666666"
     borderopacity="1.0"
     inkscape:pageopacity="0.0"
     inkscape:pageshadow="2"
     inkscape:zoom="0.35"
     inkscape:cx="-22.776748"
     inkscape:cy="114.31672"
     inkscape:document-units="px"
     inkscape:current-layer="svg4511"
     showgrid="false"
     units="px"
     inkscape:window-width="1920"
     inkscape:window-height="1017"
     inkscape:window-x="1912"
     inkscape:window-y="-8"
     inkscape:window-maximized="1"
     showguides="true"
     inkscape:guide-bbox="true">
    <sodipodi:guide
       position="256,256"
       orientation="1,0"
       id="guide4495"
       inkscape:locked="false"
       inkscape:label=""
       inkscape:color="rgb(0,0,255)" />
  </sodipodi:namedview>
  <metadata
     id="metadata4508">
    <rdf:RDF>
      <cc:Work
         rdf:about="">
        <dc:format>image/svg+xml</dc:format>
        <dc:type
           rdf:resource="http://purl.org/dc/dcmitype/StillImage" />
        <dc:title />
      </cc:Work>
    </rdf:RDF>
  </metadata>
  <path
     style="fill:#ffffff;stroke:none;stroke-width:0.26458332px;stroke-linecap:butt;stroke-linejoin:miter;stroke-opacity:1"
     d="m 131.73323,217.47374 3.93361,-16.26853 14.30393,-24.75654 20.0255,-22.28084 22.88635,-14.14662 32.89906,-9.90259 24.31668,-4.24397 25.7471,1.06102 23.60152,6.7196 29.6807,9.54894 16.80713,12.73194 13.94631,15.20756 10.37038,13.08558 10.01279,16.97592 3.57597,15.5612 h 21.09833 l 11.08554,3.89033 6.79437,5.65861 5.00637,16.26859 0.35762,25.46383 -3.57599,21.57354 -12.87356,8.84161 -17.87993,4.24398 -10.01275,0.35369 v 20.15887 l -0.35761,16.26857 -8.22476,17.32953 -17.52234,19.80522 -16.44955,16.97592 -12.87353,17.68321 -5.36398,14.85391 -1.07278,17.32956 -3.2184,10.96358 -14.30394,10.25628 -18.59513,7.78062 -23.60151,3.53664 -25.38951,-3.53664 -20.0255,-7.07328 -20.02554,-9.9026 -12.87356,-12.73193 -2.50316,-27.23216 -4.29119,-15.9149 -12.15835,-16.26857 -12.87358,-10.96361 -14.66151,-15.20757 -6.07918,-20.15887 -0.35763,-34.65913 -20.38311,-1.76831 -15.019145,-7.07329 -9.297582,-15.56124 0.715204,-27.58581 4.291189,-22.63456 10.727954,-9.19526 16.44955,-2.82931 z"
     id="lvl25-col10"
     inkscape:connector-curvature="0"
     inkscape:label="lvl25-col10" />
  <path
     style="fill:url(#linearGradient4499);stroke:none;stroke-width:0.26458332px;stroke-linecap:butt;stroke-linejoin:miter;stroke-opacity:1;fill-opacity:1"
     d="m 131.73323,217.47374 3.93361,-16.26853 14.30393,-24.75654 20.0255,-22.28084 22.88635,-14.14662 32.89906,-9.90259 24.31668,-4.24397 25.7471,1.06102 23.60152,6.7196 29.6807,9.54894 16.80713,12.73194 13.94631,15.20756 10.37038,13.08558 10.01279,16.97592 3.57597,15.5612 h 21.09833 l 11.08554,3.89033 6.79437,5.65861 5.00637,16.26859 0.35762,25.46383 -3.57599,21.57354 -12.87356,8.84161 -17.87993,4.24398 -10.01275,0.35369 v 20.15887 l -0.35761,16.26857 -8.22476,17.32953 -17.52234,19.80522 -16.44955,16.97592 -12.87353,17.68321 -5.36398,14.85391 -1.07278,17.32956 -3.2184,10.96358 -14.30394,10.25628 -18.59513,7.78062 -23.60151,3.53664 -25.38951,-3.53664 -20.0255,-7.07328 -20.02554,-9.9026 -12.87356,-12.73193 -2.50316,-27.23216 -4.29119,-15.9149 -12.15835,-16.26857 -12.87358,-10.96361 -14.66151,-15.20757 -6.07918,-20.15887 -0.35763,-34.65913 -20.38311,-1.76831 -15.019145,-7.07329 -9.297582,-15.56124 0.715204,-27.58581 4.291189,-22.63456 10.727954,-9.19526 16.44955,-2.82931 z"
     id="lvl29-shadow"
     inkscape:connector-curvature="0"
     inkscape:label="lvl29-shadow" />
  <path
     inkscape:label="lvl29-shadow-1"
     inkscape:connector-curvature="0"
     id="lvl29-shadow-1"
     d="m 131.73323,217.47374 3.93361,-16.26853 14.30393,-24.75654 20.0255,-22.28084 22.88635,-14.14662 32.89906,-9.90259 24.31668,-4.24397 25.7471,1.06102 23.60152,6.7196 29.6807,9.54894 16.80713,12.73194 13.94631,15.20756 10.37038,13.08558 10.01279,16.97592 3.57597,15.5612 h 21.09833 l 11.08554,3.89033 6.79437,5.65861 5.00637,16.26859 0.35762,25.46383 -3.57599,21.57354 -12.87356,8.84161 -17.87993,4.24398 -10.01275,0.35369 v 20.15887 l -0.35761,16.26857 -8.22476,17.32953 -17.52234,19.80522 -16.44955,16.97592 -12.87353,17.68321 -5.36398,14.85391 -1.07278,17.32956 -3.2184,10.96358 -14.30394,10.25628 -18.59513,7.78062 -23.60151,3.53664 -25.38951,-3.53664 -20.0255,-7.07328 -20.02554,-9.9026 -12.87356,-12.73193 -2.50316,-27.23216 -4.29119,-15.9149 -12.15835,-16.26857 -12.87358,-10.96361 -14.66151,-15.20757 -6.07918,-20.15887 -0.35763,-34.65913 -20.38311,-1.76831 -15.019145,-7.07329 -9.297582,-15.56124 0.715204,-27.58581 4.291189,-22.63456 10.727954,-9.19526 16.44955,-2.82931 z"
     style="fill:url(#linearGradient4493);stroke:none;stroke-width:0.26458332px;stroke-linecap:butt;stroke-linejoin:miter;stroke-opacity:1;fill-opacity:1" />
  <path
     style="fill:#000000"
     d="m 248.5,478.89129 c -4.4,-0.36792 -8.90175,-0.89681 -10.0039,-1.17532 -11.84787,-2.99385 -14.58552,-3.85241 -19.9961,-6.27096 -1.65,-0.73756 -5.475,-2.42031 -8.5,-3.73945 -3.025,-1.31914 -7.68568,-4.07636 -10.35708,-6.12714 -2.67139,-2.05078 -6.94639,-5.02104 -9.5,-6.60058 -7.29732,-4.51376 -10.39983,-11.96646 -11.64699,-27.97786 -0.36415,-4.675 -1.31946,-11.2 -2.12291,-14.5 -4.01915,-16.50767 -7.0682,-20.47794 -32.62073,-42.47668 -4.22693,-3.63905 -8.81466,-10.06477 -11.64732,-16.31362 -2.48342,-5.47842 -3.90036,-15.90505 -4.49264,-33.05929 -0.263,-7.61727 -0.6236,-13.99501 -0.80133,-14.17275 -0.17774,-0.17773 -5.20178,-1.04756 -11.16453,-1.93294 -16.507051,-2.45106 -23.062535,-6.55726 -28.009905,-17.54472 -3.512906,-7.80171 -5.032729,-18.97836 -4.320303,-31.77116 0.852626,-15.31032 2.543207,-23.94545 5.210164,-26.61241 C 89.336892,227.80595 90,226.4776 90,225.66453 c 0,-2.35411 9.124255,-9.35165 13.85475,-10.62544 2.37511,-0.63955 8.94286,-1.1819 14.595,-1.20523 l 10.27663,-0.0424 2.04183,-8.27087 c 1.33853,-5.422 3.21841,-9.94999 5.45769,-13.14574 1.87872,-2.68118 4.71033,-7.12487 6.29248,-9.87487 3.62364,-6.29843 16.47713,-22.53321 22.66584,-28.62841 7.4144,-7.30236 15.69911,-12.25317 29.50985,-17.63463 15.68268,-6.11088 20.42243,-7.64629 31.30593,-10.1414 26.71128,-6.12371 51.95625,-4.43627 79.5,5.31399 22.76772,8.05959 26.24914,9.65241 34.90459,15.96963 6.66594,4.86516 24.93741,24.98447 27.75325,30.56001 0.71131,1.40845 3.37224,5.71081 5.91318,9.56081 6.51372,9.86953 7.07143,11.0916 8.89903,19.5 1.20532,5.5454 2.00803,7.40521 3.08006,7.13627 2.93164,-0.73546 20.55257,-0.13966 23.795,0.80455 4.64283,1.35203 11.44368,7.16988 14.52242,12.42335 4.87311,8.31534 7.2684,34.0511 4.57935,49.20217 -1.28094,7.21731 -4.9012,15.29707 -8.43942,18.83529 -4.04676,4.04676 -11.74892,7.49434 -19.22246,8.6042 -3.73175,0.55419 -8.6975,1.29075 -11.035,1.63681 -4.87562,0.72183 -4.58162,-0.50941 -4.38343,18.35736 0.13157,12.52518 -1.01556,18.88875 -4.82118,26.74501 -3.41956,7.05929 -13.22885,20.23842 -19.20175,25.79823 -2.389,2.22379 -6.88446,6.94879 -9.98991,10.5 -3.10545,3.55122 -7.5087,8.48176 -9.78501,10.95676 -6.91457,7.51813 -13.89775,18.70664 -16.07484,25.75523 -1.1326,3.66693 -2.35452,7.07835 -3.02404,7.50378 0.27513,4.83804 0.62052,13.58075 -1.04215,19.58801 -1.35588,4.5255 -2.66145,6.1665 -9.07871,11.4112 -9.96667,8.14557 -32.9879,16.2314 -47.2312,16.58918 -4.33521,0.1089 -8.16021,0.31384 -8.5,0.45542 C 256.778,479.44439 252.9,479.2592 248.5,478.89129 Z m 27.68942,-6.98077 c 16.685,-2.86395 37.78275,-14.44674 40.80804,-22.40386 0.42917,-1.12881 0.7902,-5.41711 0.80228,-9.52954 0.0599,-20.393 8.60824,-34.84504 38.68321,-65.39892 9.31904,-9.46743 17.99581,-21.67171 21.00321,-29.54201 l 2.70317,-7.0741 -0.0434,-29.73106 c -0.0675,-46.21611 -0.95877,-86.04398 -2.0975,-93.73105 -1.69774,-11.46074 -3.68734,-16.19382 -12.72643,-30.27508 -11.28146,-17.57446 -26.08392,-32.43085 -38.79949,-38.94086 -7.67857,-3.93119 -29.59157,-10.96507 -45.83453,-14.71246 -10.32925,-2.38305 -39.72377,-2.13498 -49.68795,0.41932 -38.98382,9.99345 -48.01495,14.02693 -61.56688,27.49698 -11.16581,11.09834 -14.27695,14.82119 -20.94888,25.06782 -9.59307,14.73284 -11.87017,20.56516 -13.448,34.44428 -0.53147,4.675 -1.23888,32.01806 -1.57202,60.76236 -0.69037,59.56764 -0.16143,68.16986 4.65908,75.77102 1.58219,2.49484 2.87779,4.85795 2.87912,5.25135 10e-4,0.3934 4.357,4.54027 9.67927,9.21527 18.36067,16.12772 26.22837,25.29301 27.89876,32.5 0.38243,1.65 1.0345,3.45 1.44906,4 0.95094,1.26165 2.82674,10.44367 3.47293,17 1.2816,13.00325 1.80619,16.23086 3.20709,19.73206 0.8292,2.07237 1.93871,3.76794 2.46559,3.76794 0.52687,0 4.86381,3.13624 9.63763,6.96942 9.9281,7.97184 16.26802,11.32892 30.47691,16.13795 11.61416,3.93085 17.6108,4.79344 29.71034,4.27372 6.325,-0.27168 14.06024,-0.93343 17.18942,-1.47055 z M 126.92323,291.74998 c 0.12396,-4.5375 0.36139,-9.825 0.52763,-11.75 0.16623,-1.925 0.46506,-16.325 0.66406,-32 l 0.36182,-28.5 -11.02384,0.0293 c -10.0962,0.0268 -11.39952,0.25161 -15.48837,2.67171 -5.110908,3.02503 -7.641239,5.75181 -9.453792,10.18775 -2.182376,5.34103 -3.835572,22.73349 -3.278344,34.48984 0.583068,12.3015 2.851294,18.75889 8.685273,24.72602 3.591543,3.67352 11.407593,6.38974 18.447163,6.41073 2.82435,0.008 5.81017,0.45153 6.63517,0.98469 3.15736,2.04044 3.69665,1.04387 3.92323,-7.25 z m -10.61399,-10.53771 c -0.65491,-0.4164 -2.47844,-3.22201 -4.05228,-6.23469 -1.57385,-3.01268 -3.51301,-5.4776 -4.30925,-5.4776 -0.79624,0 -2.79771,2.12921 -4.44771,4.73159 -3.18347,5.02095 -4.814404,5.81592 -6.339786,3.09021 -0.711688,-1.27171 0.150364,-3.3167 3.559056,-8.4429 l 4.49823,-6.76471 -1.94369,-2.80709 c -5.36234,-7.74437 -7.815804,-16.5014 -4.933126,-17.60759 2.140456,-0.82137 3.490016,0.56919 5.167946,5.32494 0.86213,2.44355 2.25549,5.49279 3.09634,6.7761 1.90613,2.90912 3.15486,2.04208 8.02609,-5.57288 2.68849,-4.20279 3.90718,-5.29091 5.64853,-5.04334 3.19571,0.45433 2.43419,2.86493 -3.46889,10.98095 l -5.0509,6.94435 4.67543,9.0798 c 2.57149,4.99389 4.43966,9.69422 4.15149,10.44518 -0.57635,1.50195 -2.43003,1.75229 -4.27748,0.57768 z M 398,298.02863 c 4.125,-0.46401 9.38927,-1.59984 11.69837,-2.52407 6.33759,-2.53666 12.50185,-11.62096 13.74532,-20.25657 0.80382,-5.58241 1.03124,-25.67055 0.30393,-26.84736 -0.3473,-0.56194 -0.73337,-3.46948 -0.85792,-6.46118 -0.30657,-7.36371 -2.83765,-12.88311 -7.89181,-17.20928 -4.98375,-4.2659 -10.61765,-5.73019 -22.04711,-5.73019 H 385 l -0.11842,3.25 c -0.0651,1.7875 -0.0804,3.54178 -0.0339,3.89841 0.15172,1.16336 1.48608,64.21772 1.46401,69.18027 -0.0198,4.44982 0.14367,4.77827 2.0834,4.18615 1.15768,-0.35339 5.47988,-1.02218 9.60488,-1.48618 z m -4.97369,-18.27865 c 0.0145,-1.2375 1.81447,-5.61948 4,-9.73773 2.18553,-4.11826 3.97369,-8.04663 3.97369,-8.72972 0,-0.68309 -1.6875,-3.47294 -3.75,-6.19968 -2.0625,-2.72674 -4.56504,-6.33942 -5.5612,-8.02819 -1.60987,-2.72916 -1.63766,-3.13707 -0.25,-3.66957 2.48112,-0.95209 4.2897,0.22455 7.03878,4.57938 3.13353,4.96383 5.70981,8.03551 6.73954,8.03551 0.70064,0 2.49721,-3.59836 5.65091,-11.31828 0.85816,-2.10068 1.72176,-2.73724 3.39164,-2.5 1.8369,0.26097 2.18219,0.85371 1.91746,3.29166 -0.34745,3.19976 -4.05994,11.78722 -6.48209,14.99391 -1.36709,1.80989 -1.1343,2.46013 2.90949,8.12699 4.84972,6.79628 5.0903,7.58417 2.87671,9.42129 -1.24289,1.03151 -1.87863,0.93478 -3.5,-0.53255 -1.08968,-0.98615 -1.99621,-2.28575 -2.01451,-2.88801 -0.0473,-1.55748 -3.57583,-5.59501 -4.88963,-5.59501 -0.60628,0 -2.18003,2.4369 -3.49723,5.41532 -3.05763,6.91385 -8.61254,10.37833 -8.55356,5.33468 z"
     id="lvl29"
     inkscape:connector-curvature="0"
     sodipodi:nodetypes="cccscccccsscssscssccsscsssssccsscsssccssccssccssccccssccssscssssssccsccscssssccccsccssssccccccsccsccsccscccssccsccssscccccccccssccssssssssccssc"
     inkscape:label="lvl29" />
</svg>
