<?xml version="1.0" encoding="UTF-8" standalone="no"?>
<!-- Created with Inkscape (http://www.inkscape.org/) -->

<svg
   xmlns:dc="http://purl.org/dc/elements/1.1/"
   xmlns:cc="http://creativecommons.org/ns#"
   xmlns:rdf="http://www.w3.org/1999/02/22-rdf-syntax-ns#"
   xmlns:svg="http://www.w3.org/2000/svg"
   xmlns="http://www.w3.org/2000/svg"
   xmlns:xlink="http://www.w3.org/1999/xlink"
   xmlns:sodipodi="http://sodipodi.sourceforge.net/DTD/sodipodi-0.dtd"
   xmlns:inkscape="http://www.inkscape.org/namespaces/inkscape"
   width="512"
   height="512"
   viewBox="0 0 512 512"
   version="1.1"
   id="svg4511"
   inkscape:version="0.92.1 r15371"
   sodipodi:docname="05.svg">
  <defs
     id="defs4505">
    <linearGradient
       inkscape:collect="always"
       id="linearGradient4491">
      <stop
         style="stop-color:#000000;stop-opacity:0"
         offset="0"
         id="stop4487" />
      <stop
         style="stop-color:#000000;stop-opacity:0.07843138"
         offset="1"
         id="stop4489" />
    </linearGradient>
    <linearGradient
       inkscape:collect="always"
       xlink:href="#linearGradient4491"
       id="linearGradient4493"
       x1="256"
       y1="256"
       x2="424.96417"
       y2="256"
       gradientUnits="userSpaceOnUse" />
    <linearGradient
       inkscape:collect="always"
       xlink:href="#linearGradient4491"
       id="linearGradient4499"
       gradientUnits="userSpaceOnUse"
       x1="256"
       y1="256"
       x2="256"
       y2="469.64728" />
  </defs>
  <sodipodi:namedview
     id="base"
     pagecolor="#ffffff"
     bordercolor="#666666"
     borderopacity="1.0"
     inkscape:pageopacity="0.0"
     inkscape:pageshadow="2"
     inkscape:zoom="1.979899"
     inkscape:cx="203.19319"
     inkscape:cy="209.62694"
     inkscape:document-units="px"
     inkscape:current-layer="svg4511"
     showgrid="false"
     units="px"
     inkscape:window-width="1920"
     inkscape:window-height="1017"
     inkscape:window-x="1912"
     inkscape:window-y="-8"
     inkscape:window-maximized="1"
     showguides="true"
     inkscape:guide-bbox="true" />
  <metadata
     id="metadata4508">
    <rdf:RDF>
      <cc:Work
         rdf:about="">
        <dc:format>image/svg+xml</dc:format>
        <dc:type
           rdf:resource="http://purl.org/dc/dcmitype/StillImage" />
        <dc:title />
      </cc:Work>
    </rdf:RDF>
  </metadata>
  <path
     style="fill:#ffffff;stroke:none;stroke-width:0.26458332px;stroke-linecap:butt;stroke-linejoin:miter;stroke-opacity:1"
     d="m 132.03657,217.40669 7.45733,-26.19628 17.04535,-22.96662 18.11072,-19.37809 28.05383,-13.63641 33.02541,-8.97134 34.80094,-1.79427 22.72715,6.10052 35.8663,12.20099 16.33516,12.91874 22.72716,26.55515 11.36354,22.24891 2.84089,12.55986 21.30673,-1.07655 13.49424,5.3828 9.58802,17.58383 0.71023,23.68429 -3.90625,24.76089 -11.71868,12.20103 -18.11071,3.9474 -9.94312,1.07656 -2.48579,33.37334 v 36.60308 l -9.94312,30.50252 -13.84937,13.63646 -17.04535,3.58853 -8.16756,23.68429 -17.75562,17.22499 -25.92314,6.81818 -28.05383,2.51199 -33.02541,-3.22966 -26.27828,-5.74167 -14.20446,-12.9187 -9.94312,-15.43072 -3.19602,-15.07185 -16.33512,-2.51194 -17.04539,-15.78956 -8.8778,-26.55515 1.77557,-47.72752 -3.19603,-23.32549 -24.5027,-4.30621 -13.494243,-10.04792 -6.392013,-24.40201 4.616452,-33.73222 12.428914,-14.35417 15.62491,-1.79422 z"
     id="lvl25-col10"
     inkscape:connector-curvature="0" />
  <path
     style="fill:url(#linearGradient4499);stroke:none;stroke-width:0.26458332px;stroke-linecap:butt;stroke-linejoin:miter;stroke-opacity:1;fill-opacity:1"
     d="m 132.03657,217.40669 7.45733,-26.19628 17.04535,-22.96662 18.11072,-19.37809 28.05383,-13.63641 33.02541,-8.97134 34.80094,-1.79427 22.72715,6.10052 35.8663,12.20099 16.33516,12.91874 22.72716,26.55515 11.36354,22.24891 2.84089,12.55986 21.30673,-1.07655 13.49424,5.3828 9.58802,17.58383 0.71023,23.68429 -3.90625,24.76089 -11.71868,12.20103 -18.11071,3.9474 -9.94312,1.07656 -2.48579,33.37334 v 36.60308 l -9.94312,30.50252 -13.84937,13.63646 -17.04535,3.58853 -8.16756,23.68429 -17.75562,17.22499 -25.92314,6.81818 -28.05383,2.51199 -33.02541,-3.22966 -26.27828,-5.74167 -14.20446,-12.9187 -9.94312,-15.43072 -3.19602,-15.07185 -16.33512,-2.51194 -17.04539,-15.78956 -8.8778,-26.55515 1.77557,-47.72752 -3.19603,-23.32549 -24.5027,-4.30621 -13.494243,-10.04792 -6.392013,-24.40201 4.616452,-33.73222 12.428914,-14.35417 15.62491,-1.79422 z"
     id="lvl29-shadow"
     inkscape:connector-curvature="0"
     inkscape:label="lvl29-shadow" />
  <path
     inkscape:connector-curvature="0"
     id="lvl29-shadow-1"
     d="m 132.03657,217.40669 7.45733,-26.19628 17.04535,-22.96662 18.11072,-19.37809 28.05383,-13.63641 33.02541,-8.97134 34.80094,-1.79427 22.72715,6.10052 35.8663,12.20099 16.33516,12.91874 22.72716,26.55515 11.36354,22.24891 2.84089,12.55986 21.30673,-1.07655 13.49424,5.3828 9.58802,17.58383 0.71023,23.68429 -3.90625,24.76089 -11.71868,12.20103 -18.11071,3.9474 -9.94312,1.07656 -2.48579,33.37334 v 36.60308 l -9.94312,30.50252 -13.84937,13.63646 -17.04535,3.58853 -8.16756,23.68429 -17.75562,17.22499 -25.92314,6.81818 -28.05383,2.51199 -33.02541,-3.22966 -26.27828,-5.74167 -14.20446,-12.9187 -9.94312,-15.43072 -3.19602,-15.07185 -16.33512,-2.51194 -17.04539,-15.78956 -8.8778,-26.55515 1.77557,-47.72752 -3.19603,-23.32549 -24.5027,-4.30621 -13.494243,-10.04792 -6.392013,-24.40201 4.616452,-33.73222 12.428914,-14.35417 15.62491,-1.79422 z"
     style="fill:url(#linearGradient4493);stroke:none;stroke-width:0.26458332px;stroke-linecap:butt;stroke-linejoin:miter;stroke-opacity:1;fill-opacity:1"
     inkscape:label="lvl29-shadow-1" />
  <path
     style="fill:#000000"
     d="m 252,473.01392 c -2.475,-0.40466 -5.04312,-0.53262 -5.70693,-0.28437 -1.68961,0.63186 -17.87558,-1.49794 -29.78728,-3.91952 -9.43689,-1.91845 -19.37041,-5.14332 -20.49636,-6.65403 -0.28019,-0.37593 -2.88863,-2.64572 -5.79655,-5.04396 -7.76761,-6.40619 -13.95103,-14.99189 -16.77335,-23.28984 C 172.09779,429.87731 171,425.86578 171,424.90769 c 0,-1.27645 -1.31198,-2.02335 -4.90928,-2.79483 -14.37103,-3.08204 -26.35009,-13.60523 -32.15725,-28.24905 -5.34184,-13.47042 -5.85859,-17.62375 -5.45028,-43.80629 0.23021,-14.76185 -0.005,-25.16473 -0.59482,-26.26613 -0.53681,-1.00303 -0.98378,-5.35902 -0.99327,-9.67999 l -0.0173,-7.85632 -4.18891,-0.62083 c -2.30391,-0.34146 -7.13619,-1.05925 -10.73841,-1.59509 -7.43315,-1.1057 -14.85597,-4.08867 -18.252665,-7.3351 -2.827633,-2.70255 -6.81972,-8.3437 -7.069743,-9.99015 -0.101388,-0.66766 -0.573275,-1.83715 -1.048637,-2.59887 -1.808276,-2.89762 -3.162158,-20.64339 -2.411985,-31.61506 0.785729,-11.49168 3.408773,-24.5 4.940269,-24.5 0.490755,0 0.892281,-0.5671 0.892281,-1.26022 0,-2.12093 7.81963,-9.66816 11.54336,-11.14125 3.29759,-1.3045 18.03665,-2.3452 22.85594,-1.61381 4.43495,0.67306 4.57836,0.61109 5.54738,-2.3969 0.54711,-1.6983 1.2925,-5.01323 1.65643,-7.36652 0.36392,-2.35328 2.24551,-6.85328 4.18131,-10 1.93579,-3.14671 5.44731,-8.8713 7.80338,-12.7213 5.86294,-9.5805 22.22567,-28.56037 28.8254,-33.43588 7.35986,-5.43704 10.65153,-7.19406 20.5868,-10.98872 28.8018,-11.00051 44.14886,-14.43821 64.5,-14.44784 20.31504,-0.01 35.32795,3.29237 61.71553,13.57388 19.15511,7.46349 26.48733,12.82772 40.04742,29.29856 7.5721,9.1975 7.12572,8.61763 9.25751,12.02599 1.02307,1.63571 4.26905,6.69261 7.2133,11.23756 3.98948,6.15845 5.93405,10.48913 7.63338,17 1.65355,6.3355 2.67218,8.64048 3.70653,8.38723 2.91455,-0.71359 20.54121,-0.13418 23.70448,0.77921 6.88787,1.98884 14.43666,9.99167 17.04481,18.07001 4.39649,13.61748 3.84703,42.57079 -1.02467,53.9931 -3.93585,9.22811 -12.60429,15.24418 -24.51329,17.01273 -3.73175,0.55419 -8.6975,1.29075 -11.035,1.63681 -4.2051,0.62256 -4.25021,0.67268 -4.26981,4.74328 -0.0109,2.26275 -0.51446,7.26408 -1.11904,11.11408 -0.60774,3.87015 -1.03841,17.67534 -0.96322,30.87574 0.1227,21.53901 -0.072,24.62194 -1.98913,31.5 -2.88985,10.36779 -8.43118,21.45033 -13.33945,26.67861 -5.37361,5.72396 -14.48913,11.0796 -21.24508,12.48213 -2.99838,0.62246 -5.61341,1.6564 -5.81119,2.29763 -0.19777,0.64124 -1.33231,4.43076 -2.5212,8.42116 -2.60381,8.73946 -8.01807,16.44066 -17.21291,24.4835 -8.0551,7.04589 -12.46029,8.9921 -26.39778,11.66251 -21.41825,4.10372 -32.46953,4.89667 -43.38119,3.11266 z m 29.5,-6.48193 c 12.13266,-2.06097 22.65991,-4.37616 26,-5.71799 5.09834,-2.04818 13.61556,-9.01894 19.02366,-15.56956 4.16785,-5.04834 5.70294,-8.01084 7.95467,-15.35133 1.53461,-5.00269 3.0198,-11.1877 3.30044,-13.74446 0.28064,-2.55677 0.98347,-4.95477 1.56186,-5.32889 1.77288,-1.14678 4.65937,1.11266 4.65937,3.64718 0,2.69092 1.15902,2.76594 8.9844,0.58152 3.2534,-0.90817 6.05054,-2.84738 10.18966,-7.06431 6.22096,-6.33789 9.4466,-11.934 13.00985,-22.57051 2.21662,-6.61675 2.3048,-8.0236 2.05314,-32.75872 -0.14865,-14.6115 0.162,-27.43369 0.71471,-29.5 1.14728,-4.28906 1.32122,-24.26028 0.56747,-65.15494 -0.89842,-48.74433 -1.44064,-52.12969 -10.89119,-68 -7.21992,-12.12443 -12.73146,-19.15621 -23.5965,-30.10512 C 331.92198,146.6841 323.80322,142.4068 298.5,135.38006 c -22.22181,-6.17103 -23.13544,-6.31011 -41.68795,-6.34593 -19.10147,-0.0369 -22.21636,0.43529 -42.81205,6.48958 -20.65212,6.07089 -27.03269,8.68977 -35.79431,14.69164 -11.11027,7.61074 -29.49131,29.89977 -37.61925,45.61747 -2.60742,5.0422 -5.38049,14.46932 -6.07941,20.66716 -0.88925,7.88556 -1.92435,60.90067 -1.65959,85 0.56992,51.87558 0.99434,74.18117 1.44618,76.0039 3.4996,14.11736 7.34663,21.8503 14.54355,29.23409 5.83528,5.98679 10.5542,8.26201 17.13584,8.26201 2.44168,0 3.10175,-0.36279 2.67647,-1.47106 -0.73091,-1.90473 1.97473,-4.61037 3.87946,-3.87946 0.8764,0.3363 1.47106,1.87577 1.47106,3.80829 0,1.78408 0.4057,4.54843 0.90156,6.14301 0.49586,1.59457 1.91373,6.27422 3.15081,10.39922 2.33481,7.78532 4.07261,10.67595 10.58667,17.60973 4.90096,5.21674 16.80723,13.36647 19.67417,13.46678 1.20273,0.0421 2.86179,0.24574 3.68679,0.45258 11.74594,2.94481 22.77541,4.64875 33,5.09816 6.875,0.30218 12.6875,0.73467 12.91667,0.96108 0.91247,0.90152 16.04899,0.22355 23.58333,-1.05632 z M 126.80258,289.24998 c 0.14887,-5.9125 0.45287,-22.25852 0.67555,-36.32449 0.22268,-14.06598 0.48448,-25.99098 0.58179,-26.5 0.0973,-0.50903 0.12363,-2.38801 0.0585,-4.17551 L 128,218.99998 h -7.95078 c -11.66116,0 -17.53491,1.54056 -22.305114,5.85015 -3.525162,3.18477 -8.042229,10.94649 -7.53443,12.94649 0.09822,0.38685 -0.208169,3.85336 -0.680867,7.70336 -1.220388,9.93973 -0.692779,28.10102 0.989569,34.06283 3.430814,12.15792 11.724982,18.30074 24.981622,18.50188 2.75,0.0417 5.9,0.4626 7,0.93529 3.82521,1.64375 4.0272,1.18603 4.30258,-9.75 z M 114.40952,279.9 c -1.04525,-1.15499 -2.58884,-3.96351 -3.4302,-6.24116 -0.84135,-2.27765 -2.19339,-4.26891 -3.00453,-4.42503 -0.84802,-0.16322 -2.88875,1.87622 -4.80184,4.79881 -3.332162,5.09047 -4.690484,5.67933 -6.496408,2.81635 -0.720588,-1.14237 0.122024,-3.13467 3.313257,-7.83397 l 4.279601,-6.30199 -3.54841,-6.68985 c -1.951625,-3.67941 -3.69974,-8.22734 -3.8847,-10.10651 -0.286064,-2.90638 4.22e-4,-3.46448 1.918181,-3.73681 1.472679,-0.20912 2.476769,0.31104 2.895529,1.5 1.65977,4.71251 5.39946,12.32014 6.05622,12.32014 1.0027,0 6.28049,-6.25854 6.3247,-7.5 0.13276,-3.72754 7.96908,-7.60695 7.96908,-3.94513 0,1.62535 -7.25108,12.86423 -8.99515,13.94213 -1.79461,1.10913 -1.07749,3.89066 2.96884,11.51527 4.41579,8.32078 5.08303,11.98773 2.1813,11.98773 -1.01476,0 -2.70022,-0.94499 -3.74547,-2.09998 z m 283.81564,18.09402 c 12.8496,-1.31667 18.65129,-5.40733 23.39311,-16.49404 3.5561,-8.3144 2.66701,-41.74896 -1.33712,-50.28302 -0.8472,-1.80566 -3.33977,-4.82324 -5.53904,-6.70573 -4.87472,-4.17258 -11.38071,-5.71603 -22.3643,-5.30561 l -7.87781,0.29436 0.27673,16.5 c 0.1522,9.075 0.55257,25.5 0.88972,36.5 0.33714,11 0.55665,21.73827 0.4878,23.86283 -0.11562,3.56733 0.0458,3.80775 2.11028,3.14281 1.22951,-0.39601 5.71179,-1.07623 9.96063,-1.5116 z m -5.66391,-16.89494 c -0.60259,-0.97501 6.1053,-15.77499 7.55623,-16.67171 1.59764,-0.98739 0.92076,-5.08281 -1.14977,-6.95661 -1.11775,-1.01156 -3.0065,-3.4438 -4.19721,-5.40499 -1.19071,-1.96118 -2.4812,-3.79079 -2.86776,-4.06579 -0.38656,-0.275 -0.86032,-1.4 -1.05279,-2.5 -0.27085,-1.54793 0.20007,-2 2.0834,-2 1.84684,0 3.41354,1.42889 6.5,5.92823 2.23666,3.26053 4.56212,6.08819 5.1677,6.28369 0.60558,0.1955 2.51631,-2.80971 4.24607,-6.67824 2.38115,-5.32534 3.63173,-7.03368 5.14894,-7.03368 2.68082,0 2.68258,4.24601 0.004,9.5 -1.1,2.15759 -2.01001,4.39023 -2.02224,4.96144 -0.0122,0.57121 -0.86233,2.13149 -1.88912,3.46729 -1.86477,2.426 -1.86173,2.43648 2.69594,9.29059 4.21012,6.33144 4.43733,6.98734 2.93931,8.48536 -2.02146,2.02146 -3.73808,0.82164 -6.91709,-4.83464 -1.19635,-2.12852 -2.7608,-3.87004 -3.47661,-3.87004 -0.7158,0 -2.63583,2.64337 -4.26673,5.87416 -3.20322,6.34555 -6.80015,8.97904 -8.50227,6.22494 z"
     id="lvl29"
     inkscape:connector-curvature="0"
     inkscape:label="lvl29" />
</svg>
