<?xml version="1.0" encoding="UTF-8" standalone="no"?>
<!-- Created with Inkscape (http://www.inkscape.org/) -->

<svg
   xmlns:dc="http://purl.org/dc/elements/1.1/"
   xmlns:cc="http://creativecommons.org/ns#"
   xmlns:rdf="http://www.w3.org/1999/02/22-rdf-syntax-ns#"
   xmlns:svg="http://www.w3.org/2000/svg"
   xmlns="http://www.w3.org/2000/svg"
   xmlns:xlink="http://www.w3.org/1999/xlink"
   xmlns:sodipodi="http://sodipodi.sourceforge.net/DTD/sodipodi-0.dtd"
   xmlns:inkscape="http://www.inkscape.org/namespaces/inkscape"
   width="512"
   height="512"
   viewBox="0 0 512 512"
   version="1.1"
   id="svg4511"
   inkscape:version="0.92.1 r15371"
   sodipodi:docname="06.svg">
  <defs
     id="defs4505">
    <linearGradient
       inkscape:collect="always"
       id="linearGradient4493">
      <stop
         style="stop-color:#000000;stop-opacity:0"
         offset="0"
         id="stop4489" />
      <stop
         style="stop-color:#000000;stop-opacity:0.07843138"
         offset="1"
         id="stop4491" />
    </linearGradient>
    <linearGradient
       inkscape:collect="always"
       xlink:href="#linearGradient4493"
       id="linearGradient4495"
       x1="256"
       y1="256"
       x2="426.16217"
       y2="256"
       gradientUnits="userSpaceOnUse" />
    <linearGradient
       inkscape:collect="always"
       xlink:href="#linearGradient4493"
       id="linearGradient4499"
       gradientUnits="userSpaceOnUse"
       x1="256"
       y1="256"
       x2="256"
       y2="435.80716" />
  </defs>
  <sodipodi:namedview
     id="base"
     pagecolor="#ffffff"
     bordercolor="#666666"
     borderopacity="1.0"
     inkscape:pageopacity="0.0"
     inkscape:pageshadow="2"
     inkscape:zoom="1.979899"
     inkscape:cx="248.68321"
     inkscape:cy="243.97369"
     inkscape:document-units="px"
     inkscape:current-layer="svg4511"
     showgrid="false"
     units="px"
     inkscape:window-width="1920"
     inkscape:window-height="1017"
     inkscape:window-x="1912"
     inkscape:window-y="-8"
     inkscape:window-maximized="1"
     showguides="true"
     inkscape:guide-bbox="true" />
  <metadata
     id="metadata4508">
    <rdf:RDF>
      <cc:Work
         rdf:about="">
        <dc:format>image/svg+xml</dc:format>
        <dc:type
           rdf:resource="http://purl.org/dc/dcmitype/StillImage" />
        <dc:title />
      </cc:Work>
    </rdf:RDF>
  </metadata>
  <path
     style="fill:#ffffff;fill-opacity:1;stroke:none;stroke-width:0.26458332px;stroke-linecap:butt;stroke-linejoin:miter;stroke-opacity:1"
     d="m 130.24539,216.73645 5.77676,-20.71243 17.33027,-26.42619 19.85761,-20.71242 27.4396,-13.21309 38.99312,-8.92776 27.80065,-1.78556 24.91226,4.64244 28.52275,8.92777 22.02389,11.42753 19.49656,23.56931 16.60817,22.85508 4.69363,19.9982 19.85759,-0.71422 13.35876,4.28532 9.38725,8.92777 2.88837,22.49797 -0.7221,27.14041 -6.85988,14.99866 -13.35879,6.7851 -23.107,2.85689 -1.08317,27.85463 -4.33254,22.14086 -12.27563,25.71194 -14.80294,17.49843 -17.33028,13.57023 -21.30179,9.64199 -16.60819,0.71423 -11.91455,11.07041 -20.21866,6.78511 h -16.60817 l -20.5797,-7.14221 -11.55353,-11.07045 -14.80294,-0.71422 -22.02389,-9.64199 -22.38493,-15.71288 -18.05238,-29.28305 -9.74827,-32.49707 v -28.56886 l -21.66285,-2.49977 -15.16399,-7.85644 -8.304089,-16.42708 0.722094,-23.2122 3.249429,-22.49797 6.137806,-8.92777 11.91456,-6.42799 z"
     id="lvl25-col10"
     inkscape:connector-curvature="0"
     inkscape:label="lvl25-col10" />
  <path
     inkscape:label="lvl29-shadow"
     inkscape:connector-curvature="0"
     id="lvl29-shadow"
     d="m 130.24539,216.73645 5.77676,-20.71243 17.33027,-26.42619 19.85761,-20.71242 27.4396,-13.21309 38.99312,-8.92776 27.80065,-1.78556 24.91226,4.64244 28.52275,8.92777 22.02389,11.42753 19.49656,23.56931 16.60817,22.85508 4.69363,19.9982 19.85759,-0.71422 13.35876,4.28532 9.38725,8.92777 2.88837,22.49797 -0.7221,27.14041 -6.85988,14.99866 -13.35879,6.7851 -23.107,2.85689 -1.08317,27.85463 -4.33254,22.14086 -12.27563,25.71194 -14.80294,17.49843 -17.33028,13.57023 -21.30179,9.64199 -16.60819,0.71423 -11.91455,11.07041 -20.21866,6.78511 h -16.60817 l -20.5797,-7.14221 -11.55353,-11.07045 -14.80294,-0.71422 -22.02389,-9.64199 -22.38493,-15.71288 -18.05238,-29.28305 -9.74827,-32.49707 v -28.56886 l -21.66285,-2.49977 -15.16399,-7.85644 -8.304089,-16.42708 0.722094,-23.2122 3.249429,-22.49797 6.137806,-8.92777 11.91456,-6.42799 z"
     style="fill:url(#linearGradient4495);fill-opacity:1;stroke:none;stroke-width:0.26458332px;stroke-linecap:butt;stroke-linejoin:miter;stroke-opacity:1" />
  <path
     style="fill:url(#linearGradient4499);fill-opacity:1;stroke:none;stroke-width:0.26458332px;stroke-linecap:butt;stroke-linejoin:miter;stroke-opacity:1"
     d="m 130.24539,216.73645 5.77676,-20.71243 17.33027,-26.42619 19.85761,-20.71242 27.4396,-13.21309 38.99312,-8.92776 27.80065,-1.78556 24.91226,4.64244 28.52275,8.92777 22.02389,11.42753 19.49656,23.56931 16.60817,22.85508 4.69363,19.9982 19.85759,-0.71422 13.35876,4.28532 9.38725,8.92777 2.88837,22.49797 -0.7221,27.14041 -6.85988,14.99866 -13.35879,6.7851 -23.107,2.85689 -1.08317,27.85463 -4.33254,22.14086 -12.27563,25.71194 -14.80294,17.49843 -17.33028,13.57023 -21.30179,9.64199 -16.60819,0.71423 -11.91455,11.07041 -20.21866,6.78511 h -16.60817 l -20.5797,-7.14221 -11.55353,-11.07045 -14.80294,-0.71422 -22.02389,-9.64199 -22.38493,-15.71288 -18.05238,-29.28305 -9.74827,-32.49707 v -28.56886 l -21.66285,-2.49977 -15.16399,-7.85644 -8.304089,-16.42708 0.722094,-23.2122 3.249429,-22.49797 6.137806,-8.92777 11.91456,-6.42799 z"
     id="lvl29-shadow-1"
     inkscape:connector-curvature="0"
     inkscape:label="lvl29-shadow-1" />
  <path
     style="fill:#000000"
     d="m 252.5,440.3904 c -1.65,-0.23596 -5.025,-0.91295 -7.5,-1.50442 -2.475,-0.59147 -5.47609,-1.25998 -6.66909,-1.48559 -3.19794,-0.60474 -16.36592,-8.1929 -19.83091,-11.42774 -2.39523,-2.23613 -4.31033,-2.93719 -9.5,-3.47766 -8.06592,-0.84003 -15.94617,-3.42581 -24.73563,-8.11664 -13.9652,-7.45305 -20.10811,-12.38784 -30.34657,-24.37837 -8.46379,-9.91217 -18.73123,-29.48034 -20.57673,-39.2161 -0.34237,-1.80614 -0.9505,-3.7339 -1.35139,-4.2839 -1.28107,-1.75754 -2.22438,-8.60154 -3.37144,-24.46085 L 127.5,306.57829 124,305.8331 c -1.925,-0.40986 -6.95158,-1.23151 -11.17017,-1.8259 -8.0452,-1.13355 -15.365544,-4.31611 -19.987553,-8.68971 -9.178991,-8.68565 -12.010355,-31.72956 -7.277653,-59.23136 1.003089,-5.82896 5.501107,-13.0916 10.608447,-17.12872 5.615279,-4.43862 9.747169,-5.36759 23.483919,-5.27988 l 9.157,0.0585 1.15203,-4.61802 c 0.63362,-2.5399 1.59039,-6.295 2.12615,-8.34465 0.53577,-2.04966 3.14047,-6.99966 5.78823,-11 2.64776,-4.00035 5.62063,-8.84836 6.60638,-10.77336 0.98576,-1.925 2.08011,-3.725 2.43189,-4 0.35178,-0.275 4.64645,-5.35971 9.54372,-11.29936 11.81009,-14.32388 19.35726,-19.90817 36.03761,-26.66494 15.01546,-6.08236 14.9796,-6.07052 31.5,-10.39972 15.90186,-4.16711 31.26116,-5.25982 49,-3.48601 17.19995,1.71993 52.69175,13.78973 65.2926,22.20426 10.47864,6.99736 22.98326,21.48733 35.93967,41.64577 5.67432,8.82848 6.94014,11.77162 9.70283,22.56005 l 1.03969,4.06005 11.26261,0.12724 c 6.19443,0.07 12.72269,0.57335 14.50724,1.1186 4.36805,1.33462 12.14185,7.83363 12.87785,10.76606 0.32688,1.3024 0.98297,2.368 1.45798,2.368 1.30807,0 3.67299,9.56979 4.44824,18 0.37933,4.125 0.87171,9.525 1.09417,12 0.61856,6.88167 -1.70727,22.90535 -4.13674,28.5 -1.19419,2.75 -3.32894,6.36961 -4.7439,8.04357 -3.64618,4.31364 -12.07039,8.24336 -20.24224,9.4426 -3.85,0.565 -8.85758,1.30288 -11.12796,1.63975 l -4.12796,0.61247 -0.70932,14.13081 c -0.6468,12.88513 -1.45532,18.39027 -4.43304,30.18404 -1.44719,5.73181 -6.49103,17.29763 -10.60364,24.31473 -1.92394,3.28271 -3.49808,6.41263 -3.49808,6.95539 0,0.54276 -4.08277,5.53557 -9.07282,11.09514 -15.17004,16.90143 -37.25305,29.31738 -53.34646,29.9935 -4.77841,0.20075 -6.26181,0.68414 -7.69648,2.50803 -2.11538,2.68928 -14.46584,10.00517 -19.68898,11.66293 -2.03239,0.64505 -4.7257,1.5638 -5.98512,2.04166 -2.78844,1.058 -14.58335,1.85597 -18.71014,1.2658 z m 16.5,-6.79212 c 6.09941,-1.47546 10.09529,-3.19087 17.41796,-7.47745 5.25647,-3.07706 9.45255,-9.34614 9.53685,-14.24841 0.0249,-1.44515 0.72019,-3.18775 1.54519,-3.87244 2.34316,-1.94465 4.5,0.51053 4.5,5.12244 0,3.44882 0.27103,3.87756 2.45121,3.87756 3.9063,0 12.54435,-2.52395 19.56678,-5.71721 8.69478,-3.95373 22.55569,-13.46358 26.93177,-18.47767 1.95263,-2.23732 5.03224,-5.69624 6.84358,-7.68649 5.10114,-5.60501 14.25101,-22.5989 17.34063,-32.20645 5.18145,-16.11237 5.35045,-18.51323 5.09718,-72.41218 -0.3396,-72.27062 -0.80632,-75.23461 -15.35271,-97.5 -6.74276,-10.32078 -9.8278,-14.01582 -20.88792,-25.01809 C 332.65401,146.70468 322.03078,141.37805 298.06194,134.95268 294.45287,133.9852 287.9,132.22289 283.5,131.03645 c -11.32069,-3.05259 -41.22066,-3.14925 -52.5,-0.16973 -40.22831,10.62659 -48.31943,14.28478 -62.05426,28.05621 -10.77211,10.80081 -13.93198,14.60485 -20.4615,24.63277 -13.62865,20.9306 -14.06636,23.48453 -14.98679,87.44428 -0.89337,62.07862 0.9731,77.16822 12.01408,97.12883 2.46866,4.46301 4.49477,8.3973 4.50247,8.74287 0.008,0.34556 3.49521,4.65312 7.75,9.57235 10.26004,11.86225 20.66981,19.21618 37.736,26.65843 2.44768,1.06739 13.45251,3.89752 15.15531,3.89752 0.76361,0 1.35146,-1.80987 1.5399,-4.74101 0.23831,-3.70687 0.7149,-4.81896 2.18496,-5.09839 2.10121,-0.3994 3.58142,1.3556 3.60452,4.27368 0.0309,3.89819 4.24103,10.68312 8.16689,13.16141 6.29228,3.97214 11.60985,6.55297 15.61311,7.57767 2.05442,0.52587 5.08531,1.33092 6.73531,1.78902 4.62289,1.28347 14.40756,1.10969 20.5,-0.36408 z M 126.85861,291.38881 c 0.0884,-4.73614 0.33425,-8.89864 0.54629,-9.25 0.21204,-0.35135 0.54518,-14.57632 0.74031,-31.61102 l 0.35479,-30.9722 -4.40529,-0.75217 c -5.26568,-0.89907 -17.06665,0.61488 -21.61438,2.77292 -3.945816,1.87241 -8.202506,6.48217 -9.940662,10.76518 -2.278575,5.61466 -3.867383,22.27155 -3.213854,33.6937 1.263064,22.07542 8.18066,30.28392 26.944316,31.97245 4.27357,0.38458 8.06107,0.99017 8.41666,1.34577 1.60562,1.60562 2.02163,0.08 2.17182,-7.96463 z m -10.75186,-11.13883 c -1.16314,-0.9625 -3.1255,-3.775 -4.36078,-6.25 -1.23528,-2.475 -2.88303,-4.5 -3.66167,-4.5 -0.77863,0 -2.84157,2.025 -4.5843,4.5 -1.74273,2.475 -3.805668,4.5 -4.584302,4.5 -2.90692,0 -2.018547,-4.45829 2.095572,-10.51659 2.86211,-4.21465 3.84021,-6.46471 3.16891,-7.28986 -4.884829,-6.00433 -8.598926,-17.93515 -5.905067,-18.96888 2.244077,-0.86113 3.420617,0.42934 5.727617,6.28226 2.84712,7.2232 3.82388,8.38186 5.73142,6.79875 0.80783,-0.67045 2.96078,-3.55136 4.78434,-6.40203 3.77624,-5.90322 4.66743,-6.65327 6.89127,-5.79991 2.00054,0.76768 2.0392,2.80444 0.0902,4.7534 -0.825,0.825 -1.5,1.77645 -1.5,2.11434 0,0.33788 -1.84901,3.06333 -4.10892,6.05656 l -4.10892,5.44222 4.69037,9.08142 c 5.4786,10.60757 5.32439,14.90691 -0.36578,10.19832 z m 282.08178,17.7135 c 8.07158,-0.85616 16.1261,-3.77945 18.52041,-6.72176 0.77954,-0.95796 2.79383,-4.66544 4.4762,-8.23885 2.93342,-6.23066 3.06321,-7.0714 3.16483,-20.5 0.194,-25.63788 -2.44723,-34.54538 -11.88298,-40.0751 -4.73207,-2.77318 -15.57226,-4.50839 -22.96157,-3.67551 l -4.73974,0.53424 0.60468,12.10674 c 0.33258,6.65871 0.70386,22.45674 0.82506,35.10674 0.29394,30.67736 0.54761,33.82538 2.65569,32.9577 0.90689,-0.37327 5.10873,-1.04566 9.33742,-1.4942 z m -4.80027,-17.39409 c -0.30193,-0.78682 1.45021,-5.48991 3.89366,-10.4513 l 4.44263,-9.0207 -5.36228,-7.56852 C 393.41302,249.36619 391,245.34241 391,244.58716 c 0,-1.15039 1.99605,-2.58718 3.59421,-2.58718 0.23685,0 1.94613,2.3625 3.79841,5.25 1.85228,2.8875 4.31351,6.09984 5.4694,7.13854 2.09472,1.88233 2.10986,1.87084 4.61003,-3.5 1.37963,-2.9637 2.51281,-5.93521 2.51818,-6.60336 0.0138,-1.71265 3.36055,-3.30446 4.92054,-2.34032 1.52496,0.94247 0.70079,6.27874 -1.50893,9.76996 -0.77101,1.21815 -1.40184,2.72368 -1.40184,3.34563 0,0.62194 -0.94224,2.45407 -2.09387,4.07138 l -2.09387,2.94057 4.17726,6.41152 c 4.03436,6.19217 4.7773,9.42858 2.34991,10.23674 -1.29793,0.43212 -2.05214,-0.3263 -6.54103,-6.57752 l -3.12859,-4.35686 -1.79731,2.35686 c -0.98852,1.29627 -2.07378,3.58888 -2.41168,5.09467 -0.58011,2.58511 -4.67372,6.76219 -6.62706,6.76219 -0.49309,0 -1.14357,-0.64377 -1.4455,-1.43059 z"
     id="lvl29"
     inkscape:connector-curvature="0"
     inkscape:label="lvl29" />
</svg>
