<?xml version="1.0" encoding="UTF-8" standalone="no"?>
<!-- Created with Inkscape (http://www.inkscape.org/) -->

<svg
   xmlns:dc="http://purl.org/dc/elements/1.1/"
   xmlns:cc="http://creativecommons.org/ns#"
   xmlns:rdf="http://www.w3.org/1999/02/22-rdf-syntax-ns#"
   xmlns:svg="http://www.w3.org/2000/svg"
   xmlns="http://www.w3.org/2000/svg"
   xmlns:xlink="http://www.w3.org/1999/xlink"
   xmlns:sodipodi="http://sodipodi.sourceforge.net/DTD/sodipodi-0.dtd"
   xmlns:inkscape="http://www.inkscape.org/namespaces/inkscape"
   width="512"
   height="512"
   viewBox="0 0 512 512"
   version="1.1"
   id="svg4511"
   inkscape:version="0.92.1 r15371"
   sodipodi:docname="07.svg">
  <defs
     id="defs4505">
    <linearGradient
       inkscape:collect="always"
       id="linearGradient4493">
      <stop
         style="stop-color:#000000;stop-opacity:0"
         offset="0"
         id="stop4489" />
      <stop
         style="stop-color:#000000;stop-opacity:0.07843138"
         offset="1"
         id="stop4491" />
    </linearGradient>
    <linearGradient
       inkscape:collect="always"
       xlink:href="#linearGradient4493"
       id="linearGradient4495"
       x1="256"
       y1="256"
       x2="424.10336"
       y2="256"
       gradientUnits="userSpaceOnUse" />
    <linearGradient
       inkscape:collect="always"
       xlink:href="#linearGradient4493"
       id="linearGradient4499"
       gradientUnits="userSpaceOnUse"
       x1="256"
       y1="256"
       x2="256"
       y2="486.71429" />
  </defs>
  <sodipodi:namedview
     id="base"
     pagecolor="#ffffff"
     bordercolor="#666666"
     borderopacity="1.0"
     inkscape:pageopacity="0.0"
     inkscape:pageshadow="2"
     inkscape:zoom="1.4"
     inkscape:cx="220.58359"
     inkscape:cy="193.4959"
     inkscape:document-units="px"
     inkscape:current-layer="svg4511"
     showgrid="false"
     units="px"
     inkscape:window-width="1920"
     inkscape:window-height="1017"
     inkscape:window-x="1912"
     inkscape:window-y="-8"
     inkscape:window-maximized="1"
     showguides="true"
     inkscape:guide-bbox="true" />
  <metadata
     id="metadata4508">
    <rdf:RDF>
      <cc:Work
         rdf:about="">
        <dc:format>image/svg+xml</dc:format>
        <dc:type
           rdf:resource="http://purl.org/dc/dcmitype/StillImage" />
        <dc:title />
      </cc:Work>
    </rdf:RDF>
  </metadata>
  <path
     style="fill:#ffffff;fill-opacity:1;stroke:none;stroke-width:0.26458332px;stroke-linecap:butt;stroke-linejoin:miter;stroke-opacity:1"
     d="m 130.67905,216.38446 3.0203,-16.72241 13.843,-21.78981 19.88364,-25.33693 21.64543,-13.68197 27.18268,-8.86794 21.89714,-4.81402 31.7131,-0.50676 21.14207,4.56068 23.65897,7.60108 20.38701,9.37466 19.88364,18.24261 17.3667,25.0836 9.31257,26.85721 21.64544,-0.50676 11.5778,4.05392 9.0609,12.16173 2.5169,17.48251 -1.25847,23.05663 -4.02706,17.48251 -12.08117,9.3747 -6.79567,1.01348 8.05414,16.97576 10.8227,24.57686 6.544,25.33697 -2.01353,25.08356 -5.53724,17.22913 -17.115,21.02971 -18.37347,14.18869 -18.8768,7.60108 -11.07444,2.02696 -10.06767,9.12132 -27.68604,13.68197 -29.44787,6.5876 -28.69281,3.54717 -36.74694,-3.29379 -32.97158,-8.36122 -23.40726,-12.66849 -8.05414,-8.1078 -27.43434,-8.61461 L 109.53697,432.76213 93.428739,408.43864 86.129668,386.64883 85.374602,362.072 94.435506,334.20134 110.29204,300.50318 95.945637,295.1824 85.626303,276.93979 v -26.35045 l 3.775367,-22.54991 12.33287,-11.40163 19.12854,-2.2803 z"
     id="lvl25-col10"
     inkscape:connector-curvature="0" />
  <path
     style="fill:url(#linearGradient4499);fill-opacity:1;stroke:none;stroke-width:0.26458332px;stroke-linecap:butt;stroke-linejoin:miter;stroke-opacity:1"
     d="m 130.67905,216.38446 3.0203,-16.72241 13.843,-21.78981 19.88364,-25.33693 21.64543,-13.68197 27.18268,-8.86794 21.89714,-4.81402 31.7131,-0.50676 21.14207,4.56068 23.65897,7.60108 20.38701,9.37466 19.88364,18.24261 17.3667,25.0836 9.31257,26.85721 21.64544,-0.50676 11.5778,4.05392 9.0609,12.16173 2.5169,17.48251 -1.25847,23.05663 -4.02706,17.48251 -12.08117,9.3747 -6.79567,1.01348 8.05414,16.97576 10.8227,24.57686 6.544,25.33697 -2.01353,25.08356 -5.53724,17.22913 -17.115,21.02971 -18.37347,14.18869 -18.8768,7.60108 -11.07444,2.02696 -10.06767,9.12132 -27.68604,13.68197 -29.44787,6.5876 -28.69281,3.54717 -36.74694,-3.29379 -32.97158,-8.36122 -23.40726,-12.66849 -8.05414,-8.1078 -27.43434,-8.61461 L 109.53697,432.76213 93.428739,408.43864 86.129668,386.64883 85.374602,362.072 94.435506,334.20134 110.29204,300.50318 95.945637,295.1824 85.626303,276.93979 v -26.35045 l 3.775367,-22.54991 12.33287,-11.40163 19.12854,-2.2803 z"
     id="lvl29-shadow"
     inkscape:connector-curvature="0"
     inkscape:label="lvl29-shadow" />
  <path
     inkscape:connector-curvature="0"
     id="lvl29-shadow-1"
     d="m 130.67905,216.38446 3.0203,-16.72241 13.843,-21.78981 19.88364,-25.33693 21.64543,-13.68197 27.18268,-8.86794 21.89714,-4.81402 31.7131,-0.50676 21.14207,4.56068 23.65897,7.60108 20.38701,9.37466 19.88364,18.24261 17.3667,25.0836 9.31257,26.85721 21.64544,-0.50676 11.5778,4.05392 9.0609,12.16173 2.5169,17.48251 -1.25847,23.05663 -4.02706,17.48251 -12.08117,9.3747 -6.79567,1.01348 8.05414,16.97576 10.8227,24.57686 6.544,25.33697 -2.01353,25.08356 -5.53724,17.22913 -17.115,21.02971 -18.37347,14.18869 -18.8768,7.60108 -11.07444,2.02696 -10.06767,9.12132 -27.68604,13.68197 -29.44787,6.5876 -28.69281,3.54717 -36.74694,-3.29379 -32.97158,-8.36122 -23.40726,-12.66849 -8.05414,-8.1078 -27.43434,-8.61461 L 109.53697,432.76213 93.428739,408.43864 86.129668,386.64883 85.374602,362.072 94.435506,334.20134 110.29204,300.50318 95.945637,295.1824 85.626303,276.93979 v -26.35045 l 3.775367,-22.54991 12.33287,-11.40163 19.12854,-2.2803 z"
     style="fill:url(#linearGradient4495);fill-opacity:1;stroke:none;stroke-width:0.26458332px;stroke-linecap:butt;stroke-linejoin:miter;stroke-opacity:1"
     inkscape:label="lvl29-shadow-1" />
  <path
     style="display:inline;fill:#000000"
     d="m 241.99831,488.87466 c -9.38135,-0.87412 -24.69598,-3.77841 -35.49831,-6.73194 -3.85,-1.05265 -8.63796,-2.13426 -10.63992,-2.40358 -3.94712,-0.53099 -12.77667,-3.55711 -14.31008,-4.90444 -0.5225,-0.4591 -1.51244,-0.83472 -2.19987,-0.83472 -0.68743,0 -3.34343,-1.4625 -5.90223,-3.25 -2.5588,-1.7875 -5.35829,-3.7 -6.2211,-4.25 -2.88526,-1.83923 -5.54951,-3.98084 -7.72397,-6.20877 -2.52625,-2.58839 -6.54479,-4.27515 -10.31793,-4.33091 -1.47669,-0.0218 -5.1599,-1.37172 -8.1849,-2.99977 -3.025,-1.62805 -6.30543,-2.9602 -7.28984,-2.96032 -4.87995,-6.2e-4 -21.60398,-11.7048 -28.77118,-20.13529 -11.717472,-13.78277 -15.665976,-20.52678 -19.713111,-33.66982 -2.420788,-7.86149 -2.664737,-10.08529 -2.544482,-23.19512 0.121775,-13.27557 0.387624,-15.25999 3.148243,-23.5 4.212563,-12.57383 8.721175,-23.27403 14.9123,-35.39108 2.92009,-5.71509 5.18523,-10.50519 5.03366,-10.64466 C 105.62402,303.32476 103.25,301.98278 100.5,300.48205 87.274032,293.26439 83,283.43616 83,260.24043 c 0,-21.52315 3.825858,-34.55129 12.098702,-41.19953 5.477258,-4.40165 8.612448,-5.17328 21.880318,-5.38523 l 11.47903,-0.18336 1.6854,-7.25229 c 1.67288,-7.19841 4.26955,-12.57422 10.24989,-21.22004 1.71196,-2.475 3.69161,-5.625 4.39922,-7 2.83133,-5.5017 20.21517,-25.23164 26.26974,-29.81507 7.95203,-6.01984 9.88646,-7.02626 24.08252,-12.52928 13.64897,-5.29094 18.69767,-6.93894 29.85518,-9.74533 11.76728,-2.95976 14.24805,-3.20252 33,-3.22922 14.76642,-0.021 17.65572,0.26775 27.5,2.74863 12.57735,3.16963 19.85629,5.42009 27,8.34766 2.75,1.12699 8.37329,3.32561 12.49619,4.88584 11.31194,4.28076 20.92409,11.98526 32.56397,26.10125 13.71968,16.63823 22.04808,30.37698 24.74974,40.82786 l 2.12091,8.20439 8.0346,-0.29348 c 12.67402,-0.46296 19.17575,1.04574 24.83204,5.76215 8.21891,6.85323 11.31684,15.33288 12.34525,33.79141 1.39336,25.0091 -3.97266,40.57057 -16.1427,46.81382 -7.2574,3.72306 -7.15395,2.97054 -1.8211,13.24707 2.67784,5.16026 5.80745,11.6323 6.95468,14.3823 1.14723,2.75 3.21578,7.7 4.59678,11 5.99715,14.33072 7.74933,23.49494 7.36113,38.5 -0.20264,7.8328 -0.93504,12.70872 -2.88325,19.19512 -3.97221,13.22518 -8.08411,20.20676 -20.08697,34.10559 -7.12925,8.25539 -23.58362,19.69891 -28.32546,19.69952 -0.9877,1.2e-4 -4.27081,1.33227 -7.29581,2.96032 -3.025,1.62805 -6.67035,2.97795 -8.10078,2.99977 -3.35434,0.0512 -8.89922,1.98286 -8.89922,3.10024 0,0.47571 -2.5875,2.66934 -5.75,4.87475 -3.1625,2.20541 -7.67844,5.37218 -10.03542,7.03727 -2.35698,1.66508 -4.85448,3.02742 -5.55,3.02742 -0.69552,0 -1.69208,0.37562 -2.21458,0.83472 -1.30489,1.14653 -9.66276,4.16473 -13.1178,4.7371 -6.36272,1.05406 -9.13594,1.68464 -15.41764,3.50572 -16.65462,4.82821 -43.69627,7.40165 -60.91625,5.79714 z m 40.99055,-7.43762 c 8.4732,-1.40962 15.72676,-2.7613 16.11902,-3.00373 0.39226,-0.24244 5.36596,-1.36724 11.05266,-2.49958 14.77982,-2.94295 29.61883,-10.6573 41.14511,-21.39009 2.20211,-2.05051 4.83392,-3.54366 6.24602,-3.54366 2.59304,0 12.30799,-3.08878 18.94833,-6.02444 2.2,-0.97261 5.575,-2.42814 7.5,-3.23451 5.34777,-2.24015 14.99034,-9.92008 21.26754,-16.93877 14.18298,-15.85834 20.11553,-30.97796 19.94017,-50.81932 -0.0511,-5.78437 -0.56877,-12.42187 -1.15033,-14.75 -0.58156,-2.32813 -1.52486,-6.10065 -2.09622,-8.38338 -0.8777,-3.50668 -2.70496,-8.32825 -8.84891,-23.34958 -0.44992,-1.1 -3.20221,-6.8375 -6.1162,-12.75 -5.86857,-11.90735 -6.35748,-12.22003 -15.03978,-9.61875 -3.50269,1.04943 -3.82227,1.46528 -4.41887,5.75 -1.41064,10.13105 -0.73658,15.25986 2.95284,22.46753 1.92813,3.76682 3.25506,7.25432 2.94871,7.75 -1.27479,2.06266 -4.53451,0.71308 -6.88081,-2.84878 -5.50061,-8.35031 -6.16922,-15.69663 -7.53138,-82.75 -0.75268,-37.05137 -1.03658,-41.74794 -2.94782,-48.76614 C 372.01225,191.8007 355.56043,168.13933 339.429,154.02308 328.86043,144.77477 317.59896,140.1875 282.5,130.8335 c -6.78517,-1.80827 -10.8093,-2.13367 -26.5,-2.14281 -16.04074,-0.009 -19.497,0.27798 -26,2.16135 -4.125,1.19466 -10.2,2.86992 -13.5,3.72279 -9.4181,2.43406 -21.48978,6.4499 -27.5,9.14833 -14.4525,6.4888 -29.56933,21.64663 -43.15387,43.27094 -10.6968,17.0275 -11.76418,22.10665 -12.39998,59.00588 -1.1772,68.31934 -1.69565,79.6214 -3.94479,85.99615 -1.99659,5.65893 -5.25856,10.00385 -7.51044,10.00385 -3.19475,0 -3.10631,-1.56703 0.48825,-8.65122 3.66508,-7.22319 4.23227,-11.49128 2.92492,-22.00995 -0.63345,-5.09655 -0.69562,-5.17481 -4.9656,-6.25 -8.55321,-2.15372 -8.51173,-2.18152 -14.41523,9.66117 -2.94733,5.9125 -5.71761,11.65 -6.156164,12.75 -0.438556,1.1 -2.36213,5.84938 -4.274609,10.55419 -5.514339,13.56556 -7.593065,23.05933 -7.768293,35.47862 -0.288799,20.46863 5.571391,35.31865 20.466806,51.86392 5.5111,6.12154 18.66511,16.60327 20.83619,16.60327 0.44745,0 3.18938,1.06821 6.09317,2.3738 7.70134,3.46262 17.40824,6.6262 20.33137,6.6262 1.39907,0 3.53478,1.04539 4.74602,2.3231 4.7083,4.96665 15.58396,12.49907 23.70225,16.41603 8.17305,3.94338 16.28847,6.08307 41.5,10.94179 21.08614,4.06368 36.39681,4.26505 57.48886,0.75614 z M 126.60461,290.93813 c 0.18289,-4.46772 0.54506,-20.60167 0.80482,-35.85323 0.25977,-15.25156 0.5522,-28.14744 0.64986,-28.65751 0.0976,-0.51008 0.12426,-2.32874 0.0591,-4.04149 -0.11083,-2.91456 -0.41028,-3.15408 -4.67407,-3.73849 -5.46888,-0.7496 -17.50239,0.8141 -21.27394,2.76445 -10.539796,5.45034 -13.919618,16.14334 -13.291174,42.05032 0.577772,23.81809 7.442251,32.49606 27.287704,34.49669 4.35827,0.43936 8.20363,1.07835 8.54526,1.41997 1.204,1.204 1.56317,-0.398 1.89241,-8.44071 z M 113.6602,278.60414 c -0.86339,-1.31771 -1.85562,-3.5346 -2.20494,-4.92641 -0.34932,-1.3918 -1.47881,-3.29408 -2.50997,-4.22726 -1.79309,-1.62272 -2.01371,-1.47331 -5.05954,3.4264 -2.00235,3.2211 -3.88338,5.12311 -5.06661,5.12311 -3.392914,0 -3.029939,-2.71524 1.27398,-9.53001 3.82719,-6.05993 4.10605,-6.91669 2.87733,-8.84013 -4.795787,-7.50734 -7.423254,-15.28664 -5.957308,-17.63817 1.491176,-2.39199 4.162588,0.008 6.510908,5.85017 3.67699,9.14713 4.90795,9.07649 11.12239,-0.63824 2.41373,-3.77326 3.9031,-5.20672 4.98033,-4.79335 0.84524,0.32435 1.725,0.58973 1.95502,0.58973 1.87497,0 -0.82962,4.94508 -9.06593,16.57616 -0.70886,1.00103 0.3234,4.02198 3.69029,10.79985 2.57095,5.17553 4.40131,9.6832 4.06748,10.01703 -1.4357,1.43569 -5.16082,0.42808 -6.61343,-1.78888 z m 283.52833,19.35934 c 8.07392,-0.85641 16.13044,-3.78111 18.51607,-6.72176 0.77715,-0.95796 2.78575,-4.56877 4.46357,-8.02404 2.62172,-5.39914 3.12584,-7.75713 3.58601,-16.77347 0.63799,-12.5005 -1.30266,-30.45183 -3.84199,-35.53891 -2.46564,-4.93947 -8.04645,-9.59511 -13.14877,-10.96903 -4.87829,-1.31358 -19.71769,-1.70062 -21.55952,-0.56231 -0.90621,0.56007 -1.09138,3.58071 -0.7015,11.44348 0.5919,11.93683 1.71129,59.54643 1.54124,65.55218 -0.0945,3.3388 0.13502,3.76948 1.6734,3.13951 0.98063,-0.40156 5.2428,-1.09711 9.47149,-1.54565 z M 392,280.06786 c 0,-0.51267 2.08009,-5.05657 4.62242,-10.09755 l 4.62241,-9.16544 -2.06209,-2.65244 c -1.13415,-1.45885 -3.7226,-5.28983 -5.7521,-8.51328 -2.95277,-4.68988 -3.41436,-6.03543 -2.31032,-6.73469 2.50567,-1.58702 3.0196,-1.1278 10.02496,8.95787 3.56866,5.13781 4.0704,4.87707 7.87696,-4.09336 2.65062,-6.2464 5.39439,-8.45281 6.60105,-5.30829 0.73827,1.9239 -1.51239,10.5393 -2.75325,10.5393 -0.47852,0 -0.87004,0.71803 -0.87004,1.59563 0,0.8776 -0.92429,2.89367 -2.05397,4.48016 l -2.05396,2.88453 4.53482,6.48793 c 4.61164,6.59781 5.06218,9.55175 1.45688,9.55175 -1.20584,0 -3.02858,-1.83051 -4.97879,-5 -1.69209,-2.75 -3.4254,-5 -3.85179,-5 -0.4264,0 -1.8503,2.1375 -3.16423,4.75 -1.31393,2.6125 -3.0212,5.5375 -3.79395,6.5 C 396.63187,281.07242 392,281.69396 392,280.06786 Z"
     id="lvl29"
     inkscape:connector-curvature="0"
     inkscape:label="lvl29" />
</svg>
