<?xml version="1.0" encoding="UTF-8" standalone="no"?>
<!-- Created with Inkscape (http://www.inkscape.org/) -->

<svg
   xmlns:dc="http://purl.org/dc/elements/1.1/"
   xmlns:cc="http://creativecommons.org/ns#"
   xmlns:rdf="http://www.w3.org/1999/02/22-rdf-syntax-ns#"
   xmlns:svg="http://www.w3.org/2000/svg"
   xmlns="http://www.w3.org/2000/svg"
   xmlns:xlink="http://www.w3.org/1999/xlink"
   xmlns:sodipodi="http://sodipodi.sourceforge.net/DTD/sodipodi-0.dtd"
   xmlns:inkscape="http://www.inkscape.org/namespaces/inkscape"
   width="512"
   height="512"
   viewBox="0 0 512 512"
   version="1.1"
   id="svg4511"
   inkscape:version="0.92.1 r15371"
   sodipodi:docname="08.svg">
  <defs
     id="defs4505">
    <linearGradient
       inkscape:collect="always"
       id="linearGradient4491">
      <stop
         style="stop-color:#000000;stop-opacity:0"
         offset="0"
         id="stop4487" />
      <stop
         style="stop-color:#000000;stop-opacity:0.07843138"
         offset="1"
         id="stop4489" />
    </linearGradient>
    <linearGradient
       inkscape:collect="always"
       xlink:href="#linearGradient4491"
       id="linearGradient4493"
       x1="256"
       y1="256"
       x2="425.25226"
       y2="256"
       gradientUnits="userSpaceOnUse" />
    <linearGradient
       inkscape:collect="always"
       xlink:href="#linearGradient4491"
       id="linearGradient4499"
       gradientUnits="userSpaceOnUse"
       x1="256"
       y1="256"
       x2="256"
       y2="423.85715" />
  </defs>
  <sodipodi:namedview
     id="base"
     pagecolor="#ffffff"
     bordercolor="#666666"
     borderopacity="1.0"
     inkscape:pageopacity="0.0"
     inkscape:pageshadow="2"
     inkscape:zoom="1.4"
     inkscape:cx="180.99075"
     inkscape:cy="239.2494"
     inkscape:document-units="px"
     inkscape:current-layer="svg4511"
     showgrid="false"
     units="px"
     inkscape:window-width="1920"
     inkscape:window-height="1017"
     inkscape:window-x="1912"
     inkscape:window-y="-8"
     inkscape:window-maximized="1"
     showguides="true"
     inkscape:guide-bbox="true" />
  <metadata
     id="metadata4508">
    <rdf:RDF>
      <cc:Work
         rdf:about="">
        <dc:format>image/svg+xml</dc:format>
        <dc:type
           rdf:resource="http://purl.org/dc/dcmitype/StillImage" />
        <dc:title />
      </cc:Work>
    </rdf:RDF>
  </metadata>
  <path
     style="fill:#ffffff;stroke:none;stroke-width:0.26458332px;stroke-linecap:butt;stroke-linejoin:miter;stroke-opacity:1"
     d="m 130.09488,217.64097 4.27769,-19.52436 17.46721,-25.20419 19.60603,-22.36429 21.03193,-10.64964 35.29087,-11.71461 19.60604,-3.19491 24.2402,1.06496 23.52727,4.96985 33.152,12.42459 22.1014,16.32948 18.18012,24.1392 9.98127,20.23433 2.13883,12.7796 20.31899,-1.77494 12.47655,3.90486 9.98129,11.71464 3.20824,19.52436 -1.42587,29.46401 -6.06005,13.48959 -18.53662,8.16472 -17.46721,0.35501 -0.71296,23.07428 -7.84242,19.52434 -16.39778,23.07424 -23.17077,24.84922 -26.02255,24.84918 -20.31901,13.48958 -21.74486,-0.70998 -11.76361,-10.29468 -11.40719,10.29468 -23.88372,-0.35501 -14.25893,-9.22968 -28.87432,-26.97914 -25.66612,-29.10907 -18.53662,-26.26915 -4.9906,-22.36425 0.71291,-14.19954 -18.89307,-1.06495 -13.54598,-6.03481 -10.33774,-13.48958 v -20.94432 l 1.782367,-23.78423 8.198877,-15.61946 11.050686,-4.25987 14.97189,-0.70997 z"
     id="lvl25-col10"
     inkscape:connector-curvature="0"
     inkscape:label="lvl25-col10" />
  <path
     inkscape:label="lvl29-shadow"
     inkscape:connector-curvature="0"
     id="lvl29-shadow"
     d="m 130.09488,217.64097 4.27769,-19.52436 17.46721,-25.20419 19.60603,-22.36429 21.03193,-10.64964 35.29087,-11.71461 19.60604,-3.19491 24.2402,1.06496 23.52727,4.96985 33.152,12.42459 22.1014,16.32948 18.18012,24.1392 9.98127,20.23433 2.13883,12.7796 20.31899,-1.77494 12.47655,3.90486 9.98129,11.71464 3.20824,19.52436 -1.42587,29.46401 -6.06005,13.48959 -18.53662,8.16472 -17.46721,0.35501 -0.71296,23.07428 -7.84242,19.52434 -16.39778,23.07424 -23.17077,24.84922 -26.02255,24.84918 -20.31901,13.48958 -21.74486,-0.70998 -11.76361,-10.29468 -11.40719,10.29468 -23.88372,-0.35501 -14.25893,-9.22968 -28.87432,-26.97914 -25.66612,-29.10907 -18.53662,-26.26915 -4.9906,-22.36425 0.71291,-14.19954 -18.89307,-1.06495 -13.54598,-6.03481 -10.33774,-13.48958 v -20.94432 l 1.782367,-23.78423 8.198877,-15.61946 11.050686,-4.25987 14.97189,-0.70997 z"
     style="fill:url(#linearGradient4493);stroke:none;stroke-width:0.26458332px;stroke-linecap:butt;stroke-linejoin:miter;stroke-opacity:1;fill-opacity:1" />
  <path
     style="fill:url(#linearGradient4499);stroke:none;stroke-width:0.26458332px;stroke-linecap:butt;stroke-linejoin:miter;stroke-opacity:1;fill-opacity:1"
     d="m 130.09488,217.64097 4.27769,-19.52436 17.46721,-25.20419 19.60603,-22.36429 21.03193,-10.64964 35.29087,-11.71461 19.60604,-3.19491 24.2402,1.06496 23.52727,4.96985 33.152,12.42459 22.1014,16.32948 18.18012,24.1392 9.98127,20.23433 2.13883,12.7796 20.31899,-1.77494 12.47655,3.90486 9.98129,11.71464 3.20824,19.52436 -1.42587,29.46401 -6.06005,13.48959 -18.53662,8.16472 -17.46721,0.35501 -0.71296,23.07428 -7.84242,19.52434 -16.39778,23.07424 -23.17077,24.84922 -26.02255,24.84918 -20.31901,13.48958 -21.74486,-0.70998 -11.76361,-10.29468 -11.40719,10.29468 -23.88372,-0.35501 -14.25893,-9.22968 -28.87432,-26.97914 -25.66612,-29.10907 -18.53662,-26.26915 -4.9906,-22.36425 0.71291,-14.19954 -18.89307,-1.06495 -13.54598,-6.03481 -10.33774,-13.48958 v -20.94432 l 1.782367,-23.78423 8.198877,-15.61946 11.050686,-4.25987 14.97189,-0.70997 z"
     id="lvl29-shadow-1"
     inkscape:connector-curvature="0"
     inkscape:label="lvl29-shadow-1" />
  <path
     style="fill:#000000"
     d="m 227.36776,433.07068 c -7.40513,-0.68916 -15.44752,-4.90092 -25.22862,-13.21209 -12.86773,-10.93395 -44.12681,-42.65653 -54.75811,-55.57008 -12.38394,-15.04243 -23.16054,-41.61053 -22.21123,-54.7585 0.28522,-3.95027 0.23679,-4.01183 -3.69039,-4.6909 -2.18868,-0.37846 -6.45441,-0.97 -9.47941,-1.31454 -6.49913,-0.74022 -15.356428,-4.55481 -19.344491,-8.33113 -8.45718,-8.00814 -11.962222,-25.82599 -9.480391,-48.19346 1.133144,-10.21245 3.561324,-20 4.961772,-20 0.474711,0 0.86311,-0.6401 0.86311,-1.42245 0,-0.78235 2.295523,-3.43052 5.101161,-5.88483 6.328269,-5.53581 12.967919,-7.21988 25.405949,-6.44389 l 8.47569,0.52877 0.96344,-3.6388 c 0.52989,-2.00134 1.39693,-5.60025 1.92674,-7.99758 0.52982,-2.39732 2.42631,-6.67232 4.21444,-9.5 1.78812,-2.82767 4.70418,-7.51373 6.48013,-10.41346 11.57314,-18.89637 29.39961,-36.83818 41.99338,-42.26509 10.26192,-4.42207 31.20441,-11.82154 37.93907,-13.40476 3.85,-0.90508 9.025,-2.18745 11.5,-2.84972 2.79911,-0.749 11.68155,-1.18499 23.5,-1.15351 16.28104,0.0434 20.28793,0.37346 28,2.30657 13.0172,3.26289 20.63856,5.67622 32.5,10.29124 13.86359,5.394 18.31642,7.71615 25.5,13.29823 5.69553,4.42578 22.95578,24.24117 25.71113,29.51731 0.70888,1.35741 3.66915,6.08241 6.57839,10.5 4.7905,7.27424 5.9498,10.08169 8.89131,21.53197 l 0.89912,3.5 9.96003,-0.31521 c 11.63181,-0.36811 17.46046,1.06347 23.36271,5.73814 8.12091,6.43188 10.96795,15.00695 11.81209,35.57707 1.06024,25.83608 -3.89908,39.33234 -16.71478,45.48753 -4.6539,2.23519 -6.07494,2.6369 -12,3.39223 -1.925,0.2454 -5.81658,0.76222 -8.64795,1.1485 l -5.14796,0.70233 -0.0648,5.42789 c -0.12104,10.13347 -2.26353,18.50147 -7.718,30.14449 -1.88172,4.01664 -3.42129,7.50617 -3.42129,7.75453 0,0.75439 -9.14026,13.7078 -12.30787,17.4425 -11.46886,13.52208 -38.70539,41.13914 -51.69213,52.41433 -5.72726,4.97245 -11.46249,8.87601 -19.7421,13.43701 -2.93619,1.61747 -21.46148,1.83651 -25.2579,0.29865 -1.375,-0.55699 -4.20082,-2.60785 -6.2796,-4.55748 l -3.77961,-3.54479 -6.0804,4.47614 c -4.98258,3.66796 -6.85826,4.47614 -10.38861,4.47614 -2.36951,0 -4.90751,0.14432 -5.63999,0.3207 -0.73249,0.17639 -4.0913,0.0639 -7.46403,-0.25 z m 18.45025,-8.16825 c 2.31661,-1.70366 5.37303,-5.07866 6.79203,-7.5 1.419,-2.42135 3.00456,-4.40245 3.52346,-4.40245 0.5189,0 2.14336,1.9125 3.60992,4.25 1.46656,2.3375 4.22589,5.6 6.13185,7.25 3.32284,2.8766 3.91376,3.014 14.36645,3.34037 8.53068,0.26636 11.26609,0.0208 12.57968,-1.12941 0.92323,-0.80838 3.19585,-2.23892 5.05027,-3.17897 3.80351,-1.9281 26.50522,-22.60618 35.62833,-32.45244 3.3,-3.56157 9.92565,-10.47027 14.72366,-15.35268 16.17574,-16.46022 23.16983,-27.08443 29.57985,-44.93253 2.93335,-8.16764 3.1006,-9.37526 2.70633,-19.54067 -0.23114,-5.95927 -0.66484,-28.14172 -0.96378,-49.29435 -0.61242,-43.33345 -0.97541,-48.98953 -3.68754,-57.45932 C 370.56398,187.9655 350.86228,161.6373 335.5,150.56722 c -10.19778,-7.34854 -14.19048,-8.97003 -42.5,-17.25981 -14.98162,-4.38702 -16.05597,-4.55584 -32.12387,-5.04774 -18.74087,-0.57374 -23.88236,0.0744 -42.14968,5.31378 -26.21341,7.51839 -35.75343,11.67798 -45.20469,19.70991 -13.15886,11.18274 -30.66785,34.60284 -35.64412,47.67773 -3.49865,9.1925 -4.61879,24.07108 -5.31931,70.65527 -0.68333,45.44123 -0.31167,52.59528 3.24097,62.38362 2.6008,7.16584 8.51768,18.16084 13.14104,24.41925 4.02099,5.443 41.31663,45.12133 43.02701,45.77584 0.43822,0.1677 4.51251,3.82134 9.05397,8.1192 4.54146,4.29785 11.00703,9.57591 14.36794,11.729 6.06024,3.88236 6.19382,3.91489 16.16374,3.93571 9.68225,0.0202 10.20833,-0.0932 14.26501,-3.07655 z M 126.93586,262.49998 c 0.22175,-14.85 0.4394,-30.825 0.48366,-35.5 l 0.0805,-8.5 -9.61197,0.0614 c -11.6758,0.0746 -17.31838,1.95875 -22.265686,7.43483 -5.446328,6.02843 -7.668631,17.59955 -7.106792,37.00374 0.400451,13.83036 1.628393,18.58853 6.57459,25.47599 3.91787,5.45554 9.737768,8.10608 19.909858,9.06751 4.125,0.38988 8.175,1.07401 9,1.52029 2.06683,1.11804 2.44316,-3.56885 2.93586,-36.56379 z m -11.60812,17.72371 c -0.64475,-0.41011 -2.44475,-3.18889 -4,-6.17507 -1.55526,-2.98618 -3.33906,-5.58918 -3.96402,-5.78445 -0.62495,-0.19527 -2.55188,1.94562 -4.28207,4.75753 -2.1234,3.45098 -3.700394,5.00577 -4.852239,4.78394 -3.040279,-0.5855 -2.470656,-3.70962 1.823379,-10.00037 3.76086,-5.50967 4.06571,-6.38073 2.88145,-8.23341 -3.22527,-5.04569 -5.883648,-11.34685 -6.147688,-14.57188 -0.234737,-2.86712 0.05539,-3.5 1.604462,-3.5 2.034396,0 2.073416,0.0563 6.164296,8.88862 l 2.72743,5.88862 2.60863,-3.0959 c 1.43475,-1.70275 3.71159,-4.91512 5.05966,-7.13862 2.45594,-4.05082 5.61666,-5.33287 6.63097,-2.68963 0.43267,1.12751 -3.55879,7.7956 -9.35661,15.63107 -1.0851,1.46645 -0.60436,2.97099 3.23329,10.1192 2.47935,4.61815 4.51542,9.18414 4.52461,10.14664 0.0172,1.80183 -2.51955,2.3324 -4.65555,0.97371 z M 396.5,297.63902 c 9.53908,-0.86324 13.36671,-2.07552 17.61303,-5.57839 4.12758,-3.40491 8.50041,-11.68118 9.27833,-17.56065 1.75576,-13.27007 0.11598,-37.60035 -2.93586,-43.56079 -1.92783,-3.76516 -7.47344,-8.971 -11.30703,-10.61427 -3.85226,-1.65126 -18.62438,-2.92428 -22.53732,-1.94219 -2.59176,0.65049 -2.62946,0.78113 -2.13239,7.38972 0.48957,6.50896 1.90713,62.64939 1.73538,68.72753 -0.1229,4.34935 0.55644,5.92483 2.04769,4.74887 0.68099,-0.537 4.38817,-1.26143 8.23817,-1.60983 z m -3.94865,-17.55596 c -0.31168,-0.5043 1.46176,-4.93897 3.94098,-9.85482 2.47922,-4.91584 4.50767,-9.22661 4.50767,-9.57946 0,-0.35286 -2.22146,-3.75483 -4.93658,-7.55993 -5.79535,-8.12187 -6.51039,-10.45424 -3.34301,-10.90454 1.74135,-0.24757 2.96004,0.84055 5.64853,5.04334 4.15191,6.49048 6.32317,8.48022 7.72457,7.07882 0.55481,-0.55481 2.08532,-3.66324 3.40113,-6.90762 2.38361,-5.87727 4.94183,-7.90724 6.6127,-5.24726 0.46585,0.74161 0.58449,2.24839 0.26365,3.34839 -0.90837,3.1143 -6.58533,14.51444 -7.51344,15.08804 -0.45725,0.28259 1.18775,3.52359 3.65555,7.20221 2.46779,3.67862 4.4869,7.22538 4.4869,7.88169 0,1.09181 -3.80381,2.96158 -4.41331,2.16937 -0.14442,-0.18772 -1.70713,-2.47881 -3.47268,-5.09131 -1.76555,-2.6125 -3.58892,-4.75 -4.05192,-4.75 -0.46301,0 -1.83729,2.1375 -3.05396,4.75 -1.21668,2.6125 -2.91098,5.5375 -3.76512,6.5 -1.66667,1.87811 -4.76548,2.33168 -5.69166,0.83308 z"
     id="lvl29"
     inkscape:connector-curvature="0"
     inkscape:label="lvl29" />
</svg>
