<?xml version="1.0" encoding="UTF-8" standalone="no"?>
<!-- Created with Inkscape (http://www.inkscape.org/) -->

<svg
   xmlns:dc="http://purl.org/dc/elements/1.1/"
   xmlns:cc="http://creativecommons.org/ns#"
   xmlns:rdf="http://www.w3.org/1999/02/22-rdf-syntax-ns#"
   xmlns:svg="http://www.w3.org/2000/svg"
   xmlns="http://www.w3.org/2000/svg"
   xmlns:xlink="http://www.w3.org/1999/xlink"
   xmlns:sodipodi="http://sodipodi.sourceforge.net/DTD/sodipodi-0.dtd"
   xmlns:inkscape="http://www.inkscape.org/namespaces/inkscape"
   width="512"
   height="512"
   viewBox="0 0 512 512"
   version="1.1"
   id="svg4511"
   inkscape:version="0.92.1 r15371"
   sodipodi:docname="09.svg">
  <defs
     id="defs4505">
    <linearGradient
       inkscape:collect="always"
       id="linearGradient4493">
      <stop
         style="stop-color:#000000;stop-opacity:0"
         offset="0"
         id="stop4489" />
      <stop
         style="stop-color:#000000;stop-opacity:0.07843138"
         offset="1"
         id="stop4491" />
    </linearGradient>
    <linearGradient
       inkscape:collect="always"
       xlink:href="#linearGradient4493"
       id="linearGradient4495"
       x1="256"
       y1="256"
       x2="426.33588"
       y2="256"
       gradientUnits="userSpaceOnUse" />
    <linearGradient
       inkscape:collect="always"
       xlink:href="#linearGradient4493"
       id="linearGradient4499"
       gradientUnits="userSpaceOnUse"
       x1="256"
       y1="256"
       x2="256"
       y2="495.40616" />
  </defs>
  <sodipodi:namedview
     id="base"
     pagecolor="#ffffff"
     bordercolor="#666666"
     borderopacity="1.0"
     inkscape:pageopacity="0.0"
     inkscape:pageshadow="2"
     inkscape:zoom="0.98994949"
     inkscape:cx="-71.716153"
     inkscape:cy="266.95891"
     inkscape:document-units="px"
     inkscape:current-layer="svg4511"
     showgrid="false"
     units="px"
     inkscape:window-width="1920"
     inkscape:window-height="1017"
     inkscape:window-x="1912"
     inkscape:window-y="-8"
     inkscape:window-maximized="1"
     showguides="true"
     inkscape:guide-bbox="true" />
  <metadata
     id="metadata4508">
    <rdf:RDF>
      <cc:Work
         rdf:about="">
        <dc:format>image/svg+xml</dc:format>
        <dc:type
           rdf:resource="http://purl.org/dc/dcmitype/StillImage" />
        <dc:title />
      </cc:Work>
    </rdf:RDF>
  </metadata>
  <path
     style="fill:#ffffff;stroke:none;stroke-width:0.26458335px;stroke-linecap:butt;stroke-linejoin:miter;stroke-opacity:1"
     d="m 130.84048,216.31534 4.56159,-17.56844 13.68468,-23.84286 20.27368,-22.33701 19.76677,-12.79984 36.23917,-11.29398 19.76677,-3.5137 31.93099,1.00391 30.15706,7.7803 25.84888,10.29008 18.24628,15.56061 15.20525,18.07038 12.16417,22.588 3.54788,16.31353 16.72577,-1.2549 14.19153,2.25882 6.58893,5.27051 7.09579,10.79204 1.5205,19.57622 -1.26707,25.85069 -6.33553,13.3018 -13.68472,7.27837 -22.80783,2.76075 -1.52051,18.82331 -19.00653,51.45041 -19.25999,38.14859 -27.62283,35.88975 -34.46518,35.63883 -17.73944,12.79986 -11.91078,1.50585 -16.47233,-9.28616 -41.81441,-42.41521 -30.66388,-44.92497 -21.28731,-47.68572 -12.41761,-38.39956 -2.28079,-11.79597 -19.51335,-3.01173 -12.671037,-5.5215 -7.349217,-8.78422 -3.041052,-15.81156 1.013683,-25.85069 5.068421,-18.07037 10.390272,-8.03129 11.40391,-2.00783 z"
     id="lvl25-col10"
     inkscape:connector-curvature="0"
     inkscape:label="lvl25-col10" />
  <path
     style="fill:url(#linearGradient4499);stroke:none;stroke-width:0.26458335px;stroke-linecap:butt;stroke-linejoin:miter;stroke-opacity:1;fill-opacity:1"
     d="m 130.84048,216.31534 4.56159,-17.56844 13.68468,-23.84286 20.27368,-22.33701 19.76677,-12.79984 36.23917,-11.29398 19.76677,-3.5137 31.93099,1.00391 30.15706,7.7803 25.84888,10.29008 18.24628,15.56061 15.20525,18.07038 12.16417,22.588 3.54788,16.31353 16.72577,-1.2549 14.19153,2.25882 6.58893,5.27051 7.09579,10.79204 1.5205,19.57622 -1.26707,25.85069 -6.33553,13.3018 -13.68472,7.27837 -22.80783,2.76075 -1.52051,18.82331 -19.00653,51.45041 -19.25999,38.14859 -27.62283,35.88975 -34.46518,35.63883 -17.73944,12.79986 -11.91078,1.50585 -16.47233,-9.28616 -41.81441,-42.41521 -30.66388,-44.92497 -21.28731,-47.68572 -12.41761,-38.39956 -2.28079,-11.79597 -19.51335,-3.01173 -12.671037,-5.5215 -7.349217,-8.78422 -3.041052,-15.81156 1.013683,-25.85069 5.068421,-18.07037 10.390272,-8.03129 11.40391,-2.00783 z"
     id="lvl29-shadow"
     inkscape:connector-curvature="0"
     inkscape:label="lvl29-shadow" />
  <path
     inkscape:label="lvl29-shadow-1"
     inkscape:connector-curvature="0"
     id="lvl29-shadow-1"
     d="m 130.84048,216.31534 4.56159,-17.56844 13.68468,-23.84286 20.27368,-22.33701 19.76677,-12.79984 36.23917,-11.29398 19.76677,-3.5137 31.93099,1.00391 30.15706,7.7803 25.84888,10.29008 18.24628,15.56061 15.20525,18.07038 12.16417,22.588 3.54788,16.31353 16.72577,-1.2549 14.19153,2.25882 6.58893,5.27051 7.09579,10.79204 1.5205,19.57622 -1.26707,25.85069 -6.33553,13.3018 -13.68472,7.27837 -22.80783,2.76075 -1.52051,18.82331 -19.00653,51.45041 -19.25999,38.14859 -27.62283,35.88975 -34.46518,35.63883 -17.73944,12.79986 -11.91078,1.50585 -16.47233,-9.28616 -41.81441,-42.41521 -30.66388,-44.92497 -21.28731,-47.68572 -12.41761,-38.39956 -2.28079,-11.79597 -19.51335,-3.01173 -12.671037,-5.5215 -7.349217,-8.78422 -3.041052,-15.81156 1.013683,-25.85069 5.068421,-18.07037 10.390272,-8.03129 11.40391,-2.00783 z"
     style="fill:url(#linearGradient4495);stroke:none;stroke-width:0.26458335px;stroke-linecap:butt;stroke-linejoin:miter;stroke-opacity:1;fill-opacity:1" />
  <path
     style="fill:#000000"
     d="m 65.8125,511.31687 c 0.721875,-0.28887 1.584375,-0.25335 1.916667,0.0789 0.332291,0.33229 -0.258334,0.56864 -1.3125,0.52522 -1.164943,-0.048 -1.4019,-0.28494 -0.604167,-0.60416 z M 250.99353,500.06564 C 245.60847,498.42758 236.44876,492.76362 233,488.93925 c -0.825,-0.91485 -4.95645,-4.63985 -9.18099,-8.27777 -4.22455,-3.63791 -8.92932,-7.86249 -10.45505,-9.38795 -3.76294,-3.76226 -16.4474,-18.14707 -18.88929,-21.42138 -1.08607,-1.45631 -5.34967,-6.86038 -9.47467,-12.00904 -9.50554,-11.86444 -10.85179,-13.80442 -15.50529,-22.34346 -2.09802,-3.84982 -5.12409,-8.9265 -6.7246,-11.28152 -6.34053,-9.32956 -23.33959,-48.96293 -28.18704,-65.71815 -0.95472,-3.3 -2.10928,-6.9 -2.56568,-8 -1.41683,-3.41474 -3.89877,-13.75641 -4.58099,-19.08787 l -0.65105,-5.08788 -6.14267,-1.11516 c -3.37848,-0.61334 -8.32587,-1.39572 -10.99422,-1.73863 -5.81158,-0.74683 -13.069913,-4.5059 -17.039822,-8.82487 -9.286469,-10.103 -11.79458,-30.95383 -7.044014,-58.55944 0.968535,-5.62817 5.343948,-12.82592 10.285185,-16.91959 5.623531,-4.65893 11.823671,-6.11954 24.310571,-5.727 l 8.66039,0.27225 1.06644,-4.1059 c 0.58654,-2.25825 1.51649,-5.90591 2.06655,-8.10591 0.55005,-2.2 3.02635,-7.15 5.50288,-11 2.47653,-3.85 5.47314,-8.8 6.65913,-11 6.05824,-11.2379 27.64899,-33.27142 37.64699,-38.41902 5.10832,-2.63008 31.32365,-12.00009 39.23724,-14.02436 4.675,-1.19585 10.525,-2.70348 13,-3.35029 6.01781,-1.57267 41.23505,-1.56577 46.52985,0.009 2.18358,0.64949 7.79515,2.15469 12.47015,3.34491 17.05786,4.34278 38.2966,12.96367 47.00556,19.07973 6.2159,4.36525 23.41987,22.75833 27.46181,29.35991 0.67349,1.1 4.02879,6.44543 7.45621,11.87874 4.68812,7.43184 6.76151,11.92834 8.37076,18.15344 l 2.1391,8.2747 8.53328,-0.32318 c 13.01698,-0.49298 19.07494,1.09314 25.32509,6.63072 6.15099,5.44974 9.24219,12.35078 10.69913,23.88558 2.90258,22.98014 -0.92577,44.14907 -9.37202,51.82277 -3.84187,3.49047 -11.33696,7.01409 -16.26738,7.64769 -2.66835,0.34291 -7.66404,1.13489 -11.10154,1.75996 l -6.25,1.1365 v 3.97865 c 0,2.18825 -0.73789,6.4932 -1.63976,9.56654 -3.36462,11.46578 -9.43015,30.65618 -10.3001,32.58789 C 371.16739,361.1438 369,366.37748 369,367.13365 c 0,0.49059 -2.93251,7.52371 -6.51669,15.62915 -5.52032,12.48394 -9.05667,19.11631 -13.21498,24.78449 -0.42258,0.57603 -2.08877,3.50103 -3.70263,6.5 -9.6901,18.00671 -37.84075,52.07301 -54.49993,65.95269 -4.95105,4.125 -9.01629,7.81476 -9.03384,8.19947 -0.0615,1.34696 -12.8316,9.81857 -17.0373,11.30243 -4.52041,1.59489 -9.8993,1.81147 -14.0011,0.56376 z m 19.18428,-10.40502 c 2.9272,-1.94817 7.15618,-5.25629 9.39773,-7.35138 2.24155,-2.09509 6.64267,-6.05926 9.78026,-8.80926 11.23104,-9.84366 25.84822,-26.24168 39.68998,-44.52547 6.35652,-8.39643 7.78011,-10.53486 10.96736,-16.47453 0.88539,-1.65 3.04049,-5.21906 4.78911,-7.93124 9.62607,-14.93044 28.50308,-61.204 33.65827,-82.50709 2.64841,-10.94418 2.76661,-15.35643 1.7028,-63.56167 -1.13974,-51.6453 -1.39062,-53.23045 -10.93935,-69.11649 C 356.0788,167.51409 339.19405,150.08382 325,143.7307 c -9.21242,-4.12339 -38.54179,-12.90757 -49.19501,-14.73395 -3.57523,-0.61294 -13.44869,-0.9032 -22.80499,-0.67042 -15.76049,0.39212 -17.14987,0.59703 -31,4.57199 -28.48571,8.17535 -38.34598,12.42253 -47.82888,20.60166 -13.00016,11.21282 -30.39227,34.59815 -35.29772,47.46111 -3.73898,9.80426 -4.69247,22.85728 -5.04311,69.03889 -0.30065,39.5963 -0.16602,44.12818 1.50025,50.5 3.15041,12.04719 4.91819,17.96401 5.67668,19 0.40267,0.55 1.2945,2.8 1.98184,5 1.27495,4.08082 8.06032,21.45465 10.6039,27.15113 0.77387,1.73312 1.40704,3.60551 1.40704,4.16086 0,1.71965 7.12542,16.40805 10.65166,21.95743 1.84159,2.89818 3.34834,5.52871 3.34834,5.84563 0,0.31691 0.94326,1.90089 2.09612,3.51994 1.15287,1.61906 3.3833,5.35583 4.9565,8.30395 2.52504,4.73182 12.55399,18.51391 18.60027,25.56106 1.17972,1.375 4.77775,5.65 7.99564,9.5 3.21788,3.85 6.74989,8.04743 7.8489,9.32761 2.97189,3.46181 26.84674,24.97984 31.5689,28.45256 9.41425,6.92332 19.07058,7.39751 28.11148,1.38047 z M 126.99519,296.74998 c -0.0371,-1.7875 0.34787,-19.9 0.85551,-40.25 0.50764,-20.35 0.71933,-37.21707 0.47042,-37.48239 -0.87613,-0.93387 -17.87279,-0.2217 -22.12779,0.92717 -5.56411,1.50234 -11.671242,7.06097 -13.589294,12.3688 -2.523956,6.98454 -3.956937,21.85932 -3.267192,33.91445 0.543972,9.50735 1.063869,11.99686 3.590813,17.19444 1.625112,3.34264 3.590597,6.86131 4.367746,7.81927 2.428248,2.99318 10.501557,5.87337 18.811597,6.71111 4.39123,0.44268 8.26357,1.08439 8.6052,1.42601 1.44528,1.44529 2.34603,0.40808 2.28299,-2.62886 z m -9.99368,-16.06193 c -1.43768,-0.71676 -3.62734,-3.63598 -5.22153,-6.96124 -1.51003,-3.14976 -3.16467,-5.72683 -3.67698,-5.72683 -0.5123,0 -2.31589,2.25 -4.00798,5 -2.04295,3.32021 -3.75155,5 -5.085776,5 -3.16607,0 -2.470574,-3.4304 2.043066,-10.07703 l 4.05231,-5.9673 -2.05231,-2.8822 C 101.92354,257.48823 101,255.68237 101,255.06043 c 0,-0.62195 -0.68023,-2.16898 -1.511623,-3.43785 -0.831393,-1.26886 -1.618893,-4.06553 -1.75,-6.21481 -0.198257,-3.25009 0.07989,-3.90779 1.652637,-3.90779 1.040056,0 2.217106,0.675 2.615666,1.5 0.39855,0.825 1.9304,4.13887 3.4041,7.36415 2.65861,5.81852 2.6955,5.84965 4.74075,4 1.13371,-1.02528 2.86552,-3.43915 3.84847,-5.36415 0.98295,-1.925 2.66999,-4.29835 3.74897,-5.27411 3.40929,-3.08313 7.13971,0.13745 3.99927,3.45268 -0.68847,0.72679 -2.48318,3.12143 -3.98825,5.32143 -1.50506,2.2 -3.46133,4.99694 -4.34725,6.21543 -1.53109,2.10583 -1.37128,2.68504 3.23038,11.70786 5.10443,10.00865 5.19761,12.67739 0.35839,10.26478 z m 281.18702,17.27543 c 15.45921,-1.63977 22.61911,-7.74289 25.76658,-21.9635 2.29735,-10.37964 0.27758,-38.90553 -3.22881,-45.60156 -2.36603,-4.51833 -8.08293,-9.14811 -12.89679,-10.44435 -4.91905,-1.32456 -19.78926,-1.78449 -21.53253,-0.666 -0.88202,0.56592 -1.08442,4.69944 -0.75855,15.49189 1.11539,36.94081 1.67036,58.98896 1.5626,62.0801 -0.0988,2.83341 0.15842,3.24714 1.64091,2.63952 0.96693,-0.39631 5.2179,-1.08756 9.44659,-1.5361 z m -4.77235,-17.32134 c -0.27946,-0.72826 1.59266,-5.48957 4.16027,-10.58069 l 4.66838,-9.25658 -2.06209,-2.65244 c -1.13415,-1.45885 -3.7226,-5.28983 -5.7521,-8.51328 -2.95277,-4.68988 -3.41436,-6.03543 -2.31032,-6.73469 2.50411,-1.58604 3.02669,-1.11981 9.99662,8.91874 3.6523,5.26028 4.86592,4.67171 7.98048,-3.87025 2.05521,-5.63661 3.98514,-7.63802 6.10303,-6.32908 2.0753,1.2826 -0.94816,11.08228 -5.43199,17.60627 l -1.87639,2.73016 4.57526,6.54578 c 3.81139,5.45292 4.39775,6.87749 3.51198,8.53256 -1.48443,2.77368 -4.06094,1.20414 -7.41306,-4.51583 -1.45781,-2.48756 -3.04849,-4.52283 -3.53486,-4.52283 -0.48636,0 -2.08591,2.45602 -3.55456,5.45782 -1.46864,3.0018 -3.18924,5.85695 -3.82354,6.34477 -2.30635,1.77371 -4.72958,2.16219 -5.23711,0.83957 z"
     id="lvl29"
     inkscape:connector-curvature="0"
     inkscape:label="lvl29" />
</svg>
