<?xml version="1.0" encoding="UTF-8" standalone="no"?>
<!-- Created with Inkscape (http://www.inkscape.org/) -->

<svg
   xmlns:dc="http://purl.org/dc/elements/1.1/"
   xmlns:cc="http://creativecommons.org/ns#"
   xmlns:rdf="http://www.w3.org/1999/02/22-rdf-syntax-ns#"
   xmlns:svg="http://www.w3.org/2000/svg"
   xmlns="http://www.w3.org/2000/svg"
   xmlns:xlink="http://www.w3.org/1999/xlink"
   xmlns:sodipodi="http://sodipodi.sourceforge.net/DTD/sodipodi-0.dtd"
   xmlns:inkscape="http://www.inkscape.org/namespaces/inkscape"
   width="512"
   height="512"
   viewBox="0 0 512 512"
   version="1.1"
   id="svg4511"
   inkscape:version="0.92.1 r15371"
   sodipodi:docname="10.svg">
  <defs
     id="defs4505">
    <linearGradient
       inkscape:collect="always"
       id="linearGradient4493">
      <stop
         style="stop-color:#000000;stop-opacity:0"
         offset="0"
         id="stop4489" />
      <stop
         style="stop-color:#000000;stop-opacity:0.07843138"
         offset="1"
         id="stop4491" />
    </linearGradient>
    <linearGradient
       inkscape:collect="always"
       xlink:href="#linearGradient4493"
       id="linearGradient4495"
       x1="256"
       y1="256"
       x2="424.23636"
       y2="256"
       gradientUnits="userSpaceOnUse" />
    <linearGradient
       inkscape:collect="always"
       xlink:href="#linearGradient4493"
       id="linearGradient4499"
       gradientUnits="userSpaceOnUse"
       x1="256"
       y1="256"
       x2="256"
       y2="429.74625" />
  </defs>
  <sodipodi:namedview
     id="base"
     pagecolor="#ffffff"
     bordercolor="#666666"
     borderopacity="1.0"
     inkscape:pageopacity="0.0"
     inkscape:pageshadow="2"
     inkscape:zoom="0.98994948"
     inkscape:cx="44.23849"
     inkscape:cy="150.38089"
     inkscape:document-units="px"
     inkscape:current-layer="svg4511"
     showgrid="false"
     units="px"
     inkscape:window-width="1920"
     inkscape:window-height="1017"
     inkscape:window-x="1912"
     inkscape:window-y="-8"
     inkscape:window-maximized="1"
     showguides="true"
     inkscape:guide-bbox="true" />
  <metadata
     id="metadata4508">
    <rdf:RDF>
      <cc:Work
         rdf:about="">
        <dc:format>image/svg+xml</dc:format>
        <dc:type
           rdf:resource="http://purl.org/dc/dcmitype/StillImage" />
        <dc:title />
      </cc:Work>
    </rdf:RDF>
  </metadata>
  <path
     style="fill:#ffffff;fill-opacity:1;stroke:none;stroke-width:0.26458332px;stroke-linecap:butt;stroke-linejoin:miter;stroke-opacity:1"
     d="m 130.55882,217.41876 3.92753,-16.87441 11.78261,-20.10569 20.70888,-26.56822 19.28067,-12.20703 32.13443,-11.84797 23.92231,-4.30836 25.35051,-0.35906 18.56657,2.87223 29.63507,9.69381 20.70888,9.3348 18.20954,17.95149 16.42424,22.97792 8.56921,16.51539 1.42817,11.84798 19.28067,-0.35906 12.85379,2.87223 8.92624,8.97575 4.28455,14.72024 0.71411,26.56822 -4.28456,20.10565 -12.13969,11.12995 -28.56397,3.5903 -1.07114,15.43826 -12.13965,20.1057 -29.27805,32.31268 -47.13053,44.87876 -10.71148,13.28411 -17.13835,5.02642 -27.49284,-0.71805 -13.92489,-15.43828 -22.13706,-16.87441 -46.0594,-49.18716 -20.35181,-26.20917 -4.99867,-14.72024 -1.42821,-8.61669 -19.99478,-1.43613 -15.710141,-9.3348 -7.498055,-16.15634 1.07114,-33.74882 5.71281,-16.8744 11.425576,-8.61673 16.78132,-1.79511 z"
     id="lvl25-col10"
     inkscape:connector-curvature="0" />
  <path
     style="fill:url(#linearGradient4499);fill-opacity:1;stroke:none;stroke-width:0.26458332px;stroke-linecap:butt;stroke-linejoin:miter;stroke-opacity:1"
     d="m 130.55882,217.41876 3.92753,-16.87441 11.78261,-20.10569 20.70888,-26.56822 19.28067,-12.20703 32.13443,-11.84797 23.92231,-4.30836 25.35051,-0.35906 18.56657,2.87223 29.63507,9.69381 20.70888,9.3348 18.20954,17.95149 16.42424,22.97792 8.56921,16.51539 1.42817,11.84798 19.28067,-0.35906 12.85379,2.87223 8.92624,8.97575 4.28455,14.72024 0.71411,26.56822 -4.28456,20.10565 -12.13969,11.12995 -28.56397,3.5903 -1.07114,15.43826 -12.13965,20.1057 -29.27805,32.31268 -47.13053,44.87876 -10.71148,13.28411 -17.13835,5.02642 -27.49284,-0.71805 -13.92489,-15.43828 -22.13706,-16.87441 -46.0594,-49.18716 -20.35181,-26.20917 -4.99867,-14.72024 -1.42821,-8.61669 -19.99478,-1.43613 -15.710141,-9.3348 -7.498055,-16.15634 1.07114,-33.74882 5.71281,-16.8744 11.425576,-8.61673 16.78132,-1.79511 z"
     id="lvl29-shadow"
     inkscape:connector-curvature="0"
     inkscape:label="lvl29-shadow" />
  <path
     inkscape:connector-curvature="0"
     id="lvl29-shadow-1"
     d="m 130.55882,217.41876 3.92753,-16.87441 11.78261,-20.10569 20.70888,-26.56822 19.28067,-12.20703 32.13443,-11.84797 23.92231,-4.30836 25.35051,-0.35906 18.56657,2.87223 29.63507,9.69381 20.70888,9.3348 18.20954,17.95149 16.42424,22.97792 8.56921,16.51539 1.42817,11.84798 19.28067,-0.35906 12.85379,2.87223 8.92624,8.97575 4.28455,14.72024 0.71411,26.56822 -4.28456,20.10565 -12.13969,11.12995 -28.56397,3.5903 -1.07114,15.43826 -12.13965,20.1057 -29.27805,32.31268 -47.13053,44.87876 -10.71148,13.28411 -17.13835,5.02642 -27.49284,-0.71805 -13.92489,-15.43828 -22.13706,-16.87441 -46.0594,-49.18716 -20.35181,-26.20917 -4.99867,-14.72024 -1.42821,-8.61669 -19.99478,-1.43613 -15.710141,-9.3348 -7.498055,-16.15634 1.07114,-33.74882 5.71281,-16.8744 11.425576,-8.61673 16.78132,-1.79511 z"
     style="fill:url(#linearGradient4495);fill-opacity:1;stroke:none;stroke-width:0.26458332px;stroke-linecap:butt;stroke-linejoin:miter;stroke-opacity:1"
     inkscape:label="lvl29-shadow-1" />
  <path
     style="fill:#000000"
     d="m 237.24504,434.57167 c -6.89835,-1.35914 -9.8589,-3.5307 -13.66289,-10.02173 -1.31236,-2.23937 -4.79272,-6.05615 -7.73413,-8.48173 -6.79188,-5.60079 -6.93257,-5.7359 -27.97742,-26.86677 -23.73415,-23.83116 -38.72228,-39.46576 -40.7198,-42.47614 -0.90794,-1.36831 -3.50815,-4.76191 -5.77825,-7.54134 -4.91802,-6.02144 -11.10984,-16.81732 -11.6075,-20.23847 -0.19565,-1.34503 -0.89783,-3.42843 -1.56039,-4.62977 C 127.5421,313.11438 127,310.82731 127,309.23334 v -2.89813 l -11.41093,-1.71533 c -16.667324,-2.50549 -23.022246,-6.30894 -28.088708,-16.81121 -3.393021,-7.03339 -4.012651,-11.73769 -3.926273,-29.80869 0.106651,-22.31245 2.98511,-31.52275 12.110432,-38.75014 5.259129,-4.16531 10.654159,-5.39639 22.629889,-5.16388 l 10.18559,0.19776 1.24507,-5.39187 c 2.16569,-9.37869 3.34136,-11.97345 10.55165,-23.28806 3.87345,-6.07832 7.41587,-11.51327 7.87205,-12.07765 19.51042,-24.13824 25.38633,-28.90532 45.33123,-36.77693 27.27871,-10.76602 42.39968,-14.15946 63,-14.13841 20.7833,0.0212 35.75204,3.3809 62.98722,14.13719 15.74407,6.21798 25.12062,12.37092 32.52023,21.33993 2.45578,2.97663 4.69701,5.63706 4.9805,5.91206 0.75191,0.72937 6.21707,7.39593 8.31354,10.14109 4.00463,5.24374 14.52768,22.762 15.58852,25.95103 0.62351,1.87433 1.70506,5.82816 2.40345,8.78628 l 1.2698,5.3784 10.78153,-0.18511 c 12.11935,-0.20808 16.35315,0.79671 21.98621,5.21787 9.09374,7.13732 11.98828,16.40145 12.09491,38.71044 0.0859,17.96754 -0.53952,22.80021 -3.82681,29.57064 -5.3147,10.94605 -11.14115,14.48669 -28.01265,17.02288 L 386,306.33521 v 2.89813 c 0,1.59397 -0.5421,3.88104 -1.20466,5.08238 -0.66256,1.20134 -1.36474,3.28474 -1.56039,4.62977 -0.54869,3.77202 -7.03454,14.94596 -12.22094,21.05449 -2.56836,3.025 -5.09797,6.27924 -5.62136,7.23165 -2.82588,5.14224 -62.49811,64.95135 -70.1501,70.31102 -1.23602,0.86573 -4.06375,4.2489 -6.28385,7.51815 -2.22011,3.26925 -5.03154,6.57056 -6.24763,7.33624 -5.51173,3.47034 -32.36954,4.75494 -45.46603,2.17463 z m 27.78119,-4.59661 c 4.66058,-0.5637 9.82377,-1.75043 11.47377,-2.63718 3.97926,-2.13853 8.98986,-9.0347 13.68718,-18.8379 5.95584,-12.4297 6.29847,-13 7.81017,-13 2.17547,0 3.11356,6.38485 1.41942,9.66094 -1.79366,3.46856 -1.78477,4.14438 0.0411,3.12259 2.15796,-1.20765 17.95673,-16.95145 35.54216,-35.4185 8.525,-8.95238 17.8625,-18.74921 20.75,-21.77072 2.8875,-3.02152 5.25,-5.81707 5.25,-6.21233 0,-0.39527 2.02359,-3.08937 4.49687,-5.98689 5.50727,-6.45193 11.76669,-17.01571 13.2699,-22.39509 1.37872,-4.93388 1.61895,-21.87113 0.87229,-61.5 -0.66071,-35.06754 -1.11265,-41.13088 -3.71118,-49.79011 C 372.34703,193.2772 359.1987,173.87068 344.72455,159.15474 331.63313,145.84463 320.5756,140.8797 282,130.9909 c -6.01815,-1.54274 -11.05644,-1.92651 -25.5,-1.94232 -16.04041,-0.0176 -19.03423,0.25253 -27.5,2.48098 -5.225,1.37539 -11.3,2.95818 -13.5,3.51733 -9.69247,2.4634 -25.47981,8.25221 -30.85593,11.31408 -9.96675,5.67639 -21.14245,16.45493 -32.22203,31.07694 C 147.60927,183.78946 138,200.39431 138,202.35926 c 0,0.97471 -0.50201,2.71021 -1.11557,3.85667 -2.17865,4.07083 -2.85786,15.82812 -3.47312,60.12051 -0.48074,34.60866 -0.33469,45.90028 0.64027,49.5 1.59766,5.8988 7.62828,16.2365 13.45155,23.05863 2.47328,2.89752 4.49687,5.59162 4.49687,5.98689 0,0.39526 2.3625,3.19081 5.25,6.21233 2.8875,3.02151 12.225,12.81834 20.75,21.77072 17.58543,18.46705 33.3842,34.21085 35.54216,35.4185 1.82584,1.02179 1.83473,0.34597 0.0411,-3.12259 -1.70811,-3.30312 -0.75593,-9.66094 1.44688,-9.66094 0.84384,0 3.74777,4.6058 6.95901,11.03736 9.06081,18.14727 12.95446,22.1559 22.86978,23.54514 7.25023,1.01584 11.04774,0.99561 20.16733,-0.10742 z M 126.82594,296.24998 c -0.0705,-2.0625 0.15048,-12.75 0.49111,-23.75 0.34064,-11 0.73216,-27.425 0.87005,-36.5 l 0.25071,-16.5 -6.9689,-0.31588 c -13.61058,-0.61692 -22.248175,2.48403 -27.51258,9.87721 -4.003339,5.62217 -6.384382,30.9841 -4.31284,45.93867 0.701458,5.06386 5.160847,14.61788 8.033702,17.21181 3.575458,3.22831 10.757768,5.64339 18.111908,6.09019 4.009,0.24357 7.5715,0.72526 7.91666,1.07043 1.81389,1.81388 3.24016,0.38658 3.12018,-3.12243 z m -12.00612,-16 c -0.81959,-0.9625 -2.46663,-3.8875 -3.66011,-6.5 -1.19348,-2.6125 -2.75979,-4.75 -3.48069,-4.75 -0.72091,0 -2.28953,1.74152 -3.48582,3.87004 -3.17901,5.65628 -4.895631,6.8561 -6.917091,4.83464 -1.498018,-1.49802 -1.271618,-2.15272 2.928901,-8.46972 4.16425,-6.26244 4.42715,-7.012 3.0832,-8.79058 -2.06606,-2.73422 -6.055016,-11.55297 -6.307424,-13.94438 -0.386024,-3.65735 0.0016,-4.5 2.070241,-4.5 1.428873,0 2.519453,1.13751 3.595283,3.75 3.22701,7.83633 4.6545,10.31677 5.73621,9.96739 0.61462,-0.19851 2.94747,-3.02863 5.18413,-6.28916 3.08646,-4.49934 4.65316,-5.92823 6.5,-5.92823 3.45881,0 2.72103,2.65238 -2.73239,9.82316 -2.46304,3.23869 -4.70911,6.4901 -4.99125,7.22536 -0.28215,0.73526 1.54948,5.45685 4.07029,10.49241 2.52081,5.03556 4.3325,9.56135 4.02598,10.05732 -0.92022,1.48895 -4.02886,1.01971 -5.61946,-0.84825 z m 282.67,18.11337 c 7.66895,-0.56406 15.20951,-3.32186 18.30364,-6.69419 1.09464,-1.19305 3.27032,-4.64418 4.83485,-7.66918 2.52948,-4.89073 2.90149,-6.82933 3.35815,-17.5 0.65101,-15.21218 -1.67812,-32.85387 -4.94283,-37.43872 -5.16841,-7.25836 -12.57676,-10.06128 -26.59285,-10.06128 H 385 l -0.15753,3.25 c -0.0866,1.7875 -0.11673,3.925 -0.0669,4.75 0.26718,4.41953 1.50046,66.0887 1.38714,69.36283 -0.12308,3.55606 0.0438,3.8093 2.10178,3.18874 1.22951,-0.37075 5.38089,-0.90544 9.22529,-1.1882 z m -4.77936,-17.61337 c -0.25092,-0.6875 1.51158,-5.09929 3.91666,-9.80398 2.40509,-4.70469 4.37288,-9.24745 4.37288,-10.09502 0,-0.84756 -0.91453,-2.36866 -2.03229,-3.38022 -1.11775,-1.01156 -3.0065,-3.4438 -4.19721,-5.40499 -1.19071,-1.96118 -2.4812,-3.79079 -2.86776,-4.06579 -0.38656,-0.275 -0.86032,-1.4 -1.05279,-2.5 -0.27085,-1.54793 0.20007,-2 2.0834,-2 1.85263,0 3.41022,1.43192 6.5266,6 2.25128,3.3 4.72389,6 5.49469,6 0.78754,0 2.55742,-2.84735 4.04033,-6.5 1.98403,-4.88697 3.18064,-6.5793 4.82196,-6.81955 2.19749,-0.32166 2.60731,0.48216 2.20228,4.31955 -0.2524,2.39141 -4.24136,11.21016 -6.30742,13.94438 -1.34395,1.77858 -1.08105,2.52814 3.0832,8.79058 4.20052,6.317 4.42692,6.9717 2.9289,8.46972 -2.02146,2.02146 -3.73808,0.82164 -6.91709,-4.83464 -1.19629,-2.12852 -2.78321,-3.87004 -3.52648,-3.87004 -0.74327,0 -2.26757,2.1375 -3.38734,4.75 -1.11977,2.6125 -2.74852,5.5375 -3.61945,6.5 -1.84032,2.03381 -4.90282,2.30907 -5.56307,0.5 z"
     id="lvl29"
     inkscape:connector-curvature="0"
     inkscape:label="lvl29" />
</svg>
